<svg width="72" height="63" fill="none" xmlns="http://www.w3.org/2000/svg"><mask id="a" fill="#fff"><path d="M63.394 51.364a15.426 15.426 0 015.737 4.745C70.642 58.15 71.6 60.445 72 63h-3.896a11.06 11.06 0 00-1.452-3.727 11.57 11.57 0 00-2.585-2.953 12.706 12.706 0 00-3.435-1.968 10.418 10.418 0 00-3.967-.703c-1.393 0-2.715.234-3.966.703a12.693 12.693 0 00-3.436 1.933c-1.039.82-1.9 1.817-2.585 2.989A12.623 12.623 0 0045.226 63H41.33a15.077 15.077 0 012.833-6.855c1.511-2.04 3.436-3.633 5.773-4.782a10.881 10.881 0 01-3.117-3.831 11.125 11.125 0 01-1.133-4.782 11 11 0 01.425-3.058 10.22 10.22 0 011.275-2.778c.567-.867 1.24-1.64 2.019-2.32a11.713 11.713 0 012.62-1.722 12.725 12.725 0 00-2.195-2.426 16.621 16.621 0 00-2.692-1.863 11.185 11.185 0 00-3.045-1.16A18.885 18.885 0 0040.799 27a13.81 13.81 0 00-5.419 1.09 12.63 12.63 0 00-4.498 3.199c.567 1.523.85 3.093.85 4.71 0 2.157-.484 4.184-1.452 6.082a13.492 13.492 0 01-4.072 4.782 18.26 18.26 0 014.143 2.847 18.96 18.96 0 013.188 3.797 16.773 16.773 0 012.018 4.5 19.32 19.32 0 01.709 4.992h-4.534c0-1.852-.354-3.598-1.062-5.238a13.54 13.54 0 00-2.904-4.29c-1.228-1.218-2.68-2.19-4.356-2.917a12.717 12.717 0 00-5.277-1.055c-1.889 0-3.648.352-5.277 1.055a14.201 14.201 0 00-4.32 2.883 13.159 13.159 0 00-2.94 4.324A13.238 13.238 0 004.533 63H0c0-1.71.236-3.363.708-4.957a18.388 18.388 0 012.019-4.5 18.038 18.038 0 013.152-3.797 18.848 18.848 0 014.179-2.882 13.491 13.491 0 01-4.073-4.782 13.202 13.202 0 01-1.452-6.081c0-1.852.354-3.598 1.063-5.239A13.539 13.539 0 018.5 26.473a14.15 14.15 0 014.32-2.918c1.653-.726 3.424-1.078 5.313-1.054 2.007 0 3.907.422 5.702 1.265a14.26 14.26 0 014.675 3.516 14.277 14.277 0 011.983-1.582 29.385 29.385 0 012.231-1.336 13.49 13.49 0 01-4.073-4.781A13.2 13.2 0 0127.2 13.5c0-1.852.354-3.598 1.063-5.238a13.538 13.538 0 012.904-4.29 14.15 14.15 0 014.32-2.917C37.14.329 38.91-.022 40.8 0c1.865 0 3.624.352 5.277 1.055a13.652 13.652 0 014.32 2.883c1.228 1.218 2.208 2.66 2.94 4.324a12.463 12.463 0 011.062 5.238c0 2.156-.484 4.183-1.452 6.082a13.49 13.49 0 01-4.072 4.781 20.156 20.156 0 014.462 3.164 17.925 17.925 0 013.364 4.324c1.511 0 2.928.281 4.25.844a11.1 11.1 0 013.507 2.355 10.633 10.633 0 012.337 3.445c.543 1.29.826 2.707.85 4.254a10.762 10.762 0 01-4.25 8.614zM18.133 45c1.251 0 2.42-.234 3.506-.703a9.66 9.66 0 002.904-1.933 8.41 8.41 0 001.948-2.848c.448-1.078.685-2.25.708-3.515a8.579 8.579 0 00-.708-3.48 9.58 9.58 0 00-1.948-2.884 8.477 8.477 0 00-2.869-1.933c-1.086-.446-2.266-.68-3.541-.703-1.252 0-2.42.234-3.506.703a9.662 9.662 0 00-2.904 1.933 8.41 8.41 0 00-1.948 2.848c-.449 1.078-.685 2.25-.709 3.516a8.58 8.58 0 00.709 3.48 9.58 9.58 0 001.948 2.883 8.477 8.477 0 002.868 1.933c1.086.446 2.267.68 3.542.703zm13.6-31.5c0 1.243.235 2.403.708 3.481a9.58 9.58 0 001.948 2.883 8.477 8.477 0 002.868 1.934c1.086.445 2.267.68 3.542.703 1.251 0 2.42-.235 3.506-.703a9.66 9.66 0 002.904-1.934 8.41 8.41 0 001.948-2.848c.449-1.078.685-2.25.708-3.515a8.579 8.579 0 00-.708-3.48 9.58 9.58 0 00-1.948-2.883 8.477 8.477 0 00-2.869-1.934c-1.086-.445-2.266-.68-3.541-.703-1.252 0-2.42.234-3.506.703a9.66 9.66 0 00-2.904 1.934 8.41 8.41 0 00-1.948 2.847c-.449 1.078-.685 2.25-.709 3.516zm24.931 22.15c-.992 0-1.912.187-2.762.562a7.809 7.809 0 00-2.267 1.512 6.884 6.884 0 00-1.558 2.25 6.879 6.879 0 00-.567 2.777c0 .985.189 1.899.567 2.742a7.747 7.747 0 001.523 2.25 6.938 6.938 0 002.266 1.547 7.017 7.017 0 002.798.563 6.76 6.76 0 002.762-.563 7.808 7.808 0 002.267-1.511 6.883 6.883 0 001.558-2.25 6.878 6.878 0 00.567-2.778 6.63 6.63 0 00-.567-2.742 7.745 7.745 0 00-1.523-2.25 6.937 6.937 0 00-2.266-1.547 7.017 7.017 0 00-2.798-.562z"/></mask><path d="M63.394 51.364a15.426 15.426 0 015.737 4.745C70.642 58.15 71.6 60.445 72 63h-3.896a11.06 11.06 0 00-1.452-3.727 11.57 11.57 0 00-2.585-2.953 12.706 12.706 0 00-3.435-1.968 10.418 10.418 0 00-3.967-.703c-1.393 0-2.715.234-3.966.703a12.693 12.693 0 00-3.436 1.933c-1.039.82-1.9 1.817-2.585 2.989A12.623 12.623 0 0045.226 63H41.33a15.077 15.077 0 012.833-6.855c1.511-2.04 3.436-3.633 5.773-4.782a10.881 10.881 0 01-3.117-3.831 11.125 11.125 0 01-1.133-4.782 11 11 0 01.425-3.058 10.22 10.22 0 011.275-2.778c.567-.867 1.24-1.64 2.019-2.32a11.713 11.713 0 012.62-1.722 12.725 12.725 0 00-2.195-2.426 16.621 16.621 0 00-2.692-1.863 11.185 11.185 0 00-3.045-1.16A18.885 18.885 0 0040.799 27a13.81 13.81 0 00-5.419 1.09 12.63 12.63 0 00-4.498 3.199c.567 1.523.85 3.093.85 4.71 0 2.157-.484 4.184-1.452 6.082a13.492 13.492 0 01-4.072 4.782 18.26 18.26 0 014.143 2.847 18.96 18.96 0 013.188 3.797 16.773 16.773 0 012.018 4.5 19.32 19.32 0 01.709 4.992h-4.534c0-1.852-.354-3.598-1.062-5.238a13.54 13.54 0 00-2.904-4.29c-1.228-1.218-2.68-2.19-4.356-2.917a12.717 12.717 0 00-5.277-1.055c-1.889 0-3.648.352-5.277 1.055a14.201 14.201 0 00-4.32 2.883 13.159 13.159 0 00-2.94 4.324A13.238 13.238 0 004.533 63H0c0-1.71.236-3.363.708-4.957a18.388 18.388 0 012.019-4.5 18.038 18.038 0 013.152-3.797 18.848 18.848 0 014.179-2.882 13.491 13.491 0 01-4.073-4.782 13.202 13.202 0 01-1.452-6.081c0-1.852.354-3.598 1.063-5.239A13.539 13.539 0 018.5 26.473a14.15 14.15 0 014.32-2.918c1.653-.726 3.424-1.078 5.313-1.054 2.007 0 3.907.422 5.702 1.265a14.26 14.26 0 014.675 3.516 14.277 14.277 0 011.983-1.582 29.385 29.385 0 012.231-1.336 13.49 13.49 0 01-4.073-4.781A13.2 13.2 0 0127.2 13.5c0-1.852.354-3.598 1.063-5.238a13.538 13.538 0 012.904-4.29 14.15 14.15 0 014.32-2.917C37.14.329 38.91-.022 40.8 0c1.865 0 3.624.352 5.277 1.055a13.652 13.652 0 014.32 2.883c1.228 1.218 2.208 2.66 2.94 4.324a12.463 12.463 0 011.062 5.238c0 2.156-.484 4.183-1.452 6.082a13.49 13.49 0 01-4.072 4.781 20.156 20.156 0 014.462 3.164 17.925 17.925 0 013.364 4.324c1.511 0 2.928.281 4.25.844a11.1 11.1 0 013.507 2.355 10.633 10.633 0 012.337 3.445c.543 1.29.826 2.707.85 4.254a10.762 10.762 0 01-4.25 8.614zM18.133 45c1.251 0 2.42-.234 3.506-.703a9.66 9.66 0 002.904-1.933 8.41 8.41 0 001.948-2.848c.448-1.078.685-2.25.708-3.515a8.579 8.579 0 00-.708-3.48 9.58 9.58 0 00-1.948-2.884 8.477 8.477 0 00-2.869-1.933c-1.086-.446-2.266-.68-3.541-.703-1.252 0-2.42.234-3.506.703a9.662 9.662 0 00-2.904 1.933 8.41 8.41 0 00-1.948 2.848c-.449 1.078-.685 2.25-.709 3.516a8.58 8.58 0 00.709 3.48 9.58 9.58 0 001.948 2.883 8.477 8.477 0 002.868 1.933c1.086.446 2.267.68 3.542.703zm13.6-31.5c0 1.243.235 2.403.708 3.481a9.58 9.58 0 001.948 2.883 8.477 8.477 0 002.868 1.934c1.086.445 2.267.68 3.542.703 1.251 0 2.42-.235 3.506-.703a9.66 9.66 0 002.904-1.934 8.41 8.41 0 001.948-2.848c.449-1.078.685-2.25.708-3.515a8.579 8.579 0 00-.708-3.48 9.58 9.58 0 00-1.948-2.883 8.477 8.477 0 00-2.869-1.934c-1.086-.445-2.266-.68-3.541-.703-1.252 0-2.42.234-3.506.703a9.66 9.66 0 00-2.904 1.934 8.41 8.41 0 00-1.948 2.847c-.449 1.078-.685 2.25-.709 3.516zm24.931 22.15c-.992 0-1.912.187-2.762.562a7.809 7.809 0 00-2.267 1.512 6.884 6.884 0 00-1.558 2.25 6.879 6.879 0 00-.567 2.777c0 .985.189 1.899.567 2.742a7.747 7.747 0 001.523 2.25 6.938 6.938 0 002.266 1.547 7.017 7.017 0 002.798.563 6.76 6.76 0 002.762-.563 7.808 7.808 0 002.267-1.511 6.883 6.883 0 001.558-2.25 6.878 6.878 0 00.567-2.778 6.63 6.63 0 00-.567-2.742 7.745 7.745 0 00-1.523-2.25 6.937 6.937 0 00-2.266-1.547 7.017 7.017 0 00-2.798-.562z" stroke="#000" stroke-width="3" mask="url(#a)"/></svg>