<svg width="72" height="64" fill="none" xmlns="http://www.w3.org/2000/svg"><mask id="a" fill="#fff"><path d="M63.394 52.179A15.482 15.482 0 0169.131 57c1.511 2.072 2.468 4.405 2.869 7h-3.896a11.342 11.342 0 00-1.452-3.786 11.698 11.698 0 00-2.585-3 12.658 12.658 0 00-3.435-2 10.275 10.275 0 00-3.967-.714c-1.393 0-2.715.238-3.966.714a12.64 12.64 0 00-3.436 1.965 10.667 10.667 0 00-2.585 3.035A12.944 12.944 0 0045.226 64H41.33c.378-2.571 1.322-4.893 2.833-6.964 1.511-2.072 3.436-3.69 5.773-4.857a11.021 11.021 0 01-3.117-3.893 11.449 11.449 0 01-1.133-4.857c0-1.072.142-2.107.425-3.107.284-1 .709-1.94 1.275-2.822a11.306 11.306 0 012.019-2.357 11.782 11.782 0 012.62-1.75 12.857 12.857 0 00-2.195-2.464 16.612 16.612 0 00-2.692-1.893 11.076 11.076 0 00-3.045-1.178 18.604 18.604 0 00-3.294-.429c-1.889 0-3.695.37-5.419 1.107a12.635 12.635 0 00-4.498 3.25c.567 1.548.85 3.143.85 4.786 0 2.19-.484 4.25-1.452 6.178a13.651 13.651 0 01-4.072 4.857A18.255 18.255 0 0130.35 50.5a19.192 19.192 0 013.188 3.857 17.173 17.173 0 012.018 4.572c.449 1.619.685 3.31.709 5.071h-4.534c0-1.88-.354-3.655-1.062-5.321a13.767 13.767 0 00-2.904-4.357c-1.228-1.239-2.68-2.227-4.356-2.965a12.542 12.542 0 00-5.277-1.071c-1.889 0-3.648.357-5.277 1.071-1.63.715-3.07 1.69-4.32 2.929-1.252 1.238-2.232 2.702-2.94 4.393A13.632 13.632 0 004.533 64H0c0-1.738.236-3.417.708-5.036a18.828 18.828 0 012.019-4.571 18.261 18.261 0 013.152-3.857 18.844 18.844 0 014.179-2.929 13.65 13.65 0 01-4.073-4.857 13.585 13.585 0 01-1.452-6.178c0-1.881.354-3.655 1.063-5.321A13.767 13.767 0 018.5 26.893a14.141 14.141 0 014.32-2.964c1.653-.738 3.424-1.095 5.313-1.071 2.007 0 3.907.428 5.702 1.286a14.283 14.283 0 014.675 3.57 14.33 14.33 0 011.983-1.606 29.34 29.34 0 012.231-1.357 13.649 13.649 0 01-4.073-4.857 13.583 13.583 0 01-1.452-6.179c0-1.88.354-3.655 1.063-5.321a13.766 13.766 0 012.904-4.357 14.14 14.14 0 014.32-2.964C37.14.334 38.91-.023 40.8 0c1.865 0 3.624.357 5.277 1.072A13.64 13.64 0 0150.396 4c1.228 1.238 2.208 2.702 2.94 4.393a12.834 12.834 0 011.062 5.321c0 2.19-.484 4.25-1.452 6.179a13.649 13.649 0 01-4.072 4.857 20.14 20.14 0 014.462 3.214 18.177 18.177 0 013.364 4.393c1.511 0 2.928.285 4.25.857a11.09 11.09 0 013.507 2.393 10.812 10.812 0 012.337 3.5c.543 1.31.826 2.75.85 4.32 0 1.715-.366 3.334-1.098 4.858a10.866 10.866 0 01-3.152 3.893zm-45.261-6.464c1.251 0 2.42-.239 3.506-.715a9.65 9.65 0 002.904-1.964 8.55 8.55 0 001.948-2.893c.448-1.095.685-2.285.708-3.571 0-1.262-.236-2.44-.708-3.536a9.742 9.742 0 00-1.948-2.928 8.472 8.472 0 00-2.869-1.965c-1.086-.452-2.266-.69-3.541-.714-1.252 0-2.42.238-3.506.715a9.652 9.652 0 00-2.904 1.964A8.55 8.55 0 009.775 33c-.449 1.095-.685 2.285-.709 3.57 0 1.263.237 2.441.709 3.537a9.741 9.741 0 001.948 2.928A8.471 8.471 0 0014.59 45c1.086.453 2.267.69 3.542.715zm13.6-32c0 1.262.235 2.44.708 3.536a9.742 9.742 0 001.948 2.928 8.472 8.472 0 002.868 1.965c1.086.452 2.267.69 3.542.714 1.251 0 2.42-.238 3.506-.714a9.65 9.65 0 002.904-1.965 8.55 8.55 0 001.948-2.892c.449-1.096.685-2.286.708-3.572 0-1.262-.236-2.44-.708-3.535a9.742 9.742 0 00-1.948-2.929 8.47 8.47 0 00-2.869-1.964c-1.086-.453-2.266-.69-3.541-.715-1.252 0-2.42.239-3.506.715a9.651 9.651 0 00-2.904 1.964 8.55 8.55 0 00-1.948 2.893c-.449 1.095-.685 2.286-.709 3.571zm24.932 22.5c-.992 0-1.912.19-2.762.571a7.8 7.8 0 00-2.267 1.536 6.995 6.995 0 00-1.558 2.286 7.083 7.083 0 00-.567 2.82c0 1 .189 1.93.567 2.787A7.877 7.877 0 0051.6 48.5a6.936 6.936 0 002.266 1.572c.874.38 1.806.571 2.798.571s1.913-.19 2.762-.571a7.802 7.802 0 002.267-1.536 6.996 6.996 0 001.558-2.286c.378-.88.567-1.821.567-2.821 0-1-.189-1.929-.567-2.786a7.874 7.874 0 00-1.523-2.285 6.933 6.933 0 00-2.266-1.572 6.922 6.922 0 00-2.798-.571z"/></mask><path d="M63.394 52.179A15.482 15.482 0 0169.131 57c1.511 2.072 2.468 4.405 2.869 7h-3.896a11.342 11.342 0 00-1.452-3.786 11.698 11.698 0 00-2.585-3 12.658 12.658 0 00-3.435-2 10.275 10.275 0 00-3.967-.714c-1.393 0-2.715.238-3.966.714a12.64 12.64 0 00-3.436 1.965 10.667 10.667 0 00-2.585 3.035A12.944 12.944 0 0045.226 64H41.33c.378-2.571 1.322-4.893 2.833-6.964 1.511-2.072 3.436-3.69 5.773-4.857a11.021 11.021 0 01-3.117-3.893 11.449 11.449 0 01-1.133-4.857c0-1.072.142-2.107.425-3.107.284-1 .709-1.94 1.275-2.822a11.306 11.306 0 012.019-2.357 11.782 11.782 0 012.62-1.75 12.857 12.857 0 00-2.195-2.464 16.612 16.612 0 00-2.692-1.893 11.076 11.076 0 00-3.045-1.178 18.604 18.604 0 00-3.294-.429c-1.889 0-3.695.37-5.419 1.107a12.635 12.635 0 00-4.498 3.25c.567 1.548.85 3.143.85 4.786 0 2.19-.484 4.25-1.452 6.178a13.651 13.651 0 01-4.072 4.857A18.255 18.255 0 0130.35 50.5a19.192 19.192 0 013.188 3.857 17.173 17.173 0 012.018 4.572c.449 1.619.685 3.31.709 5.071h-4.534c0-1.88-.354-3.655-1.062-5.321a13.767 13.767 0 00-2.904-4.357c-1.228-1.239-2.68-2.227-4.356-2.965a12.542 12.542 0 00-5.277-1.071c-1.889 0-3.648.357-5.277 1.071-1.63.715-3.07 1.69-4.32 2.929-1.252 1.238-2.232 2.702-2.94 4.393A13.632 13.632 0 004.533 64H0c0-1.738.236-3.417.708-5.036a18.828 18.828 0 012.019-4.571 18.261 18.261 0 013.152-3.857 18.844 18.844 0 014.179-2.929 13.65 13.65 0 01-4.073-4.857 13.585 13.585 0 01-1.452-6.178c0-1.881.354-3.655 1.063-5.321A13.767 13.767 0 018.5 26.893a14.141 14.141 0 014.32-2.964c1.653-.738 3.424-1.095 5.313-1.071 2.007 0 3.907.428 5.702 1.286a14.283 14.283 0 014.675 3.57 14.33 14.33 0 011.983-1.606 29.34 29.34 0 012.231-1.357 13.649 13.649 0 01-4.073-4.857 13.583 13.583 0 01-1.452-6.179c0-1.88.354-3.655 1.063-5.321a13.766 13.766 0 012.904-4.357 14.14 14.14 0 014.32-2.964C37.14.334 38.91-.023 40.8 0c1.865 0 3.624.357 5.277 1.072A13.64 13.64 0 0150.396 4c1.228 1.238 2.208 2.702 2.94 4.393a12.834 12.834 0 011.062 5.321c0 2.19-.484 4.25-1.452 6.179a13.649 13.649 0 01-4.072 4.857 20.14 20.14 0 014.462 3.214 18.177 18.177 0 013.364 4.393c1.511 0 2.928.285 4.25.857a11.09 11.09 0 013.507 2.393 10.812 10.812 0 012.337 3.5c.543 1.31.826 2.75.85 4.32 0 1.715-.366 3.334-1.098 4.858a10.866 10.866 0 01-3.152 3.893zm-45.261-6.464c1.251 0 2.42-.239 3.506-.715a9.65 9.65 0 002.904-1.964 8.55 8.55 0 001.948-2.893c.448-1.095.685-2.285.708-3.571 0-1.262-.236-2.44-.708-3.536a9.742 9.742 0 00-1.948-2.928 8.472 8.472 0 00-2.869-1.965c-1.086-.452-2.266-.69-3.541-.714-1.252 0-2.42.238-3.506.715a9.652 9.652 0 00-2.904 1.964A8.55 8.55 0 009.775 33c-.449 1.095-.685 2.285-.709 3.57 0 1.263.237 2.441.709 3.537a9.741 9.741 0 001.948 2.928A8.471 8.471 0 0014.59 45c1.086.453 2.267.69 3.542.715zm13.6-32c0 1.262.235 2.44.708 3.536a9.742 9.742 0 001.948 2.928 8.472 8.472 0 002.868 1.965c1.086.452 2.267.69 3.542.714 1.251 0 2.42-.238 3.506-.714a9.65 9.65 0 002.904-1.965 8.55 8.55 0 001.948-2.892c.449-1.096.685-2.286.708-3.572 0-1.262-.236-2.44-.708-3.535a9.742 9.742 0 00-1.948-2.929 8.47 8.47 0 00-2.869-1.964c-1.086-.453-2.266-.69-3.541-.715-1.252 0-2.42.239-3.506.715a9.651 9.651 0 00-2.904 1.964 8.55 8.55 0 00-1.948 2.893c-.449 1.095-.685 2.286-.709 3.571zm24.932 22.5c-.992 0-1.912.19-2.762.571a7.8 7.8 0 00-2.267 1.536 6.995 6.995 0 00-1.558 2.286 7.083 7.083 0 00-.567 2.82c0 1 .189 1.93.567 2.787A7.877 7.877 0 0051.6 48.5a6.936 6.936 0 002.266 1.572c.874.38 1.806.571 2.798.571s1.913-.19 2.762-.571a7.802 7.802 0 002.267-1.536 6.996 6.996 0 001.558-2.286c.378-.88.567-1.821.567-2.821 0-1-.189-1.929-.567-2.786a7.874 7.874 0 00-1.523-2.285 6.933 6.933 0 00-2.266-1.572 6.922 6.922 0 00-2.798-.571z" stroke="#000" stroke-width="3" mask="url(#a)"/></svg>