<svg viewBox="0 0 16 16" xmlns="http://www.w3.org/2000/svg" fill-rule="evenodd" clip-rule="evenodd" stroke-linecap="round" stroke-linejoin="round" stroke-miterlimit="1.5"><path fill="#fde6e6" d="M-.104-.019h16v16h-16z"/><path fill="none" d="M0 0h16v16H0z"/><path d="M12.731 13.771l.077.167c-.111.23-.235.345-.371.345-.537 0-.929-.648-1.176-1.944a13.388 13.388 0 01-.231-2.429c0-.324.005-.618.013-.882.017-.529.026-.827.026-.895v-.167c-.299 1.04-.546 1.897-.742 2.57-.537 1.79-1.078 2.685-1.624 2.685-.665 0-1.142-.907-1.432-2.723a21.092 21.092 0 00-.102-.869c-.017-.043-.094-.606-.23-1.688-.085.204-.239.673-.46 1.406-.887 2.907-1.935 4.36-3.146 4.36-.443 0-.844-.23-1.202-.69l.243-.166c.478.111.819.166 1.023.166.23 0 .477-.119.742-.358v.013c.204-.154.396-.392.575-.716.486-.861.916-1.914 1.291-3.158.41-1.33.614-2.443.614-3.338 0-.451.166-.677.499-.677.196 0 .499.153.908.46-.103.256-.154.848-.154 1.777 0 1.339.081 2.506.243 3.504.188 1.21.418 1.815.691 1.815.179 0 .532-.767 1.061-2.301.46-1.347.793-2.553.997-3.619a12.914 12.914 0 00.026-.831c.017-.332.106-.528.268-.588.767 0 1.172.154 1.215.46-.136.307-.26 1.117-.371 2.43-.102 1.176-.153 2.045-.153 2.608 0 2.012.294 3.103.882 3.273z" fill-rule="nonzero"/><path d="M14.964 4.786L8 .5 1.036 4.786V15.5h13.928V4.786z" fill="none" stroke="#000" stroke-width=".63"/></svg>