<svg width="69" height="63" fill="none" xmlns="http://www.w3.org/2000/svg"><path d="M46 43.35h-4.315l-10.257-17.4h4.873l-.738-1.154-9.056-14.175-.632-.989-.632.99-9.056 14.174-.737 1.154h4.872L9.848 43.72l-.667 1.13H59.82l-.667-1.13-10.474-17.77h4.873l-.738-1.154-9.056-14.175-.63-.987-.633.986-5.103 7.954-.26.403.258.405 7.244 11.368H39.37l.664 1.13 6.739 11.47H46zm2.875 6.3h-18v12.6h-10v-12.6H1.308l10.408-17.771.661-1.129H7.12L25.874 1.395l7.993 12.553.633.993.633-.993 7.993-12.553L61.881 30.75h-5.258l.661 1.129L67.692 49.65H48.875zm-10.75 1.5h10v11.1h-10v-11.1z" stroke="#000" stroke-width="1.5"/></svg>