<svg viewBox="0 0 2984 2384" xmlns="http://www.w3.org/2000/svg" fill-rule="evenodd" clip-rule="evenodd" stroke-linecap="round" stroke-linejoin="round" stroke-miterlimit="1.5"><path d="M1301.67 1167.27l99.846 24.361s32.848 50.143 18.85 90.205c-13.998 40.063-19.647 75.347-50.078 77.315-30.432 1.968-108.836-30.798-127.851-39.165-19.015-8.368 59.233-152.716 59.233-152.716zm636.01 802.39l-127.686 49.383 110.126 266.294 231.038-18.118-213.478-297.559z" fill="#c1e4cb" fill-opacity=".77"/><path d="M1929.1 1183.22l-186.066-40.563c-4.978 10.299-8.044 20.473-9.71 30.555-5.197 31.442-10.359 77.515-11.245 108.929 50.335 10.862 84.649 17.353 126.322 32.59 29.111-33.07 56.923-83.217 80.699-131.511z" fill="#ffe4ca" fill-opacity=".77"/><g stroke="#6d88fa"><path d="M1577.38 1198.64l-254.293-115.681M2172 428.664s225.15 183.902 222.379 194.82c-2.77 10.918 250.728 77.536 250.728 77.536M2271.93 299.197s296.845 250.571 345.152 232.959c48.308-17.613 253.765-196.788 271.437-193.34 17.671 3.448 86.935-9.96 86.935-9.96m-358.364 203.3l173.382 34.531a102.324 102.324 0 0032.047 1.258l162.85-19.317" fill="none" stroke-width="4.17"/><path d="M2484.81 28.603s-288.213 357.775-323.1 397.534c-32.826 37.413-299.849 377.578-335.057 386.085-30.701 7.418-156.845 136.317-156.845 136.317s-64 61.971-70.21 116.639c-6.21 54.668-80.535 504.665-102.078 543.029-21.543 38.365-70.442 7.689-115.491 16.48-45.05 8.792-51.602-24.742-73.961 29.993-22.359 54.734-48.546 71.798-20.837 115.811 27.709 44.012 74.832 79.564 75.671 129.831.838 50.267-25.779 87.605-32.574 153.459-6.795 65.853.893 149.565 56.466 198.806 55.573 49.241 108.84 11.383 126.544 55.638 17.704 44.256 4.953 66.218 4.953 66.218" fill="none" stroke-width="16.67"/><path d="M1066.41 2195.23s116.605-48.335 118.948-60.725c2.342-12.389.258-58.714 9.586-60.048 9.328-1.333 63.916-40.069 66.893-49.763 2.978-9.694-5.645-65.787-2.545-71.962 3.1-6.176 11.901-13.716 7.949-20.206-3.951-6.49-8.441-48.374-.691-49.837 7.75-1.462 70.594-40.617 70.594-40.617" fill="none" stroke-width="4.17"/><path d="M1078.39 2190.17s-6.254-35.696-.309-38.108c5.946-2.413 42.122-49.841 24.015-89.082-18.108-39.242-20.489-40.422-20.489-40.422l-53.697-74.162s-18.328-23.923-10.428-28.971c7.9-5.048 67.037-77.293 67.037-77.293s53.261-77.907 58.107-97.802c4.845-19.895 59.758-148.379 59.758-148.379" fill="none" stroke-width="4.17"/><path d="M693.798 2011.23l136.15-226.01s-3.463 2.806 90.119-68.451c93.582-71.257 219.867-163.861 219.867-163.861l193.915 58.787m-193.919-58.785c-40.814-13.159-82.187-14.969-124.173-4.315" fill="none" stroke-width="4.17"/><path d="M632.549 1694.84s-28.345-109.412 69.321-155.664c97.665-46.252 218.028-97.073 254.284-89.746 36.256 7.327 80.28 47.401 73.139 95.058-7.142 47.657-3.801 23.785-38.837 56.063-35.036 32.278-149.371 76.002-176.894 115.236-27.523 39.235-19.931 74.925-38.492 63.311-18.56-11.614-31.376-60.252-61.507-58.626-30.13 1.626-81.014-25.632-81.014-25.632zm-46.154 20.01s120.707 15.626 128.476 30.086c7.769 14.46 49.788 37.696 38.96 57.654-10.827 19.957-83.267 135.856-96.216 147.93-12.948 12.073-61.03-20.912-62.771-44.776-1.741-23.864 27.93-33.498 11.11-51.317-16.82-17.818-40.215-35.071-32.216-54.18 7.999-19.109 12.657-85.397 12.657-85.397z" fill="#6dbdf9" stroke-width="8.33"/><path d="M.823 2157.09s37.811-1.538 67.748-21.596c29.937-20.059 722.207 196.843 722.207 196.843s32.766-4.065 40.649-24.847c7.882-20.782 73.872-126.212 93.629-124.775 19.757 1.438 139.468 8.075 154.547 15.976 15.078 7.901 30.971 22.558 30.971 22.558" fill="none" stroke-width="4.17"/></g><path d="M2555.9 2044.58s141.693-213.628 152.237-217.126c10.545-3.498 119.365-135.152 140.2-150.281 20.836-15.129 134.82-144.618 134.82-144.618M2640.69 2102.55l-187.687 278.133M2421.8 1977.84l-223.681 323.183M1847.71 1773.84s104.547 248.716 350.41 527.183c245.863 278.467 69.923 78.859 69.923 78.859M2134.17 1619.53l94.048-67.342s31.427-42.867-4.363-49.214m193.655-132.684c100.363-131.245 174.334-262.014 224.154-392.347 0 0 55.338 27.553 63.579 39.732 8.24 12.178 99.767 95.001 99.767 95.001l-68.347 83.705-124.938 164.291-12.326 15.202-54.939-35.163-72.627-45.12 24.787 15.398 121.292-154.775-8.287-11.701 39.296-84.133" fill="none" stroke="#000" stroke-width="8.33"/><path d="M2576.05 1123.33l41.857 32.889 86.23 61.778M2635.43 1090.7l111.118 88.212m35.022-41.732l-24.981-19.425m-86.719 168.155l-97.241-68.569m16.331 117.019l-67.006-52.661m279.526-171.749s170.969 145.905 187.397 241.055m-449.797-13.725l-55.366 70.601M1375.49 836.972l177.08-255.851s20.651-16.32 30.074-6.782c9.424 9.538 82.574 52.277 82.574 52.277s44.097 9.645 57.08 7.604c12.982-2.04-8.141-9.48 24.282 4.353s35.567 17.76 35.567 17.76m-732.777-213.05L938.626 553.427l-12.597 28.638m12.597-28.638L636.188 346.505s-23.428-27.005-16.517-33.82c6.911-6.815 189.861-250.201 189.861-250.201M636.188 346.505s-99.373-38.03-124.731-60.243c-25.358-22.213-67.579-33.484-73.833-30.507-6.253 2.977-57.823-65.785-53.009-72.51" fill="none" stroke="#000" stroke-width="8.33"/><path d="M560.104.408S140 410.527 141.869 422.84c1.87 12.312-119.071 155.477-89.505 180.546 29.565 25.069 59.007 35.88 58.1 66.524-.907 30.643 7.854 15.383-10.879 40.376-18.734 24.992-12.595 31.383-21.095 71.777-8.501 40.393-4.556 26.07-4.556 26.07" fill="none" stroke="#000" stroke-width="8.33"/><path d="M109.153 697.612s100.711 69.418 113.627 71.065c12.915 1.647 111.306 34.844 122.369 50.849M1597.02 175.517l58.891 43.397m-556.821 738.94l40.212 36.01m58.278-138.147l35.838 32.538 70.728 57.699 76.284-116.212m-76.29 116.212L1199.056 1106.2s-78.001 141.522-72.856 154.846c5.145 13.324-30.293 68.335-44.644 78.476-14.35 10.142 43.416 127.45 66.467 160.351 23.051 32.9 57.288 60.344-14.823 167.831-72.111 107.487-120.883 223.248-120.883 223.248l-89.608 166.652s3.799 8.517-36.843 6.644c-40.642-1.873-141.954-11.784-216.856 7.364-74.902 19.149-236.994 71.639-295.286 68.011-58.292-3.629-259.407-35.727-299.995-114.293m848.985 32.27s-24.29 33.016-34.103 72.843M1725.9 1041.81s82.901-6.083 105.942 15.049c23.041 21.131 166.929 79.023 166.929 79.023l267.198 146.759 279.909 166.224M1975.05 1126.14l127.452-258.408m-21.512 309.588l103.837-158.213m-26.017 39.643l88.519 47.118m-47.199 136.792l17.853-42.382m40.747 79.462l60.844-126.312M1717.32 1554.93s-154.126-6.949-190.538 43.157c-36.411 50.105-71.543 99.715-82.222 148.372-10.679 48.657-41.883 144.687-33.199 176.24 8.684 31.554 35.729 74.237 51.114 86.68 15.385 12.444 55.268 36.564 84.449 41.782 29.181 5.219 75.911 24.458 97.731 18.986 21.821-5.472 144.952-44.334 152.425-53.295" fill="none" stroke="#000" stroke-width="8.33"/><path d="M1630.78 2070.93s-36.193 70.546-34.724 80.89c1.469 10.344-35.585 135.551-42.142 146.044-6.557 10.492-12.863 42.258-8.323 50.995M-.382 921.016s304.616 91.612 304.677 107.085c.062 15.473 135.501-6.205 135.501-6.205s622.869-81.696 648.45-70.03" fill="none" stroke="#000" stroke-width="8.33"/><path d="M1014.91 954.332s69.472-136.637 91.194-135.665c21.721.971 79.412-71.483 83.105-81.723" fill="none" stroke="#000" stroke-width="8.33"/><path d="M1143.65 793.294L948.618 679.175 770.339 571.312m274.221 163.999l40.623-68.773m-133.489 16.4L810.199 900.319s-35.975 38.729-19.25 74.182m11.503-64.243l-54.311-36.27M856.14 830.38L654.395 712.119m248.458 46.498L708.811 641.616M600.879 778.361l86.67 55.346m-147.875 21.056l107.959 80.371s29.458 34.326 21.191 52.835M629.02 739.655l-29.215-37.916s-13.675 10.543-46.316-10.644c-32.641-21.188-77.073-58.774-77.073-58.774M207.241 1065.34l50.302 88.084M101.685 1096.6s64.131 118.45 84.793 141.935c20.662 23.486 159.603 182.44 170.253 179.882 10.651-2.558 74.799-62.63 87.782-95.892 12.984-33.261 23.22-138.752 20.586-170.566-2.635-31.815-11.365-134.86-27.739-136.933" fill="none" stroke="#000" stroke-width="8.33"/><path d="M465.507 1166.62s126.164-16.136 140.529 5.642c14.366 21.779 139.067 150.954 150.379 147.77m-55.653 63.268s-39.164-46.989-50.714-47.481" fill="none" stroke="#000" stroke-width="8.33"/><path d="M672.216 1412.88l-102.338-88.538s12.318-129.78 58.529-122.077m-58.529 122.075s-36.902 91.8-115.812 150.44c-78.91 58.639-84.427 82.087-84.427 82.087l-39.721 130.503m50.108-284.56l162.272 149.47m-303.825 330.2l101.708 88.307m-155.845-44.307s63.103-378.029 88.587-410.761c25.484-32.731 81.401-97.902 81.401-97.902M127.629 1974.92S2.487 1832.841-10.393 1831.448m5.295-632.058s52.093 68.319 42.796 106.124c-9.298 37.804 6.983 45.84-15.998 72.96" fill="none" stroke="#000" stroke-width="8.33"/><path d="M-2.193 1309.22s53.696-4.142 57.564 4.805c3.869 8.948 44.66 19.271 54.396 19.113 9.736-.159 51.677 3.619 56.731-3.83 5.055-7.448 14.392-15.413 11.409-26.137-2.984-10.724-6.953-33.748-.295-37.747 6.657-4 19.209-16.984 19.209-16.984m76.577 265.17s-28.538 27.284-60.625-3.531c-32.086-30.816-32.169-32.702-32.169-32.702l-61.196-59.48-48.921-55.436-36.694-43.705m931.126-362.024l30.013-56.279M2389.28 1359.14l-57.412 106.802m22.032-41.002l-44.706-26.823-7.857-4.906M1722.97 1117.51s22.78 9.154 43.964 12.362c9.938 1.505 18.633 1.453 22.73-1.949 12.832-10.655 34.136-71.342 34.136-71.342m-100.83 60.929l112.931 66.555m-137.711-8.175l105.119 64.744M1682.31 1280.6l116.815 12.818 52.258 24.902m46.017 53.78s-25.589 135.625 64.642 243.03c90.232 107.405 164.848 139.448 165.366 168.281.517 28.833-5.628 39.662-26.164 58.094-20.536 18.431-15.217 25.836-59.038 19.97-43.822-5.865-21.515-1.994-46.282-11.189-24.768-9.195-21.714-12.429-38.693-21.989-16.978-9.561-35.415-33.54-50.209-35.283-14.794-1.743-44.477-26.743-54.792-18.379-10.316 8.363-31.673-48.851-39.02-61.209-7.348-12.358-6.925-15.245-6.925-15.245m30.455 63.079s-65.884-8.851-76.51-1.621" fill="none" stroke="#000" stroke-width="8.33"/><path d="M1717.92 1536.27l85.962 3.42 2.327-27.7s46.759 72.816 151.355 100.718m170.346 171.242s24.123-7.192 26.595-.753c2.473 6.439 58.683-44.731 63.924-53.429" fill="none" stroke="#000" stroke-width="8.33"/><path d="M2139.13 1781.35s4.617 19.718 35.154 43.282c30.537 23.564 31.865 39.607 53.113 49.827 21.249 10.22 51.199 57.962 93.507 70.95 42.307 12.988 93.287 38.547 113.342 29.801 20.054-8.746 25.19-5.661 25.19-5.661M1525.61 921.456l-67.456 127.586m531.456-162.808s201.106-266.603 279.238-319.012c78.132-52.409 122.974-73.314 172.771-136.467 49.798-63.153 266.689-434.676 266.689-434.676M2441.62 430.755l-62.766-63.033M1872.6 1141.96l118.17 87.314m357.28 109.116l-89.993 104.537s-18.866-7.293-32.658.782c-13.791 8.076-6.338 16.875-25.851 12.321-19.513-4.553-24.837 1.281-36.334-18.244-11.496-19.525 6.742-19.05-8.134-39.31-14.877-20.26-19.608-39.251-6.309-43.129 13.299-3.877 15.926-1.98 31.389-12.161 15.463-10.18 57.347-46.259 62.476-64.319m-75.496-45.757l-93.07 112.345s-16.317 12.297 17.692 43.212M1469.76 365.094L928.027 35.344m431.543 262.678l96.625-156.273m-234.235 74.512l-118.634 215.53s-7.65 22.789-16.982 32.086c-1.841 1.835-23.159 7.11-5.674 3.649m54.01-307.691l-22.442 34.363m-169.903 73.443l58.599-90.914M972.86 319.26l-34.445 45.756m34.445-45.756l42.168-75.105s15.62 6.651 32.751-11.671c17.132-18.321 22.528-24.071 22.528-24.071m50.933 481.308l27.888-45.33s16.556-24.3-7.755-57.827C1117.063 553.037 769.015 1.563 769.015 1.563M930.16 1134.31s124.523-51.176 153.648-78.404c29.124-27.227 223.544-250.765 223.544-250.765s40.469-47.517 45.105-80.249c1.215-8.578-11.509-22.032-14.453-26.361" fill="none" stroke="#000" stroke-width="8.33"/><path d="M1708.2 0s-353.919 537.334-359.015 575.224c-5.096 37.891 12.586 82.576-4.137 107.616-16.722 25.039-119.969 144.811-119.969 144.811L932.92 1127.762S227.067 1902.59 195.034 1922.81C163 1943.029-.276 2089.947-.276 2089.947M1732.17 1044.42s3.252 10.889-3.454 30.385c-4.405 12.808-2.252 36.76-7.503 46.087-36.678 65.145-43.661 151.349-40.339 193.417 4.66 59.026 55.713 376.274 66.227 393.532 10.515 17.258 21.627 173.861 22.46 206.607.834 32.746 122.58 373.051 175.862 448.272 53.282 75.222-43.712 78.097-43.712 78.097m70.569-1317.677l-122.162 196.29 283.522 305.38s116.152 165.581 281.471 305.514c165.32 139.934 66.407 81.3 319.138 222.841 252.731 141.54 239.111 137.83 239.111 137.83" fill="none" stroke="#000" stroke-width="8.33"/><path d="M1879.72 931.133s62.412 103.782 31.678 148.949c-30.734 45.168-73.996 103.627-73.996 103.627s-32.454 35.187-30.665 57.338c1.789 22.151-15.503 75.639-6.303 155.39 9.2 79.752 4.393 203.615 4.393 203.615l1.582 99.164s-22.439 72.656-43.296 91.094" fill="none" stroke="#000" stroke-width="8.33"/><text x="2480.06" y="1046.24" font-family="'ArialMT','Arial',sans-serif" font-size="51.614" fill="#6d88fa" transform="rotate(-51.135 1503.553 789.276)">Pilica</text><text x="2751.3" y="3663.14" font-family="'ArialMT','Arial',sans-serif" font-size="57.737" fill="#6d88fa" transform="rotate(-119.273 1658.935 3375.692)">Pilica</text><text x="3376.48" y="623.833" font-family="'ArialMT','Arial',sans-serif" font-size="50" transform="rotate(46.596 1719.634 -553.713)">Kielecka</text><text x="516.917" y="2826.32" font-family="'ArialMT','Arial',sans-serif" font-size="41.667" transform="rotate(-47.933 -1139.925 1654.74)">Częstochowska</text><text x="-74.995" y="3472.22" font-family="'ArialMT','Arial',sans-serif" font-size="41.667" transform="rotate(-47.933 -1731.836 2300.644)">Częstochowska</text><text x="4260.92" y="673.721" font-family="'ArialMT','Arial',sans-serif" font-size="41.667" transform="rotate(81.545 2604.075 -497.856)">Krakowska</text><text x="938.036" y="3104.19" font-family="'ArialMT','Arial',sans-serif" font-size="33.333" transform="rotate(-57.98 -718.809 1938.58)">T<tspan x="957.16px 975.699px" y="3104.19px 3104.19px">ur</tspan>ystyczna</text><text x="842.383" y="3973.5" font-family="'ArialMT','Arial',sans-serif" font-size="33.333" transform="rotate(-62.01 -814.46 2807.887)">T<tspan x="861.508px 880.046px" y="3973.5px 3973.5px">ur</tspan>ystyczna</text><text x="3879.89" y="1364.87" font-family="'ArialMT','Arial',sans-serif" font-size="41.667" transform="rotate(64.176 2223.037 193.292)">Krakowska</text><text x="1855.01" y="3211.32" font-family="'ArialMT','Arial',sans-serif" font-size="41.667" transform="rotate(-63.68 198.167 2039.742)">Pocztowa</text><text x="2628.44" y="624.225" font-family="'ArialMT','Arial',sans-serif" font-size="41.667" transform="rotate(7.939 971.595 -547.353)">Konecka</text><text x="1103.68" y="2569.15" font-family="'ArialMT','Arial',sans-serif" font-size="41.667" transform="rotate(-58.686 -553.166 1397.57)">Piotrkowska</text><text x="1874.18" y="-595.746" font-family="'ArialMT','Arial',sans-serif" font-size="41.667" transform="rotate(30.719 217.34 -1767.32)">Majowa Góra</text><text x="1142.5" y="2151.22" font-family="'ArialMT','Arial',sans-serif" font-size="41.667" transform="rotate(-56.676 -514.347 979.64)">Lipowa</text><text x="2536.01" y="373.664" font-family="'ArialMT','Arial',sans-serif" font-size="33.333" transform="rotate(28.387 879.164 -791.942)">Mostowa</text><path d="M0 1122.68l397.415-107.822a73.194 73.194 0 0038.602-25.694l352.051-452.485c9.903-12.728 27.635-16.279 41.675-8.346l872.014 492.71s-6.718 32.254 40.427 10.567c47.146-21.686 64.221-70.574 64.221-70.574s110.075-59.676 139.119-62.511c29.044-2.835 254.621-65.048 298.446-57.547 41.839 7.161 439.367 53.942 475.317 58.169 1.729.203 3.464.349 5.203.437l239.53 12.189" fill="none" stroke="#fee600" stroke-width="14.58"/><path fill="#ff3800" d="M356.742 967.567h102.894v84.716H356.742z"/><text x="378.991" y="1028.69" font-family="'Arial-BoldMT','Arial',sans-serif" font-weight="700" font-size="50" fill="#fff">42</text><path fill="#ff3800" d="M2781.43 867.442h102.894v84.716H2781.43z"/><text x="2803.68" y="928.563" font-family="'Arial-BoldMT','Arial',sans-serif" font-weight="700" font-size="50" fill="#fff">42</text><g font-family="'ArialMT','Arial',sans-serif" font-size="12" fill="#6d88fa"><text x="122.931" y="481.494" transform="translate(-64.38 -12.958) scale(4.16667)">Zalew w</text><text x="114.253" y="493.887" transform="translate(-64.38 -12.958) scale(4.16667)">Przedborzu</text></g><path d="M1076.97 1343.07s-123.904 58.918-144.834 84.672" fill="none" stroke="#000" stroke-width="4.17"/><path d="M1903.78 1300.2l-25.216 27.68 34.422 31.357 25.215-27.68-34.421-31.357zm-45.62 49.8l-22.302 21.896 27.229 27.735 22.303-21.896-27.23-27.735z" fill="#fff0e1" stroke="#fff1c1" stroke-width="1.67"/></svg>