<svg viewBox="0 0 1446 1163" xmlns="http://www.w3.org/2000/svg" fill-rule="evenodd" clip-rule="evenodd" stroke-linecap="round" stroke-linejoin="round" stroke-miterlimit="1.5"><path d="M1214.22 693.445a10.63 10.63 0 00-15.133 2.317l-26.462 37.467c-3.318 4.698-2.297 11.184 2.305 14.636l34.997 26.248a10.63 10.63 0 013.359 12.769l-26.952 61.522a10.631 10.631 0 002.34 11.898c8.347 7.906 23.924 22.905 27.992 28.371 5.632 7.568-7.722 58.054 0 61.327 7.722 3.273 32.03 25.093 39.793 29.29 7.762 4.197 26.31.078 46.597-4.29 20.287-4.368 6.238-9.474 0-20.833-6.238-11.359-14.802-59.752-12.141-49.538 2.372 9.104.516-19.887.084-26.297a10.61 10.61 0 00-.445-2.402l-20.604-66.971-.009-.03-13.022-42.777a10.638 10.638 0 01-.46-3.095v-32.104a10.63 10.63 0 00-4.18-8.449l-38.059-29.059zM905.06 416.508a5.552 5.552 0 00.635 8.157c24.316 19.28 132.614 104.635 147.495 108.668 16.78 4.549 66.854 41.454 71.678 46.392 4.824 4.939 89.137 65.901 104.601 63.246 15.464-2.654 34.114-31.311 30.239-43.694-3.874-12.383-70.294-49.309-84.708-49.277-14.414.032-61.231-25.218-62.5-37.5-1.269-12.282-73.841-68.323-78.418-60.186-4.577 8.138-90.067-85.003-92.415-77.794-1.867 5.73-26.555 31.61-36.607 41.988zm365.63 650.972c24.356-15.126 23.887-2.059 73.172 25.785 23.341 13.187 25.243 47.787-6.359 69.231-77.817.273-35.377.092-120.271 0 5.493-51.854 33.065-82.352 53.458-95.016z" fill="#fff0e1"/><path d="M16.667 1150S285.502 989.249 300 991.667c14.498 2.417 399.708 33.725 422.917 29.166 23.208-4.558 514.583-112.5 514.583-112.5s60.168-13.112 79.167-8.333c18.998 4.779 95.597 8.336 116.666 20.833 21.07 12.498 41.667 20.834 41.667 20.834" fill="none" stroke="#000" stroke-width="4.17"/><path d="M329.167 0S369.573 80.391 450 154.167c80.427 73.775 112.053 98.83 116.667 95.833 4.613-2.997 149.905 41.908 156.25 50 6.345 8.092 83.353 49.047 106.25 50 22.896.953 275.057 162.211 279.166 179.167 4.109 16.956 118.385 56.948 120.834 75 2.071 15.273-2.345 126.993-3.754 161.023a101.069 101.069 0 001.225 19.894c4.824 29.625 19.559 114.583 29.822 119.545m-880.483 93.84S286.041 842.229 233.333 775c-52.707-67.229-96.22-101.27-104.166-125-7.947-23.73-25.607-105.825-33.334-120.833-7.726-15.008-24.951-95.27-50-129.167C20.785 366.103 8.338 363.916 0 358.333" fill="none" stroke="#000" stroke-width="4.17"/><path d="M702.995 290.767L600 452.314 829.167 581.25m397.233 18.027s71.549-87.083 73.597-111.777c2.048-24.694-21.912-84.554 0-108.333 21.912-23.779 25.137-47.636-43.54-237.5C1187.779-48.198 1208.33 0 1208.33 0M470.755 173.108C497.323 117.003 514.45 59.371 520.833 0m483.847 452.314l12.632-31.481m239.148 483.796S1331.268 1131.76 1325 1150c-6.268 18.24-20.833 12.5-20.833 12.5" fill="none" stroke="#000" stroke-width="4.17"/><path d="M1303.06 1053.95s-33.831 1.695-36.39 16.883c-2.56 15.188-13.589 49.429-20.834 54.167-7.244 4.738-29.166 38.357-29.166 38.357" fill="none" stroke="#000" stroke-width="4.17"/><text x="492.132" y="156.82" font-family="'ArialMT','Arial',sans-serif" font-size="50">Kaleń</text><text x="951.953" y="410.311" font-family="'ArialMT','Arial',sans-serif" font-size="50">Majdan</text><text x="1038.7" y="99.188" font-family="'ArialMT','Arial',sans-serif" font-size="41.667">Dawidów</text><text x="1118.17" y="844.735" font-family="'ArialMT','Arial',sans-serif" font-size="50">Góry Mokre</text><text x="682.563" y="610.06" font-family="'ArialMT','Arial',sans-serif" font-size="41.667">Góry Suche</text><text x="534.034" y="-41.695" font-family="'Arial-BoldMT','Arial',sans-serif" font-weight="700" font-size="58.333" transform="rotate(44.192 158.058 -370.861)">Przedbórz</text><path d="M136.156 40.627l-8.364 8.364V23.255h25.736l-8.364 8.364 67.623 67.623-9.008 9.008-67.623-67.623z"/><text x="1757.97" y="897.511" font-family="'Arial-BoldMT','Arial',sans-serif" font-weight="700" font-size="30.575" transform="matrix(.27018 .95863 -.96713 .25485 1716.05 -931.973)">Oleszno</text><path d="M1387.13 1148.47l8.427-2.094-9.524 16.128-16.405-9.684 8.427-2.094-12.951-48.576 9.075-2.256 12.951 48.576z"/><text x="327.73" y="1051.89" font-family="'ArialMT','Arial',sans-serif" font-size="50">Józefów</text><text x="1093.64" y="1120.72" font-family="'ArialMT','Arial',sans-serif" font-size="33.333">Kajetanów</text></svg>