<svg viewBox="0 0 2364 2197" xmlns="http://www.w3.org/2000/svg" fill-rule="evenodd" clip-rule="evenodd"><path d="M1289.09 150.475l-35.432 26.39-61.069 16.648 1.712 18.6 15.846 7.767 25.889-5.178 27.184-14.239 24.595-7.767 18.122-18.123 18.123-17.14 33.656 2.901 56.956 5.178 55.662 11.65 60.84 3.884 44.012 3.883 69.901 9.061 97.085-3.883 86.729-5.178 78.963-11.65 34.645-2.569 27.489-10.376 18.77-9.722 20.071-3.216 18.116 21.999 20.711 16.828 12.945-2.588 12.944 12.28 28.479 5.842 6.492 19.078 19.397 17.167 16.828 20.712-6.472 41.422 11.65 50.485 23.3 76.373 27.184 64.723 27.191 85.754 19.064 20.393 2.955 46.912 16.476 26.52-2.257 48.247 1.294 31.068-3.883 31.067-24.595 16.828-29.773 14.239-38.834 20.711-29.128 43.68-34.314 53.724-3.87 21.687 10.356 16.828 51.779 3.884 51.778 28.478 31.067 40.128-27.183 20.712-5.178 32.361 11.65 31.711-17.499 7.435-8.39 13.941 2.589 54.354 14.239 18.123 28.478 40.128-8.072 33.649 9.366 27.191 15.534 24.595 27.184 7.767 2.589 22.005 19.417 23.301 1.294 31.067 9.061 20.711 31.068 10.356 3.883 7.767-19.417 3.883-10.356 12.945v16.828l20.712 28.478 7.441 16.449-6.641 25.445-3.389 20.241-3.884 31.067-22.005 18.122-27.184 1.295-31.067 14.239-41.423 51.779-55.662 77.668-97.085 130.741-56.957 69.901 15.534 34.95 11.65 22.006v9.061l2.589 15.534v38.834l27.184 28.478 16.828 23.301 7.767 23.3-15.534 5.178-15.547-11.352-11.637-6.771-29.773-3.883-42.717-11.65-30.735-14.565-45.638-12.619-34.951-12.945-6.472-15.533 1.294-19.417-20.711-14.239-24.595-19.417-11.969 14.246-17.804-11.657-20.711-11.651h-15.534l-16.828 7.767-25.889-2.589-18.123-15.533-14.239 6.472-9.061 20.711-10.356-10.355-24.595-1.295-9.061 14.239 12.945 14.24-20.712 1.294-5.178 22.006-16.828 2.589-40.128-41.423-18.123-3.883-10.355 7.766-28.479-1.294-19.417 5.178h-11.65l-10.688-8.729-2.256 25.557-22.006 5.178-27.184 7.766-6.805 24.263-3.551 27.516-16.835-5.171-10.349-12.951-22.006 2.589-14.239 9.061-22.006-5.178 1.295-24.595 7.767-40.128-15.534-10.356h-15.534l-10.355-9.061-19.417-19.417-5.178-18.123-11.65-25.889-12.945-5.178-10.356 24.595-27.183 5.178-15.534 29.772-19.417 23.301-25.889-5.178-12.945-1.295-2.589-28.478-9.095-8.722-10.322-8.106-14.239-23.3v-16.828l-18.123-15.534-27.183-14.239-6.473-27.184-6.472-42.717-42.717-16.828-22.006 11.65-22.006-23.3-18.123-5.178-22.006-11.65-12.944 10.355-22.006 10.356-22.006-14.239-9.061-24.595-14.24-18.123-27.183-16.828 23.3-11.65 24.595-7.767-16.828-24.594-23.3-5.517-22.006 1.633-19.417 12.945-18.123-10.356-12.945-19.417-16.828-5.178-15.533-15.533h-20.712l-23.3-15.534-28.478-10.356-18.123 7.767 15.534 16.828 19.417 23.301 11.65 22.006-1.295 12.944h-28.478l-19.417 7.767-22.006 33.656-27.183-6.472-10.356-10.356-9.061-37.539-12.627-9.672-6.79-16.218-18.123-2.589-5.178-12.944-23.3-11.651-16.828-14.239 16.828-18.122 22.006-11.65 19.417-23.301-3.884-23.3-7.766-14.239h-18.123l-16.157-6.473-11.339 10.343-20.399-6.459-19.417 19.417-2.589-32.362-7.767-1.294-9.061 1.294-23.301-1.294-7.766-20.712-22.006 5.178-20.712-12.945-23.3-5.177-37.54-12.945-16.828-29.773-14.239-40.128-15.533-2.589-16.828-3.884-18.123-6.472-2.589 6.472v16.828l-1.294 15.534-9.062 15.534-16.828-3.884h-11.65l-12.945-7.767 5.178-20.711 11.651-16.828 18.122-11.65 10.356-22.006 9.061-28.478 5.178-23.301v-20.711l-9.061-23.301v-47.895l-28.479-12.945-27.183-12.944 7.766-16.828 2.589-34.951-13.29-14.584-.956-18.747-10.349-18.447-6.472-11.651 18.102-26.54 19.438-23.944 5.171-24.595 3.89-12.944-11.65-12.945-3.579-27.828-.305-31.717-25.265-17.167-.624-29.434v-19.417l14.571-18.116 3.552-44.018-27.828-20.407-18.773-24.9-50.484-44.012-3.884-51.778 23.301-14.239 31.067-31.068v-23.3l18.793-33.039 7.11-15.819-10.363-22.663-5.185-29.447-3.883-33.656-9.061-40.129-4.833-21.68-2.934-23.626L57.761 371l-2.278-25.557L51.6 327.32l-1.294-11.65c.033-.008 50.484 10.356 50.484 10.356s49.837-30.097 49.513-29.773c0 0 43.527-16.564 43.526-16.585-.017.019 49.95-11.308 49.999-11.408l89.966-22.491 201.936-59.546 27.184-40.128 41.423-42.717 67.956-5.185 27.834-11.643 36.245-34.951 44.012-14.239 66.018-3.883 69.901-25.89 67.312 6.473 27.469 8.383 67.069 37.401 19.901 23.088 5.321 22.754-5.301-22.452-19.89-23.262-61.855-32.046-4.259 16.184 10.379 24.317 19.417 34.951 3.884 49.189 20.711 24.595 41.423 19.417 37.54 2.589 47.021-6.255 61.334-15.689 35.311-26.749z" fill="none" stroke="#000" stroke-width="3.68"/></svg>