<svg viewBox="0 0 1474 1539" xmlns="http://www.w3.org/2000/svg" fill-rule="evenodd" clip-rule="evenodd" stroke-linecap="round" stroke-linejoin="round" stroke-miterlimit="1.5"><path d="M990.042 1350.04h107c-4.463-66.21-37.52-103.208-107-103m-140.5-296.998h83.5c2.042 42.017-22.63 64.645-83.5 61m-134.5-232h101c1.225 65.34-26.216 106.028-101 106m281 140.998h128c3.74-71.302-31.556-115.994-128-119m-119 220v-105c61.823 8.461 99.131 40.029 101 105m-213-408.998v-115c61.402 5.074 102.025 38.862 112 115m477.998-88v118c-71.481-3.047-110.042-42.131-115-118m-1145.998-572v-57h256v57" fill="none" stroke="#000" stroke-width="2.08"/><path fill="none" stroke="#000" stroke-width="2.08" d="M107.042 23.792h230v11.5h-230zm537.5 35v-57h256v57"/><path fill="none" stroke="#000" stroke-width="2.08" d="M657.542 27.542h230v11.5h-230zm-425.5 1106.028v42.468H84.478v-42.468m1344.342-5.23v42.468h-147.563v-42.468"/><path fill="none" stroke="#000" stroke-width="2.08" d="M91.972 1148.29h132.576v8.568H91.972zm1196.778-4.28h132.576v8.568H1288.75z"/><g font-family="'ArialMT','Arial',sans-serif" font-size="33.333"><text x="1722.63" y="991.878" transform="translate(-546.021 -688.891)">POKÓJ</text><text x="1718.9" y="1026.3" transform="translate(-546.021 -688.891)">17,2 M2</text></g><g font-family="'ArialMT','Arial',sans-serif" font-size="33.333"><text x="1722.63" y="991.878" transform="translate(-1044.21 -688.891)">POKÓJ</text><text x="1718.9" y="1026.3" transform="translate(-1044.21 -688.891)">22,8 M2</text></g><g font-family="'ArialMT','Arial',sans-serif" font-size="33.333"><text x="1722.63" y="991.878" transform="translate(-1555.51 -688.891)">POKÓJ</text><text x="1718.9" y="1026.3" transform="translate(-1555.51 -688.891)">17,5 M2</text></g><g font-family="'ArialMT','Arial',sans-serif" font-size="33.333"><text x="1722.63" y="991.878" transform="translate(-1558.02 -89.467)">POKÓJ</text><text x="1720.14" y="1026.3" transform="translate(-1558.02 -89.467)">1<tspan x="1736.21px 1754.75px" y="1026.3px 1026.3px">1,</tspan>0 M2</text></g><g font-family="'ArialMT','Arial',sans-serif" font-size="25"><text x="1718.69" y="991.878" transform="translate(-1193.8 -79.68)">ŁAZIENKA</text><text x="1740.91" y="1017.7" transform="translate(-1193.8 -79.68)">6,0 M2</text></g><g font-family="'ArialMT','Arial',sans-serif" font-size="25"><text x="1722.87" y="991.878" transform="translate(-537.878 -90.415)">KUCHNIA</text><text x="1733.96" y="1017.7" transform="translate(-537.878 -90.415)">15,5 M2</text></g><g font-family="'ArialMT','Arial',sans-serif" font-size="25"><text x="1735.36" y="991.878" transform="translate(-1045.23 339.436)">GANEK</text><text x="1740.91" y="1017.7" transform="translate(-1045.23 339.436)">6,2 M2</text></g><g font-family="'ArialMT','Arial',sans-serif" font-size="25"><text x="1712.22" y="991.878" transform="translate(-877.153 -201.415)">KOR<tspan x="1765.94px 1782.62px 1796.03px 1812.71px" y="991.878px 991.878px 991.878px 991.878px">YTAR</tspan>Z</text><text x="1740.91" y="1017.7" transform="translate(-877.153 -201.415)">5,8 M2</text></g><g font-family="'ArialMT','Arial',sans-serif" font-size="25"><text x="1714.54" y="991.878" transform="rotate(-90 1302.401 1507.989)">SCHOWEK</text><text x="1740.91" y="1017.7" transform="rotate(-90 1302.401 1507.989)">1,5 M2</text></g><g font-family="'ArialMT','Arial',sans-serif" font-size="33.333"><text x="1610.63" y="1422.5" transform="translate(-309.865 -115.22)">WEJŚCIE</text><text x="1610.63" y="1456.92" transform="translate(-309.865 -115.22)">GŁÓWNE</text></g><g font-family="'ArialMT','Arial',sans-serif" font-size="33.333"><text x="1610.63" y="1422.5" transform="translate(-1342.05 21.425)">WEJŚCIE</text><text x="1642.11" y="1456.92" transform="translate(-1342.05 21.425)">NR. 2</text></g><path d="M1163.54 1318.21v9.472l-14.573-14.572 14.573-14.573v9.472h117.724v10.201H1163.54zm-826.671-60.03h-9.472l14.572-14.572 14.573 14.572h-9.472v117.724h-10.201V1258.18z" stroke="#000" stroke-width="2.08"/><path d="M1118.04 58.792v-57h256v57" fill="none" stroke="#000" stroke-width="2.08"/><path fill="none" stroke="#000" stroke-width="2.08" d="M1131.04 28.542h230v11.5h-230zm-946.998 688.5l1-109c63.565 3.202 101.282 39.471 113 109m175 149l-79-1c5.653-46.251 28.243-76.737 79-81m-65 342.998v-91c-52.952 10.088-91.84 35.469-103 91"/><path fill="none" stroke="#000" stroke-width="2.08" d="M1.042 59.042h472v659h-472zm0 666h472v402h-472zm0 408.998h472v402h-472zm478-1073.998h511v659h-511zm0 665h511v402h-511z"/><path fill="none" stroke="#000" stroke-width="2.08" d="M485.042 731.042h230v390h-230zm236.233 195h128.266v195H721.275zM479.042 1135.04h511v402h-511zm517-1074.998h476v564h-476zm0 570h476v497h-476z"/></svg>