<svg width="75" height="63" viewBox="0 0 75 63" fill="none" xmlns="http://www.w3.org/2000/svg">
<path d="M41.1194 18.458L49.7513 27.2956L41.1194 18.458ZM41.1194 18.458L41.1235 18.4538L40.77 18.1002L40.4123 18.4496L40.4164 18.4538L30.8624 28.0078L30.86 28.0054L30.5089 28.3614L30.8624 28.7149L30.8648 28.7125L38.4262 36.1727C38.7745 36.5183 39.0513 36.9291 39.2406 37.3818C39.4299 37.8345 39.528 38.3201 39.5293 38.8107L41.1194 18.458ZM27.366 31.4993L27.0092 31.1473L26.9615 31.1958L20.6842 24.9184L37.2712 8.33144L38.2147 9.27494L38.5641 9.62438L38.6333 9.55681L52.565 23.82L52.7121 23.9707H52.9226H56.3234V27.9119L52.4036 27.9119C52.4034 27.9119 52.4031 27.9119 52.4029 27.9119C51.9756 27.9107 51.5527 27.8248 51.1589 27.6589C50.765 27.4931 50.408 27.2507 50.1085 26.9457C50.1084 26.9456 50.1083 26.9455 50.1081 26.9453L41.1277 17.7509L40.7742 17.3889L40.4164 17.7467L30.1553 28.0078L29.7994 28.3638L30.1577 28.7173L38.074 36.5277C38.0742 36.5279 38.0744 36.5281 38.0746 36.5283C38.376 36.8274 38.6155 37.183 38.7793 37.5747C38.9431 37.9665 39.0281 38.3867 39.0293 38.8114C39.0293 38.8116 39.0293 38.8118 39.0293 38.812L39.0293 52.6177H35.0881V39.3272V39.1181L34.9393 38.9713L27.366 31.4993ZM52.9226 23.4707L38.991 9.20741L56.3234 23.4707H52.9226Z" stroke="black"/>
<path d="M15.4412 36.5588L15.4406 36.5588C12.5244 36.5621 9.72856 37.722 7.66648 39.7841C5.6044 41.8462 4.44447 44.642 4.44118 47.5582V47.5588C4.44118 49.7344 5.08631 51.8611 6.29501 53.6701C7.5037 55.479 9.22167 56.8889 11.2317 57.7215C13.2416 58.554 15.4534 58.7719 17.5872 58.3474C19.721 57.923 21.681 56.8753 23.2193 55.337C24.7577 53.7986 25.8054 51.8386 26.2298 49.7048C26.6542 47.571 26.4364 45.3593 25.6038 43.3493C24.7713 41.3393 23.3614 39.6213 21.5524 38.4126C19.7435 37.2039 17.6168 36.5588 15.4412 36.5588ZM58.6765 36.5588L58.6759 36.5588C55.7597 36.5621 52.9638 37.722 50.9018 39.7841C48.8397 41.8462 47.6798 44.642 47.6765 47.5582V47.5588C47.6765 49.7344 48.3216 51.8611 49.5303 53.6701C50.739 55.479 52.457 56.8889 54.4669 57.7215C56.4769 58.554 58.6887 58.7719 60.8225 58.3474C62.9562 57.923 64.9163 56.8753 66.4546 55.337C67.993 53.7986 69.0407 51.8386 69.4651 49.7048C69.8895 47.571 69.6717 45.3593 68.8391 43.3493C68.0066 41.3393 66.5967 39.6213 64.7877 38.4126C62.9788 37.2039 60.8521 36.5588 58.6765 36.5588ZM23.742 59.9819C21.2851 61.6236 18.3966 62.4999 15.4417 62.5C11.4803 62.4955 7.68242 60.9198 4.88127 58.1187C2.08019 55.3176 0.504546 51.5198 0.5 47.5585C0.500054 44.6035 1.37633 41.7149 3.01804 39.2579C4.6598 36.8009 6.99329 34.8858 9.72343 33.755C12.4536 32.6241 15.4577 32.3282 18.3561 32.9047C21.2544 33.4812 23.9166 34.9042 26.0062 36.9938C28.0957 39.0833 29.5187 41.7456 30.0953 44.6439C30.6718 47.5422 30.3759 50.5464 29.245 53.2765C28.1142 56.0067 26.1991 58.3402 23.742 59.9819ZM46.2533 55.8597C44.6117 53.4028 43.7354 50.5142 43.7353 47.5594C43.7398 43.5979 45.3154 39.8 48.1166 36.9989C50.9176 34.1978 54.7154 32.6222 58.6768 32.6176C61.6317 32.6177 64.5204 33.494 66.9773 35.1357C69.4344 36.7774 71.3494 39.1109 72.4803 41.8411C73.6112 44.5712 73.9071 47.5754 73.3305 50.4737C72.754 53.372 71.331 56.0342 69.2415 58.1238C67.1519 60.2134 64.4896 61.6364 61.5913 62.2129C58.693 62.7894 55.6889 62.4935 52.9587 61.3626C50.2286 60.2318 47.8951 58.3167 46.2533 55.8597Z" stroke="black"/>
<path d="M51.3822 5.26359C51.3822 7.89444 49.2494 10.0272 46.6186 10.0272C43.9877 10.0272 41.855 7.89444 41.855 5.26359C41.855 2.63273 43.9877 0.5 46.6186 0.5C49.2494 0.5 51.3822 2.63273 51.3822 5.26359Z" stroke="black"/>
</svg>
