<svg width="72" height="63" viewBox="0 0 72 63" fill="none" xmlns="http://www.w3.org/2000/svg">
<mask id="path-1-inside-1_5_665" fill="white">
<path d="M63.394 51.3635C65.7078 52.4885 67.6203 54.0705 69.1313 56.1095C70.6424 58.1485 71.5986 60.4454 72 63H68.1043C67.8446 61.6641 67.3605 60.4219 66.6522 59.2735C65.9439 58.1251 65.0821 57.1407 64.0669 56.3204C63.0516 55.5001 61.9065 54.8439 60.6316 54.3517C59.3566 53.8595 58.0344 53.6252 56.665 53.6486C55.272 53.6486 53.9498 53.883 52.6985 54.3517C51.4471 54.8205 50.302 55.465 49.2632 56.2853C48.2243 57.1056 47.3625 58.1017 46.6778 59.2735C45.9931 60.4454 45.5091 61.6875 45.2258 63H41.3301C41.7078 60.4688 42.6522 58.1837 44.1633 56.1447C45.6744 54.1056 47.5986 52.5119 49.9361 51.3635C48.5903 50.3088 47.5514 49.0315 46.8195 47.5315C46.0876 46.0315 45.7098 44.4378 45.6862 42.7504C45.6862 41.6957 45.8278 40.6762 46.1112 39.6918C46.3945 38.7075 46.8195 37.7817 47.3861 36.9145C47.9528 36.0473 48.6257 35.2739 49.4048 34.5942C50.184 33.9146 51.0575 33.3404 52.0256 32.8716C51.3881 31.9576 50.6562 31.149 49.8298 30.4459C49.0034 29.7428 48.1062 29.1217 47.1382 28.5826C46.1702 28.0436 45.1549 27.6569 44.0925 27.4225C43.03 27.1881 41.9321 27.0475 40.7988 27.0006C38.91 27.0006 37.1038 27.3639 35.3802 28.0905C33.6567 28.817 32.1574 29.8834 30.8824 31.2896C31.4491 32.813 31.7324 34.3833 31.7324 36.0005C31.7324 38.1567 31.2484 40.184 30.2804 42.0824C29.3123 43.9808 27.9547 45.5745 26.2076 46.8636C27.7423 47.637 29.1235 48.5862 30.3512 49.7112C31.5789 50.8362 32.6414 52.1018 33.5386 53.508C34.4358 54.9142 35.1087 56.4142 35.5573 58.0079C36.0059 59.6016 36.242 61.2657 36.2656 63H31.7324C31.7324 61.1485 31.3783 59.4024 30.6699 57.7618C29.9616 56.1212 28.9936 54.6916 27.7659 53.4728C26.5381 52.2541 25.0861 51.2815 23.4097 50.5549C21.7334 49.8284 19.9744 49.4768 18.1328 49.5002C16.244 49.5002 14.485 49.8518 12.8559 50.5549C11.2268 51.258 9.78652 52.2189 8.53517 53.4377C7.28382 54.6564 6.30398 56.0978 5.59567 57.7618C4.88736 59.4258 4.5332 61.1719 4.5332 63H0C0 61.2891 0.236104 59.6368 0.708313 58.0431C1.18052 56.4493 1.85342 54.9494 2.727 53.5431C3.60059 52.1369 4.65125 50.8713 5.879 49.7463C7.10674 48.6213 8.49975 47.6604 10.058 46.8636C8.31087 45.5745 6.95327 43.9808 5.98524 42.0824C5.01722 40.184 4.5332 38.1567 4.5332 36.0005C4.5332 34.1489 4.88736 32.4029 5.59567 30.7623C6.30398 29.1217 7.27201 27.692 8.49975 26.4733C9.7275 25.2546 11.1677 24.2819 12.8205 23.5554C14.4732 22.8288 16.244 22.4773 18.1328 22.5007C20.1397 22.5007 22.0403 22.9226 23.8347 23.7663C25.6291 24.61 27.1874 25.7819 28.5096 27.2819C29.1235 26.6959 29.7846 26.1686 30.4929 25.6999C31.2012 25.2311 31.9449 24.7858 32.7241 24.364C30.9769 23.0749 29.6193 21.4812 28.6513 19.5828C27.6832 17.6844 27.1992 15.6571 27.1992 13.5009C27.1992 11.6493 27.5534 9.90327 28.2617 8.26267C28.97 6.62208 29.938 5.19241 31.1658 3.97369C32.3935 2.75496 33.8337 1.78232 35.4865 1.05577C37.1392 0.329218 38.91 -0.0223385 40.7988 0.00109861C42.664 0.00109861 44.423 0.352655 46.0758 1.05577C47.7285 1.75888 49.1687 2.7198 50.3965 3.93853C51.6242 5.15726 52.604 6.59864 53.336 8.26267C54.0679 9.92671 54.422 11.6728 54.3984 13.5009C54.3984 15.6571 53.9144 17.6844 52.9464 19.5828C51.9784 21.4812 50.6208 23.0749 48.8736 24.364C50.5263 25.2311 52.0138 26.2858 53.336 27.528C54.6581 28.7701 55.7796 30.2115 56.7004 31.8521C58.2115 31.8521 59.6281 32.1334 60.9503 32.6958C62.2725 33.2583 63.4412 34.0435 64.4565 35.0513C65.4717 36.0591 66.2509 37.2075 66.7939 38.4965C67.3369 39.7856 67.6203 41.2035 67.6439 42.7504C67.6439 44.4378 67.2779 46.0315 66.546 47.5315C65.8141 49.0315 64.7634 50.3088 63.394 51.3635ZM18.1328 45.0003C19.3842 45.0003 20.5529 44.7659 21.639 44.2972C22.725 43.8285 23.6931 43.1839 24.543 42.3636C25.393 41.5433 26.0423 40.5941 26.4909 39.516C26.9395 38.4379 27.1756 37.2661 27.1992 36.0005C27.1992 34.7583 26.9631 33.5982 26.4909 32.5201C26.0187 31.442 25.3694 30.481 24.543 29.6373C23.7167 28.7936 22.7605 28.149 21.6744 27.7037C20.5883 27.2584 19.4078 27.0241 18.1328 27.0006C16.8815 27.0006 15.7127 27.235 14.6267 27.7037C13.5406 28.1725 12.5726 28.817 11.7226 29.6373C10.8726 30.4576 10.2233 31.4068 9.77472 32.4849C9.32612 33.563 9.09001 34.7349 9.0664 36.0005C9.0664 37.2426 9.30251 38.4028 9.77472 39.4809C10.2469 40.559 10.8962 41.5199 11.7226 42.3636C12.5489 43.2074 13.5052 43.8519 14.5912 44.2972C15.6773 44.7425 16.8578 44.9769 18.1328 45.0003ZM31.7324 13.5009C31.7324 14.743 31.9685 15.9032 32.4407 16.9813C32.9129 18.0594 33.5622 19.0203 34.3886 19.864C35.215 20.7078 36.1712 21.3523 37.2573 21.7976C38.3433 22.2429 39.5239 22.4773 40.7988 22.5007C42.0502 22.5007 43.2189 22.2663 44.305 21.7976C45.391 21.3289 46.3591 20.6843 47.209 19.864C48.059 19.0437 48.7083 18.0945 49.1569 17.0164C49.6055 15.9383 49.8416 14.7665 49.8652 13.5009C49.8652 12.2587 49.6291 11.0986 49.1569 10.0205C48.6847 8.94235 48.0354 7.98143 47.209 7.13769C46.3827 6.29396 45.4265 5.64944 44.3404 5.20413C43.2543 4.75883 42.0738 4.52446 40.7988 4.50102C39.5475 4.50102 38.3788 4.73539 37.2927 5.20413C36.2066 5.67287 35.2386 6.31739 34.3886 7.13769C33.5386 7.95799 32.8893 8.90719 32.4407 9.9853C31.9921 11.0634 31.756 12.2353 31.7324 13.5009ZM56.665 35.6489C55.6734 35.6489 54.7526 35.8364 53.9026 36.2114C53.0526 36.5864 52.2971 37.0903 51.636 37.7231C50.9749 38.3559 50.4555 39.1059 50.0777 39.9731C49.7 40.8402 49.5111 41.766 49.5111 42.7504C49.5111 43.7347 49.7 44.6488 50.0777 45.4925C50.4555 46.3362 50.9631 47.0862 51.6006 47.7425C52.2381 48.3987 52.9936 48.9143 53.8672 49.2893C54.7408 49.6643 55.6734 49.8518 56.665 49.8518C57.6567 49.8518 58.5775 49.6643 59.4274 49.2893C60.2774 48.9143 61.033 48.4104 61.694 47.7776C62.3551 47.1448 62.8746 46.3948 63.2523 45.5277C63.6301 44.6605 63.819 43.7347 63.819 42.7504C63.819 41.766 63.6301 40.852 63.2523 40.0082C62.8746 39.1645 62.3669 38.4145 61.7295 37.7583C61.092 37.102 60.3365 36.5864 59.4629 36.2114C58.5893 35.8364 57.6567 35.6489 56.665 35.6489Z"/>
</mask>
<path d="M63.394 51.3635C65.7078 52.4885 67.6203 54.0705 69.1313 56.1095C70.6424 58.1485 71.5986 60.4454 72 63H68.1043C67.8446 61.6641 67.3605 60.4219 66.6522 59.2735C65.9439 58.1251 65.0821 57.1407 64.0669 56.3204C63.0516 55.5001 61.9065 54.8439 60.6316 54.3517C59.3566 53.8595 58.0344 53.6252 56.665 53.6486C55.272 53.6486 53.9498 53.883 52.6985 54.3517C51.4471 54.8205 50.302 55.465 49.2632 56.2853C48.2243 57.1056 47.3625 58.1017 46.6778 59.2735C45.9931 60.4454 45.5091 61.6875 45.2258 63H41.3301C41.7078 60.4688 42.6522 58.1837 44.1633 56.1447C45.6744 54.1056 47.5986 52.5119 49.9361 51.3635C48.5903 50.3088 47.5514 49.0315 46.8195 47.5315C46.0876 46.0315 45.7098 44.4378 45.6862 42.7504C45.6862 41.6957 45.8278 40.6762 46.1112 39.6918C46.3945 38.7075 46.8195 37.7817 47.3861 36.9145C47.9528 36.0473 48.6257 35.2739 49.4048 34.5942C50.184 33.9146 51.0575 33.3404 52.0256 32.8716C51.3881 31.9576 50.6562 31.149 49.8298 30.4459C49.0034 29.7428 48.1062 29.1217 47.1382 28.5826C46.1702 28.0436 45.1549 27.6569 44.0925 27.4225C43.03 27.1881 41.9321 27.0475 40.7988 27.0006C38.91 27.0006 37.1038 27.3639 35.3802 28.0905C33.6567 28.817 32.1574 29.8834 30.8824 31.2896C31.4491 32.813 31.7324 34.3833 31.7324 36.0005C31.7324 38.1567 31.2484 40.184 30.2804 42.0824C29.3123 43.9808 27.9547 45.5745 26.2076 46.8636C27.7423 47.637 29.1235 48.5862 30.3512 49.7112C31.5789 50.8362 32.6414 52.1018 33.5386 53.508C34.4358 54.9142 35.1087 56.4142 35.5573 58.0079C36.0059 59.6016 36.242 61.2657 36.2656 63H31.7324C31.7324 61.1485 31.3783 59.4024 30.6699 57.7618C29.9616 56.1212 28.9936 54.6916 27.7659 53.4728C26.5381 52.2541 25.0861 51.2815 23.4097 50.5549C21.7334 49.8284 19.9744 49.4768 18.1328 49.5002C16.244 49.5002 14.485 49.8518 12.8559 50.5549C11.2268 51.258 9.78652 52.2189 8.53517 53.4377C7.28382 54.6564 6.30398 56.0978 5.59567 57.7618C4.88736 59.4258 4.5332 61.1719 4.5332 63H0C0 61.2891 0.236104 59.6368 0.708313 58.0431C1.18052 56.4493 1.85342 54.9494 2.727 53.5431C3.60059 52.1369 4.65125 50.8713 5.879 49.7463C7.10674 48.6213 8.49975 47.6604 10.058 46.8636C8.31087 45.5745 6.95327 43.9808 5.98524 42.0824C5.01722 40.184 4.5332 38.1567 4.5332 36.0005C4.5332 34.1489 4.88736 32.4029 5.59567 30.7623C6.30398 29.1217 7.27201 27.692 8.49975 26.4733C9.7275 25.2546 11.1677 24.2819 12.8205 23.5554C14.4732 22.8288 16.244 22.4773 18.1328 22.5007C20.1397 22.5007 22.0403 22.9226 23.8347 23.7663C25.6291 24.61 27.1874 25.7819 28.5096 27.2819C29.1235 26.6959 29.7846 26.1686 30.4929 25.6999C31.2012 25.2311 31.9449 24.7858 32.7241 24.364C30.9769 23.0749 29.6193 21.4812 28.6513 19.5828C27.6832 17.6844 27.1992 15.6571 27.1992 13.5009C27.1992 11.6493 27.5534 9.90327 28.2617 8.26267C28.97 6.62208 29.938 5.19241 31.1658 3.97369C32.3935 2.75496 33.8337 1.78232 35.4865 1.05577C37.1392 0.329218 38.91 -0.0223385 40.7988 0.00109861C42.664 0.00109861 44.423 0.352655 46.0758 1.05577C47.7285 1.75888 49.1687 2.7198 50.3965 3.93853C51.6242 5.15726 52.604 6.59864 53.336 8.26267C54.0679 9.92671 54.422 11.6728 54.3984 13.5009C54.3984 15.6571 53.9144 17.6844 52.9464 19.5828C51.9784 21.4812 50.6208 23.0749 48.8736 24.364C50.5263 25.2311 52.0138 26.2858 53.336 27.528C54.6581 28.7701 55.7796 30.2115 56.7004 31.8521C58.2115 31.8521 59.6281 32.1334 60.9503 32.6958C62.2725 33.2583 63.4412 34.0435 64.4565 35.0513C65.4717 36.0591 66.2509 37.2075 66.7939 38.4965C67.3369 39.7856 67.6203 41.2035 67.6439 42.7504C67.6439 44.4378 67.2779 46.0315 66.546 47.5315C65.8141 49.0315 64.7634 50.3088 63.394 51.3635ZM18.1328 45.0003C19.3842 45.0003 20.5529 44.7659 21.639 44.2972C22.725 43.8285 23.6931 43.1839 24.543 42.3636C25.393 41.5433 26.0423 40.5941 26.4909 39.516C26.9395 38.4379 27.1756 37.2661 27.1992 36.0005C27.1992 34.7583 26.9631 33.5982 26.4909 32.5201C26.0187 31.442 25.3694 30.481 24.543 29.6373C23.7167 28.7936 22.7605 28.149 21.6744 27.7037C20.5883 27.2584 19.4078 27.0241 18.1328 27.0006C16.8815 27.0006 15.7127 27.235 14.6267 27.7037C13.5406 28.1725 12.5726 28.817 11.7226 29.6373C10.8726 30.4576 10.2233 31.4068 9.77472 32.4849C9.32612 33.563 9.09001 34.7349 9.0664 36.0005C9.0664 37.2426 9.30251 38.4028 9.77472 39.4809C10.2469 40.559 10.8962 41.5199 11.7226 42.3636C12.5489 43.2074 13.5052 43.8519 14.5912 44.2972C15.6773 44.7425 16.8578 44.9769 18.1328 45.0003ZM31.7324 13.5009C31.7324 14.743 31.9685 15.9032 32.4407 16.9813C32.9129 18.0594 33.5622 19.0203 34.3886 19.864C35.215 20.7078 36.1712 21.3523 37.2573 21.7976C38.3433 22.2429 39.5239 22.4773 40.7988 22.5007C42.0502 22.5007 43.2189 22.2663 44.305 21.7976C45.391 21.3289 46.3591 20.6843 47.209 19.864C48.059 19.0437 48.7083 18.0945 49.1569 17.0164C49.6055 15.9383 49.8416 14.7665 49.8652 13.5009C49.8652 12.2587 49.6291 11.0986 49.1569 10.0205C48.6847 8.94235 48.0354 7.98143 47.209 7.13769C46.3827 6.29396 45.4265 5.64944 44.3404 5.20413C43.2543 4.75883 42.0738 4.52446 40.7988 4.50102C39.5475 4.50102 38.3788 4.73539 37.2927 5.20413C36.2066 5.67287 35.2386 6.31739 34.3886 7.13769C33.5386 7.95799 32.8893 8.90719 32.4407 9.9853C31.9921 11.0634 31.756 12.2353 31.7324 13.5009ZM56.665 35.6489C55.6734 35.6489 54.7526 35.8364 53.9026 36.2114C53.0526 36.5864 52.2971 37.0903 51.636 37.7231C50.9749 38.3559 50.4555 39.1059 50.0777 39.9731C49.7 40.8402 49.5111 41.766 49.5111 42.7504C49.5111 43.7347 49.7 44.6488 50.0777 45.4925C50.4555 46.3362 50.9631 47.0862 51.6006 47.7425C52.2381 48.3987 52.9936 48.9143 53.8672 49.2893C54.7408 49.6643 55.6734 49.8518 56.665 49.8518C57.6567 49.8518 58.5775 49.6643 59.4274 49.2893C60.2774 48.9143 61.033 48.4104 61.694 47.7776C62.3551 47.1448 62.8746 46.3948 63.2523 45.5277C63.6301 44.6605 63.819 43.7347 63.819 42.7504C63.819 41.766 63.6301 40.852 63.2523 40.0082C62.8746 39.1645 62.3669 38.4145 61.7295 37.7583C61.092 37.102 60.3365 36.5864 59.4629 36.2114C58.5893 35.8364 57.6567 35.6489 56.665 35.6489Z" stroke="black" stroke-width="3" mask="url(#path-1-inside-1_5_665)"/>
</svg>
