<svg width="72" height="64" viewBox="0 0 72 64" fill="none" xmlns="http://www.w3.org/2000/svg">
<mask id="path-1-inside-1_5_665" fill="white">
<path d="M63.394 52.1788C65.7078 53.3216 67.6203 54.9287 69.1313 57.0001C70.6424 59.0715 71.5986 61.4048 72 64H68.1043C67.8446 62.6429 67.3605 61.381 66.6522 60.2144C65.9439 59.0477 65.0821 58.0477 64.0669 57.2144C63.0516 56.3811 61.9065 55.7144 60.6316 55.2144C59.3566 54.7145 58.0344 54.4764 56.665 54.5002C55.272 54.5002 53.9498 54.7383 52.6985 55.2144C51.4471 55.6906 50.302 56.3454 49.2632 57.1787C48.2243 58.012 47.3625 59.0239 46.6778 60.2144C45.9931 61.4048 45.5091 62.6667 45.2258 64H41.3301C41.7078 61.4286 42.6522 59.1072 44.1633 57.0358C45.6744 54.9644 47.5986 53.3454 49.9361 52.1788C48.5903 51.1074 47.5514 49.8098 46.8195 48.286C46.0876 46.7622 45.7098 45.1432 45.6862 43.4289C45.6862 42.3575 45.8278 41.3218 46.1112 40.3218C46.3945 39.3219 46.8195 38.3814 47.3861 37.5005C47.9528 36.6195 48.6257 35.8338 49.4048 35.1434C50.184 34.4529 51.0575 33.8696 52.0256 33.3934C51.3881 32.4648 50.6562 31.6434 49.8298 30.9291C49.0034 30.2149 48.1063 29.5839 47.1382 29.0363C46.1702 28.4887 45.1549 28.0959 44.0925 27.8578C43.03 27.6197 41.9321 27.4768 40.7988 27.4292C38.91 27.4292 37.1038 27.7983 35.3802 28.5363C33.6567 29.2744 32.1574 30.3577 30.8824 31.7863C31.4491 33.3339 31.7324 34.9291 31.7324 36.5719C31.7324 38.7623 31.2484 40.8218 30.2804 42.7504C29.3123 44.6789 27.9547 46.2979 26.2076 47.6074C27.7423 48.3931 29.1235 49.3574 30.3512 50.5002C31.5789 51.6431 32.6414 52.9288 33.5386 54.3573C34.4358 55.7859 35.1087 57.3096 35.5573 58.9287C36.0059 60.5477 36.242 62.2381 36.2656 64H31.7324C31.7324 62.1191 31.3783 60.3453 30.6699 58.6787C29.9616 57.012 28.9936 55.5597 27.7659 54.3216C26.5381 53.0835 25.0861 52.0954 23.4097 51.3574C21.7334 50.6193 19.9744 50.2621 18.1328 50.286C16.244 50.286 14.485 50.6431 12.8559 51.3574C11.2268 52.0716 9.78652 53.0478 8.53517 54.2859C7.28382 55.524 6.30398 56.9882 5.59567 58.6787C4.88736 60.3691 4.5332 62.1429 4.5332 64H0C0 62.2619 0.236104 60.5834 0.708313 58.9644C1.18052 57.3454 1.85342 55.8216 2.727 54.393C3.60059 52.9645 4.65125 51.6788 5.879 50.536C7.10674 49.3931 8.49975 48.4169 10.058 47.6074C8.31087 46.2979 6.95327 44.6789 5.98524 42.7504C5.01722 40.8218 4.5332 38.7623 4.5332 36.5719C4.5332 34.691 4.88736 32.9172 5.59567 31.2506C6.30398 29.5839 7.27201 28.1316 8.49975 26.8935C9.7275 25.6554 11.1677 24.6674 12.8205 23.9293C14.4732 23.1912 16.244 22.8341 18.1328 22.8579C20.1397 22.8579 22.0403 23.2864 23.8347 24.1436C25.6291 25.0007 27.1874 26.1911 28.5096 27.7149C29.1235 27.1197 29.7846 26.584 30.4929 26.1078C31.2012 25.6316 31.9449 25.1793 32.7241 24.7507C30.9769 23.4412 29.6193 21.8222 28.6513 19.8936C27.6832 17.9651 27.1992 15.9056 27.1992 13.7152C27.1992 11.8342 27.5534 10.0605 28.2617 8.39383C28.97 6.72719 29.938 5.27483 31.1658 4.03676C32.3935 2.79869 33.8337 1.81061 35.4865 1.07253C37.1392 0.334444 38.91 -0.0226931 40.7988 0.00111605C42.664 0.00111605 44.423 0.358253 46.0758 1.07253C47.7285 1.7868 49.1687 2.76297 50.3965 4.00105C51.6242 5.23912 52.604 6.70338 53.336 8.39383C54.0679 10.0843 54.422 11.8581 54.3984 13.7152C54.3984 15.9056 53.9144 17.9651 52.9464 19.8936C51.9784 21.8222 50.6208 23.4412 48.8736 24.7507C50.5263 25.6316 52.0138 26.703 53.336 27.9649C54.6581 29.2268 55.7796 30.6911 56.7004 32.3577C58.2115 32.3577 59.6281 32.6434 60.9503 33.2148C62.2725 33.7862 63.4412 34.5838 64.4565 35.6076C65.4717 36.6314 66.2509 37.7981 66.7939 39.1076C67.3369 40.4171 67.6203 41.8575 67.6439 43.4289C67.6439 45.1432 67.2779 46.7622 66.546 48.286C65.8141 49.8098 64.7634 51.1074 63.394 52.1788ZM18.1328 45.7146C19.3842 45.7146 20.5529 45.4765 21.639 45.0003C22.725 44.5242 23.6931 43.8694 24.543 43.0361C25.393 42.2028 26.0423 41.2385 26.4909 40.1433C26.9395 39.0481 27.1756 37.8576 27.1992 36.5719C27.1992 35.31 26.9631 34.1315 26.4909 33.0363C26.0187 31.941 25.3694 30.9649 24.543 30.1077C23.7167 29.2506 22.7605 28.5959 21.6744 28.1435C20.5883 27.6911 19.4078 27.453 18.1328 27.4292C16.8815 27.4292 15.7127 27.6673 14.6267 28.1435C13.5406 28.6197 12.5726 29.2744 11.7226 30.1077C10.8726 30.9411 10.2233 31.9053 9.77472 33.0005C9.32612 34.0958 9.09001 35.2862 9.0664 36.5719C9.0664 37.8338 9.30251 39.0123 9.77472 40.1076C10.2469 41.2028 10.8962 42.179 11.7226 43.0361C12.5489 43.8932 13.5052 44.548 14.5912 45.0003C15.6773 45.4527 16.8578 45.6908 18.1328 45.7146ZM31.7324 13.7152C31.7324 14.977 31.9685 16.1556 32.4407 17.2508C32.9129 18.346 33.5622 19.3222 34.3886 20.1793C35.215 21.0365 36.1712 21.6912 37.2573 22.1436C38.3433 22.596 39.5239 22.8341 40.7988 22.8579C42.0502 22.8579 43.2189 22.6198 44.305 22.1436C45.391 21.6674 46.3591 21.0127 47.209 20.1793C48.059 19.346 48.7083 18.3817 49.1569 17.2865C49.6055 16.1913 49.8416 15.0009 49.8652 13.7152C49.8652 12.4533 49.6291 11.2747 49.1569 10.1795C48.6847 9.08429 48.0354 8.10812 47.209 7.25099C46.3827 6.39386 45.4265 5.73911 44.3404 5.28674C43.2543 4.83437 42.0738 4.59627 40.7988 4.57246C39.5475 4.57246 38.3787 4.81056 37.2927 5.28674C36.2066 5.76292 35.2386 6.41767 34.3886 7.25099C33.5386 8.08431 32.8893 9.04858 32.4407 10.1438C31.9921 11.239 31.756 12.4295 31.7324 13.7152ZM56.665 36.2148C55.6734 36.2148 54.7526 36.4052 53.9026 36.7862C53.0526 37.1671 52.2971 37.679 51.636 38.3219C50.9749 38.9647 50.4555 39.7266 50.0777 40.6076C49.7 41.4885 49.5111 42.429 49.5111 43.4289C49.5111 44.4289 49.7 45.3575 50.0777 46.2146C50.4555 47.0717 50.9631 47.8336 51.6006 48.5003C52.2381 49.1669 52.9936 49.6907 53.8672 50.0717C54.7408 50.4526 55.6734 50.6431 56.665 50.6431C57.6567 50.6431 58.5775 50.4526 59.4274 50.0717C60.2774 49.6907 61.033 49.1788 61.694 48.536C62.3551 47.8931 62.8746 47.1312 63.2523 46.2503C63.6301 45.3694 63.819 44.4289 63.819 43.4289C63.819 42.429 63.6301 41.5004 63.2523 40.6433C62.8746 39.7861 62.3669 39.0242 61.7295 38.3576C61.092 37.6909 60.3365 37.1671 59.4629 36.7862C58.5893 36.4052 57.6567 36.2148 56.665 36.2148Z"/>
</mask>
<path d="M63.394 52.1788C65.7078 53.3216 67.6203 54.9287 69.1313 57.0001C70.6424 59.0715 71.5986 61.4048 72 64H68.1043C67.8446 62.6429 67.3605 61.381 66.6522 60.2144C65.9439 59.0477 65.0821 58.0477 64.0669 57.2144C63.0516 56.3811 61.9065 55.7144 60.6316 55.2144C59.3566 54.7145 58.0344 54.4764 56.665 54.5002C55.272 54.5002 53.9498 54.7383 52.6985 55.2144C51.4471 55.6906 50.302 56.3454 49.2632 57.1787C48.2243 58.012 47.3625 59.0239 46.6778 60.2144C45.9931 61.4048 45.5091 62.6667 45.2258 64H41.3301C41.7078 61.4286 42.6522 59.1072 44.1633 57.0358C45.6744 54.9644 47.5986 53.3454 49.9361 52.1788C48.5903 51.1074 47.5514 49.8098 46.8195 48.286C46.0876 46.7622 45.7098 45.1432 45.6862 43.4289C45.6862 42.3575 45.8278 41.3218 46.1112 40.3218C46.3945 39.3219 46.8195 38.3814 47.3861 37.5005C47.9528 36.6195 48.6257 35.8338 49.4048 35.1434C50.184 34.4529 51.0575 33.8696 52.0256 33.3934C51.3881 32.4648 50.6562 31.6434 49.8298 30.9291C49.0034 30.2149 48.1063 29.5839 47.1382 29.0363C46.1702 28.4887 45.1549 28.0959 44.0925 27.8578C43.03 27.6197 41.9321 27.4768 40.7988 27.4292C38.91 27.4292 37.1038 27.7983 35.3802 28.5363C33.6567 29.2744 32.1574 30.3577 30.8824 31.7863C31.4491 33.3339 31.7324 34.9291 31.7324 36.5719C31.7324 38.7623 31.2484 40.8218 30.2804 42.7504C29.3123 44.6789 27.9547 46.2979 26.2076 47.6074C27.7423 48.3931 29.1235 49.3574 30.3512 50.5002C31.5789 51.6431 32.6414 52.9288 33.5386 54.3573C34.4358 55.7859 35.1087 57.3096 35.5573 58.9287C36.0059 60.5477 36.242 62.2381 36.2656 64H31.7324C31.7324 62.1191 31.3783 60.3453 30.6699 58.6787C29.9616 57.012 28.9936 55.5597 27.7659 54.3216C26.5381 53.0835 25.0861 52.0954 23.4097 51.3574C21.7334 50.6193 19.9744 50.2621 18.1328 50.286C16.244 50.286 14.485 50.6431 12.8559 51.3574C11.2268 52.0716 9.78652 53.0478 8.53517 54.2859C7.28382 55.524 6.30398 56.9882 5.59567 58.6787C4.88736 60.3691 4.5332 62.1429 4.5332 64H0C0 62.2619 0.236104 60.5834 0.708313 58.9644C1.18052 57.3454 1.85342 55.8216 2.727 54.393C3.60059 52.9645 4.65125 51.6788 5.879 50.536C7.10674 49.3931 8.49975 48.4169 10.058 47.6074C8.31087 46.2979 6.95327 44.6789 5.98524 42.7504C5.01722 40.8218 4.5332 38.7623 4.5332 36.5719C4.5332 34.691 4.88736 32.9172 5.59567 31.2506C6.30398 29.5839 7.27201 28.1316 8.49975 26.8935C9.7275 25.6554 11.1677 24.6674 12.8205 23.9293C14.4732 23.1912 16.244 22.8341 18.1328 22.8579C20.1397 22.8579 22.0403 23.2864 23.8347 24.1436C25.6291 25.0007 27.1874 26.1911 28.5096 27.7149C29.1235 27.1197 29.7846 26.584 30.4929 26.1078C31.2012 25.6316 31.9449 25.1793 32.7241 24.7507C30.9769 23.4412 29.6193 21.8222 28.6513 19.8936C27.6832 17.9651 27.1992 15.9056 27.1992 13.7152C27.1992 11.8342 27.5534 10.0605 28.2617 8.39383C28.97 6.72719 29.938 5.27483 31.1658 4.03676C32.3935 2.79869 33.8337 1.81061 35.4865 1.07253C37.1392 0.334444 38.91 -0.0226931 40.7988 0.00111605C42.664 0.00111605 44.423 0.358253 46.0758 1.07253C47.7285 1.7868 49.1687 2.76297 50.3965 4.00105C51.6242 5.23912 52.604 6.70338 53.336 8.39383C54.0679 10.0843 54.422 11.8581 54.3984 13.7152C54.3984 15.9056 53.9144 17.9651 52.9464 19.8936C51.9784 21.8222 50.6208 23.4412 48.8736 24.7507C50.5263 25.6316 52.0138 26.703 53.336 27.9649C54.6581 29.2268 55.7796 30.6911 56.7004 32.3577C58.2115 32.3577 59.6281 32.6434 60.9503 33.2148C62.2725 33.7862 63.4412 34.5838 64.4565 35.6076C65.4717 36.6314 66.2509 37.7981 66.7939 39.1076C67.3369 40.4171 67.6203 41.8575 67.6439 43.4289C67.6439 45.1432 67.2779 46.7622 66.546 48.286C65.8141 49.8098 64.7634 51.1074 63.394 52.1788ZM18.1328 45.7146C19.3842 45.7146 20.5529 45.4765 21.639 45.0003C22.725 44.5242 23.6931 43.8694 24.543 43.0361C25.393 42.2028 26.0423 41.2385 26.4909 40.1433C26.9395 39.0481 27.1756 37.8576 27.1992 36.5719C27.1992 35.31 26.9631 34.1315 26.4909 33.0363C26.0187 31.941 25.3694 30.9649 24.543 30.1077C23.7167 29.2506 22.7605 28.5959 21.6744 28.1435C20.5883 27.6911 19.4078 27.453 18.1328 27.4292C16.8815 27.4292 15.7127 27.6673 14.6267 28.1435C13.5406 28.6197 12.5726 29.2744 11.7226 30.1077C10.8726 30.9411 10.2233 31.9053 9.77472 33.0005C9.32612 34.0958 9.09001 35.2862 9.0664 36.5719C9.0664 37.8338 9.30251 39.0123 9.77472 40.1076C10.2469 41.2028 10.8962 42.179 11.7226 43.0361C12.5489 43.8932 13.5052 44.548 14.5912 45.0003C15.6773 45.4527 16.8578 45.6908 18.1328 45.7146ZM31.7324 13.7152C31.7324 14.977 31.9685 16.1556 32.4407 17.2508C32.9129 18.346 33.5622 19.3222 34.3886 20.1793C35.215 21.0365 36.1712 21.6912 37.2573 22.1436C38.3433 22.596 39.5239 22.8341 40.7988 22.8579C42.0502 22.8579 43.2189 22.6198 44.305 22.1436C45.391 21.6674 46.3591 21.0127 47.209 20.1793C48.059 19.346 48.7083 18.3817 49.1569 17.2865C49.6055 16.1913 49.8416 15.0009 49.8652 13.7152C49.8652 12.4533 49.6291 11.2747 49.1569 10.1795C48.6847 9.08429 48.0354 8.10812 47.209 7.25099C46.3827 6.39386 45.4265 5.73911 44.3404 5.28674C43.2543 4.83437 42.0738 4.59627 40.7988 4.57246C39.5475 4.57246 38.3787 4.81056 37.2927 5.28674C36.2066 5.76292 35.2386 6.41767 34.3886 7.25099C33.5386 8.08431 32.8893 9.04858 32.4407 10.1438C31.9921 11.239 31.756 12.4295 31.7324 13.7152ZM56.665 36.2148C55.6734 36.2148 54.7526 36.4052 53.9026 36.7862C53.0526 37.1671 52.2971 37.679 51.636 38.3219C50.9749 38.9647 50.4555 39.7266 50.0777 40.6076C49.7 41.4885 49.5111 42.429 49.5111 43.4289C49.5111 44.4289 49.7 45.3575 50.0777 46.2146C50.4555 47.0717 50.9631 47.8336 51.6006 48.5003C52.2381 49.1669 52.9936 49.6907 53.8672 50.0717C54.7408 50.4526 55.6734 50.6431 56.665 50.6431C57.6567 50.6431 58.5775 50.4526 59.4274 50.0717C60.2774 49.6907 61.033 49.1788 61.694 48.536C62.3551 47.8931 62.8746 47.1312 63.2523 46.2503C63.6301 45.3694 63.819 44.4289 63.819 43.4289C63.819 42.429 63.6301 41.5004 63.2523 40.6433C62.8746 39.7861 62.3669 39.0242 61.7295 38.3576C61.092 37.6909 60.3365 37.1671 59.4629 36.7862C58.5893 36.4052 57.6567 36.2148 56.665 36.2148Z" stroke="black" stroke-width="3" mask="url(#path-1-inside-1_5_665)"/>
</svg>
