<?xml version="1.0" encoding="UTF-8" standalone="no"?><!DOCTYPE svg PUBLIC "-//W3C//DTD SVG 1.1//EN" "http://www.w3.org/Graphics/SVG/1.1/DTD/svg11.dtd"><svg width="100%" height="100%" viewBox="0 0 16 16" version="1.1" xmlns="http://www.w3.org/2000/svg" xmlns:xlink="http://www.w3.org/1999/xlink" xml:space="preserve" xmlns:serif="http://www.serif.com/" style="fill-rule:evenodd;clip-rule:evenodd;stroke-linecap:round;stroke-linejoin:round;stroke-miterlimit:1.5;"><rect x="-0.104" y="-0.019" width="16" height="16" style="fill:#fde6e6;"/><rect id="Artboard1" x="0" y="0" width="16" height="16" style="fill:none;"/><g id="Artboard11" serif:id="Artboard1"><path d="M12.731,13.771l0.077,0.167c-0.111,0.23 -0.235,0.345 -0.371,0.345c-0.537,-0 -0.929,-0.648 -1.176,-1.944c-0.154,-0.835 -0.231,-1.645 -0.231,-2.429c0,-0.324 0.005,-0.618 0.013,-0.882c0.017,-0.529 0.026,-0.827 0.026,-0.895l-0,-0.167c-0.299,1.04 -0.546,1.897 -0.742,2.57c-0.537,1.79 -1.078,2.685 -1.624,2.685c-0.665,0 -1.142,-0.907 -1.432,-2.723c-0.034,-0.341 -0.068,-0.631 -0.102,-0.869c-0.017,-0.043 -0.094,-0.606 -0.23,-1.688c-0.085,0.204 -0.239,0.673 -0.46,1.406c-0.887,2.907 -1.935,4.36 -3.146,4.36c-0.443,0 -0.844,-0.23 -1.202,-0.69l0.243,-0.166c0.478,0.111 0.819,0.166 1.023,0.166c0.23,-0 0.477,-0.119 0.742,-0.358l-0,0.013c0.204,-0.154 0.396,-0.392 0.575,-0.716c0.486,-0.861 0.916,-1.914 1.291,-3.158c0.41,-1.33 0.614,-2.443 0.614,-3.338c0,-0.451 0.166,-0.677 0.499,-0.677c0.196,-0 0.499,0.153 0.908,0.46c-0.103,0.256 -0.154,0.848 -0.154,1.777c0,1.339 0.081,2.506 0.243,3.504c0.188,1.21 0.418,1.815 0.691,1.815c0.179,0 0.532,-0.767 1.061,-2.301c0.46,-1.347 0.793,-2.553 0.997,-3.619c0,-0.025 0.002,-0.074 0.007,-0.147c0.004,-0.072 0.008,-0.174 0.012,-0.307c0.005,-0.132 0.007,-0.257 0.007,-0.377c0.017,-0.332 0.106,-0.528 0.268,-0.588c0.767,0 1.172,0.154 1.215,0.46c-0.136,0.307 -0.26,1.117 -0.371,2.43c-0.102,1.176 -0.153,2.045 -0.153,2.608c-0,2.012 0.294,3.103 0.882,3.273Z" style="fill-rule:nonzero;"/><path d="M14.964,4.786l-6.964,-4.286l-6.964,4.286l-0,10.714l13.928,0l0,-10.714Z" style="fill:none;stroke:#000;stroke-width:0.63px;"/></g></svg>