<svg width="69" height="63" viewBox="0 0 69 63" fill="none" xmlns="http://www.w3.org/2000/svg">
<path d="M46 43.35H41.6848L31.4283 25.95H34.9312H36.3004L35.5633 24.7962L26.507 10.6212L25.875 9.63196L25.243 10.6212L16.1867 24.7962L15.4496 25.95H16.8188H20.3217L9.84764 43.7192L9.18106 44.85H10.4938H16.8188H21.6344H30.1156H34.9312H38.0219H40.6812H41.2563H42.5689H46H47.3656H48.0844H49.3949H52.1812H58.5063H59.8189L59.1524 43.7192L48.6783 25.95H52.1812H53.5504L52.8133 24.7962L43.757 10.6212L43.1263 9.63405L42.4938 10.62L37.3906 18.5737L37.1317 18.9773L37.3894 19.3818L44.6328 30.75H40.6812H39.3707L40.0346 31.8799L46.7738 43.35H46ZM48.875 49.65H48.125H38.125H37.375H31.625H30.875V50.4V62.25H20.875V50.4V49.65H20.125H1.30839L11.7159 31.879L12.3771 30.75H11.0687H7.11917L25.8739 1.39469L33.8674 13.9478L34.5 14.9413L35.1326 13.9478L43.1261 1.39469L61.8808 30.75H57.9312H56.6229L57.2841 31.879L67.6916 49.65H48.875ZM38.125 51.15H48.125V62.25H38.125V51.15Z" stroke="black" stroke-width="1.5"/>
</svg>
