<?xml version="1.0" encoding="UTF-8" standalone="no"?><!DOCTYPE svg PUBLIC "-//W3C//DTD SVG 1.1//EN" "http://www.w3.org/Graphics/SVG/1.1/DTD/svg11.dtd"><svg width="100%" height="100%" viewBox="0 0 16667 16667" version="1.1" xmlns="http://www.w3.org/2000/svg" xmlns:xlink="http://www.w3.org/1999/xlink" xml:space="preserve" xmlns:serif="http://www.serif.com/" style="fill-rule:evenodd;clip-rule:evenodd;stroke-linejoin:round;stroke-miterlimit:2;"><g><path d="M12607.4,471.404c-2,40.971 -12.125,81.854 -15.792,122.917c-8.999,102.063 -10.542,205.85 3.125,307.587c23.209,172.609 85.292,333.234 159.125,489.692c151.375,320.85 359.292,602.587 539.583,905.959c144.042,242.4 270.418,502.116 340.5,776.399c137.459,537.747 118.292,1101.71 -0.791,1641.25c-43.375,196.501 -95.166,386.917 -169.75,574.167c-153.958,386.5 -365.292,745.625 -594.5,1091.29c-205.333,309.541 -428.625,613.708 -682.375,885.708l-474.209,468.5l-148.958,133.042c-8.708,7.749 -40.708,30.417 -44.958,39.833c-12.125,26.667 -16.208,72.959 -22.25,102.291l-55.709,264.501c-70.791,297.416 -192.958,601.875 -349.457,864.75c45.207,34.999 129.916,54.958 184.707,75.833c109.834,-175.042 255.959,-335.083 403.626,-479.412c726.458,-709.963 1809.83,-1155.42 2829.46,-1019.09c129.625,17.333 256.917,42.917 383.5,75.75c151.125,39.209 321,110.667 476.417,108.667c371.083,-4.75 680.667,-278.125 1051.75,-274.042c-375.624,270.833 -437.958,745.833 -510.208,1170.21l-132.208,700.5c-78.459,330.584 -200.917,660.917 -351,965.501c-123.875,251.416 -310.834,472.541 -505.375,672.124c-703.917,722.125 -1621.08,1147.33 -2616.71,1276.71l-639.708,65.041c-308.958,22.625 -612.916,26.834 -910.083,127.417c87.5,79.417 179.625,156.5 251.083,251.167c27,35.833 53.125,73.791 73.708,113.708c16.126,31.292 43.625,111.792 68.625,129.5c76.167,53.917 167.001,96.583 246.417,147.458c312.626,200.417 646.709,420.125 907.958,685.167c131.626,133.583 235.459,292 319.418,459.125c57.708,114.917 109.666,237.375 189.874,338.75c153.334,193.792 355.042,314.708 556.375,450.333c-321.249,-103.5 -575.791,-233.333 -756.666,-530.916c-57.458,-94.459 -102.876,-196.625 -163,-289.209c-128.501,-197.75 -293.292,-368.291 -471.375,-521.583c-207.709,-178.833 -435.334,-341.042 -665.583,-489.375l-293.418,-185.375c-50.332,-32.417 -103.208,-62.042 -146.749,-103.5c48.25,0.75 108.833,39.708 150.5,62.208c-61.625,-90.208 -121.833,-181.583 -199.876,-258.875c-153.916,-152.458 -361.874,-247.208 -530.457,-384.875c-265.917,-217.166 -502.959,-456.5 -725.084,-717.583l-116.875,30.25c236.583,254.5 453.167,543.583 725.875,760.625c115.583,92 251.75,150.417 368.792,239.417c45.25,34.416 99.083,76.708 107.124,136.333c-7.624,7.5 -14.374,14.125 -23.541,19.75c-31.083,19.042 -68.958,20.708 -104.375,17.708c-78.791,-6.791 -157.916,-39.125 -234.916,-57.625l-272.084,-60.666c-479.667,-130.25 -933.208,-426.084 -1263.58,-796.792c-70.338,-78.958 -139.667,-156.875 -192.297,-249.167l-91.495,-10.5l232.708,302.459c145.001,170.333 304.625,335 483.833,469.333c262.834,197.042 593.834,344.833 908.959,434c208.5,58.958 425.541,98 630.541,167.333c262.001,88.625 503.084,254.459 725.793,415.042c168.541,121.542 317.833,260.125 463.916,407.167c136.125,137.083 270.25,282.708 378.875,442.958l231.042,378.667c48.875,78.666 101.499,165.458 174.208,224.708c150.959,123.042 365.75,171.667 541.167,251.25c123.958,56.25 242.791,131.417 357.708,204c-155.166,-29.625 -306.5,-74.917 -457.667,-120.292c-207.166,-62.208 -405.916,-119.416 -587.792,-240.875c-201.749,-162.125 -298.041,-404.916 -445.833,-611.541c-136.041,-190.209 -309.542,-365.917 -482.417,-522.584c-211.375,-191.5 -434.416,-375.875 -685.916,-512.791c-157.292,-85.667 -324.625,-148.042 -496,-198.75c-256.292,-75.792 -513.292,-135.25 -762.458,-235.5c-104.667,-42.125 -206.417,-96.417 -303.708,-153.334l-133.084,-79.666c-22.083,-13.542 -48.542,-33.875 -73.375,-41.375c-48.916,-14.875 -114.042,-16.709 -165.292,-21.542c-241.958,-22.792 -485.083,-14.458 -727.416,-2.708c-0,349.541 -77.042,735.833 -226.75,1052.29c-132.459,279.917 -327.334,535.875 -532.542,766.125l-499.875,518.667c-202.583,212.5 -383.292,449.667 -427.458,749c-8.334,56.542 -5.834,114.167 -4.459,171.125l-321.666,-253.542l-268.792,-176.75c-248.833,-170 -481.833,-350.208 -692.958,-565.708c-325.167,294.25 -745.209,499.292 -1156.83,644.583c-382.567,135.042 -806.25,192.042 -1210.53,154.042c-486.312,-45.75 -959.829,-216.625 -1405.9,-408.375l-542.937,-248.458l-476.654,-178.375c-91.488,-30.875 -182.509,-50.375 -270.113,-92.5c598.867,-169.334 882.934,-745.375 1151.9,-1251.71c119.85,-225.625 246.275,-453.125 399.433,-658.166c181.167,-242.584 400.588,-481.875 652.296,-652.167c121.58,-82.25 259.779,-150.292 390.217,-217.25c-155.958,-36.041 -318.05,-107.834 -460.45,-180.291c-564.387,-287.251 -987.3,-724 -1344.6,-1239.71c-143.992,-207.833 -262.579,-453.5 -443.704,-630.917c-89.988,-88.167 -188.346,-175.416 -320.554,-172.666l-10.313,0.333l29.167,-26.167c635.008,-545.458 1453.69,-752.167 2277.18,-692.708c-328.125,-542.458 -564.142,-1137.12 -714.471,-1752.29c-49.625,-203.125 -94.137,-402.208 -113.212,-611.042l159.975,81.918c12.987,-135.792 33.35,-270.167 38.3,-406.751c7.241,-199.541 -15.642,-392.917 -47.138,-589.542c68.05,51.126 141.75,77.668 223.746,97.292c151.417,36.209 331.983,5.625 487.125,2.292c341.979,-7.291 656.088,58.791 973.375,184.583c131.038,51.959 267.283,112.209 385.204,190.042l8.417,5.667c2.812,-295.042 69.417,-562.167 197.279,-828.375l196.959,-379.375c143.374,-297.625 268.791,-649.75 291.249,-981.584l0.542,-8.958c148.542,189.959 312.708,334.041 533.791,433.417c192.834,86.667 401.251,137.416 597.084,217.541c267.5,109.459 521.958,239.083 771.166,385.042c131.334,-533.25 606.292,-834.791 995.001,-1170.7c156.958,-135.641 296.375,-277.912 436.167,-431.003c43.291,85.124 112.541,155.437 174.916,226.658c176.125,201.192 377.458,382.842 526.917,605.3c187.958,-130.375 381.458,-246.291 584.125,-352.384l159.375,-79.821c31.541,-14.241 81,-28.904 104.875,-54.328c78.041,-83.138 125.458,-210.35 173.541,-312.108c11.834,-25.08 22.083,-47.851 48.709,-57.667c9.083,12.354 12.5,17.154 26.167,24.92c130.083,-456.216 360.541,-927.246 716.5,-1248.49c235.541,-212.583 519.958,-373.796 799.624,-520.492l324.167,-171.404c111.458,-59.275 218.125,-114.145 312.709,-199.467c166.416,-150.062 290.916,-344 407.333,-533.5l267.458,-450.608Z" style="fill-rule:nonzero;"/><path d="M12112.5,8484.17c-77.666,80.755 -170.75,150.334 -251.75,229.043c-176.083,171.166 -326.916,344.124 -479.709,535.249l-21.541,0.417l-17.25,-11.375l1.417,-13.042c216.291,-281.417 472.666,-542.746 768.833,-740.292Z" style="fill:#fff;fill-rule:nonzero;"/><path d="M8379,12487l40.5,-2.292c113.375,-5.292 222.958,0.542 335.792,9.458c28.916,2.292 82.958,3.209 108.291,14.917c20.875,9.625 52.875,48.25 71.251,65.042l-131.542,-4.334l-514.709,16.667c-18.416,-21.042 -11.167,-54.667 -10.833,-82.417c21.375,-18.166 73.292,-15 101.25,-17.041Z" style="fill:#fff;fill-rule:nonzero;"/><path d="M2029.62,6311.04l3.908,6.209c23.763,48.584 32.146,119.667 44.971,172.792l78.012,305.208l43.342,156.625c4.217,16.292 16.225,47.167 15.934,63.084c-0.067,4.332 -2.896,8.166 -4.363,12.208l-26.367,-5.792c-71.108,-23.917 -137.987,-47.75 -202.196,-87.209l46.759,-623.125Z" style="fill:#fff;fill-rule:nonzero;"/><path d="M4950.88,11934.4c3.583,17 -8.583,28.958 -17.333,43.417c-92.959,153.374 -180.334,301.749 -255.084,465.249c-122.041,-73.375 -261.541,-120.25 -395.916,-165.958l-172.354,-56.5l232.729,-55.875c206.041,-56.833 416.708,-135.916 607.958,-230.333Z" style="fill:#fff;fill-rule:nonzero;"/><path d="M8113.08,11710.4c54.834,21.042 115.125,34.541 171.75,50.583c12,3.417 45.584,8.958 53.125,15.083c6.875,5.542 19.292,33.959 24.375,42.834l69.708,116.5c89.667,134.916 192.58,260.416 292.001,388.041l-473.292,16.584c-20.667,-216.084 -65.875,-424.75 -137.667,-629.625Z" style="fill:#fff;fill-rule:nonzero;"/><path d="M10664.4,11047.4c5,12.542 4.667,5.959 0.208,19.417c-66.875,201.333 -110.208,456.583 -82.5,667.958c19.917,151.917 74.209,297.042 142.417,433.417l-78.583,160.667c-15.917,-22.709 -23.667,-62.167 -31.542,-89.251c-35.375,-121.666 -45.583,-236.625 -55,-362.125c-22.167,44.126 -12.041,112.125 -10.583,160.625c5.5,59.167 17.666,117.458 34.792,174.334c17.791,59.041 46.124,115.125 34.416,177.708l-10.084,1.583c-35.291,-55.625 -54.582,-130.416 -76.291,-192.541c-98.458,-282.125 -164.167,-558.917 -172.417,-859.251l305.167,-292.541Z" style="fill:#fff;fill-rule:nonzero;"/><path d="M10662.2,11155c11.542,-44.709 23.958,-88.667 28.834,-134.75l168.999,-208.001c-27.166,141.751 -27.708,279.917 -25.332,423.792c2.833,170.167 8.707,336.459 77.125,494.958c12.041,27.876 25.541,64.417 44.333,88.418l5.542,5.75l8.249,40.041l-231.124,280.792c-158.959,-315.292 -153.084,-653.167 -76.626,-991Z" style="fill:#fff;fill-rule:nonzero;"/><path d="M10217.6,11451c22.292,203.041 56.626,406.541 121.5,600.833c43.209,129.417 100.834,253.708 152.167,380l-258.666,-210.833c-175.709,-161.084 -350.417,-328.167 -497.709,-516.209c174.125,-67.958 329.042,-146.875 482.708,-253.791Z" style="fill:#fff;fill-rule:nonzero;"/><path d="M12481.8,849.388c-21.833,89.17 -48.166,175.978 -64.749,266.637c-41.334,226.091 -61.5,460.379 -89.625,688.909c-19.75,160.186 -34.168,331.962 -70.459,489.191l-98.75,-213.917l-220.5,-457.708c246.792,-220.004 392.292,-485.187 544.083,-773.112Z" style="fill:#fff;fill-rule:nonzero;"/><path d="M12753.8,6115.71l1.209,13.792c-179.833,265.041 -354.209,538.083 -555.417,787.625c-175.708,217.916 -379.708,422.625 -599.125,596.583l44.875,-568.416c80.959,-72.5 183.958,-130.208 272.709,-193.875c281.499,-201.917 582.999,-398.334 835.749,-635.709Z" style="fill:#fff;fill-rule:nonzero;"/><path d="M2256.97,14587.4l20.929,-0c-74.704,210.833 -200.538,353.666 -391.584,468.416c-61.524,36.959 -243.799,137.417 -308.412,134.375c-30.938,-1.458 -80.154,-24.791 -109.771,-35.166l-255.179,-87.167l-415.425,-116.792l-279.746,-61.125l718.658,-47.625c357.18,-39.458 682.525,-139.291 1020.53,-254.916Z" style="fill:#fff;fill-rule:nonzero;"/><path d="M5648.08,9961.46c103.5,20.917 195.584,35.375 300.667,43.834c63.208,5.041 124.042,52.583 174,89.041c103.125,75.25 199.667,160.667 280.75,259.625c114.25,139.375 204.083,298.125 313.417,441.125c71.333,93.25 156.291,173.292 231.791,262.917c-57.166,4.083 -115.75,9.625 -172.958,5.333c-77.167,-5.833 -139.75,-48.958 -202.833,-91c-390.167,-260.124 -623.834,-664.208 -924.834,-1010.88Z" style="fill:#fff;fill-rule:nonzero;"/><path d="M11916.8,1640.54l255.542,562.666c21.541,44.121 58.624,103.63 67.041,151.283c6.75,38.363 -26.416,132.488 -36.041,171.292c-59.751,240.637 -123.917,481.425 -204.709,715.967l-6.75,-71.505c-10.875,-235.774 -48.708,-431.77 -147.542,-646.74l-146.166,-297.463c-55.25,-123.667 -95.376,-252.05 -135.126,-381.284l353.751,-204.216Z" style="fill:#fff;fill-rule:nonzero;"/><path d="M8663.54,11806.2c149.041,19.042 299.624,21.208 449.541,13.583l148.083,-8.833c12.876,-0.875 45.293,-6.917 55.25,-3.667c2.709,0.875 27.167,39.583 30.292,44.042c30.042,42.708 61.417,84.125 95.334,123.791l423.208,458.917c137.209,137.917 301.25,254.833 467.75,354.917l1.792,10.625c-232.709,-53.334 -462.667,-123.042 -679.542,-224.042c-372.875,-173.708 -728.083,-452.667 -991.708,-769.333Z" style="fill:#fff;fill-rule:nonzero;"/><path d="M6637.88,8713.71l118.625,126.708c85.917,98.792 150.583,208.167 212.667,322.793c60.625,111.958 125.666,234.375 127.625,364.583c1.791,115.749 -26.917,230.458 -11.584,346.291c13.292,100.167 39.334,197.917 55.626,297.542c25.249,154.583 26.416,319.458 15.707,475.417c-34.999,-153.917 -50.249,-316.875 -74.749,-473.042l-80.084,-411.709c-24.333,-119.583 -47.333,-239.166 -91.958,-353.125c-4.833,110.293 26.625,240.501 44.333,350.5l109.126,652.001c32.624,169.208 78.083,335.541 94.374,507.583c5.208,50.458 2.459,103 -12.666,151.5l-196.959,-809.083l-132.291,-590.25c-14.417,-53.959 -24.459,-117.542 -51.084,-166.5c-10.791,120.5 30,255.791 52.875,374.25l141.584,716.875c-77.125,-174.25 -123.459,-358.375 -184.459,-538.375c-32.875,-97.084 -82.833,-186.501 -114.458,-283.75c-113.041,-348.126 -80.292,-706.292 -22.25,-1060.21Z" style="fill:#fff;fill-rule:nonzero;"/><path d="M1951.25,7358.17c48.321,71.916 82.438,163.374 121.371,241.458l270,541.75c251.629,495.792 511.817,987.459 813.2,1455c256.742,398.292 535.046,795.041 930.046,1068.5c130.712,90.5 269.796,163.792 417.254,222.834c58.917,23.583 125.709,38.458 181.792,66.833l6.333,3.291c-225.542,-19 -465.542,-109.708 -658.862,-225.708c-309.813,-185.959 -598.046,-451.625 -821.546,-734.708c-215.154,-272.5 -374.692,-577.542 -534.067,-884.459c-289.404,-557.208 -569.938,-1144.42 -725.521,-1754.79Z" style="fill:#fff;fill-rule:nonzero;"/><path d="M9427.71,4117.85c-33.125,49.271 -83.749,93.354 -125.208,135.937c-127.375,130.876 -259.917,250.542 -399.5,368.001c-193.166,162.5 -390.542,328.208 -559.459,516.374c-112.374,125.251 -206.958,264.542 -294.708,407.709c-155.083,252.958 -280.833,513.834 -348.75,804.125c-25.374,-10.292 -87.583,-117.5 -107.333,-145.583l-175.958,-234.667l11.25,-40.25c141.791,-443.167 426.333,-823.375 796.083,-1102.75c213.125,-161.083 442.583,-287.75 675.625,-416.625l527.958,-292.271Z" style="fill:#fff;fill-rule:nonzero;"/><path d="M16128.7,7816.58l11.584,-1.833c-19.041,54 -54.125,106.083 -79.875,157.833c-54.042,108.792 -101.292,216.792 -138.917,332.542c-38.833,119.5 -68.166,245.917 -93.416,369.042c-11.751,57.25 -15.542,139.916 -39.292,192.125c-25,55.041 -103.125,112.791 -149,150.625c-123.459,101.75 -265.583,192.583 -415.75,249.25c-158.916,59.958 -325.917,86.749 -490.125,127.208c-72.917,17.958 -144.208,43.625 -215.5,67.083l-14.292,-4.458c355.667,-488.208 740.042,-979.875 1214.83,-1358.83c129.624,-103.417 269.374,-192.708 409.749,-280.584Z" style="fill:#fff;fill-rule:nonzero;"/><path d="M3591.96,13993.3l8.988,0.084c-27.867,40.333 -71.763,74.958 -105.667,111.125c-56.608,60.375 -109.766,125.208 -159.392,191.416l-308.933,456.875c-129.85,196.209 -264.146,385.709 -471.679,506.584c-84.067,49 -174.45,86.666 -267.725,114.25c-36.071,10.666 -82.487,22.5 -119.433,11.833l-401.646,-125.917l-150.208,-54.291c64.791,-35.125 142.004,-52.625 209.225,-86.167c145.1,-72.375 297.183,-181.833 382.391,-322.375c41.863,-69.083 68.488,-148.375 93.684,-224.708l1290.39,-578.709Z" style="fill:#fff;fill-rule:nonzero;"/><path d="M16156.8,7759.58c15.376,-1.709 7.209,-1.543 24.542,-0c-22.625,27.041 -58.25,38.166 -88.667,54.874l-168.333,94.042c-165.5,94.959 -328.208,207.875 -473.375,331.75c-70.042,59.75 -134.292,128.667 -199.125,194.042c-66.959,67.458 -137.958,132.458 -201.25,203.25l-410.958,501.458l-393.126,467.917l-3.916,-8.125l15.583,-43.125c51.334,-148.667 88.584,-295.334 107.626,-451.792c18.207,-149.583 17.124,-301.792 40.708,-450.625c18.541,-117.042 53.208,-229.333 102.916,-336.958c66.876,-144.75 165.375,-272.751 267.208,-394.5c4.876,-5.792 37.334,-48.542 41.75,-49.542c14.001,-3.291 71.001,18.667 89.667,23.5l219.833,55.333c66.5,17.375 132.125,38.584 201.376,39.792c289.291,5.083 562.583,-132.875 827.541,-231.291Z" style="fill:#fff;fill-rule:nonzero;"/><path d="M15137.9,8020l12.417,1.541c-23.584,54.334 -41.959,101.751 -51.083,161.167c-17.5,113.876 -10.043,230.375 -29.125,345.208c-5.584,33.793 -8.834,69.709 -26.959,99.334l-19.459,-9.375c13.209,-78.083 28,-157.167 35.417,-235.958c10.667,-112.876 -9.25,-274.709 78.792,-361.917Z" style="fill-rule:nonzero;"/><path d="M11658.9,9708.54l23.209,-18.75l6.625,10.75c-90.917,301.333 -157.583,632.125 -175.083,946.124c-11.625,208.709 -1.833,414.251 3.292,622.667c1.666,67.75 6.707,138.25 1.332,205.834c-0.499,6.292 -0.458,28.583 -3.249,32.375c-4.542,6.166 -33.875,19.708 -41.875,24.375l-143.084,85.666c-116.333,72.792 -233.166,145.792 -339.667,232.542c-16.583,-6.75 -17.875,-11.375 -28.707,-24.916l-1.793,-7.667c-19.999,-84.209 -51.082,-164.792 -67.541,-250.084c-15.208,-79.125 -17.667,-159.916 -22.542,-240.124c-9.917,-162.667 -11.708,-328.917 -3.041,-491.626c1.167,-21.958 6.333,-38.333 17.333,-57.166c81.166,-139.125 183.625,-270 272.75,-404.5c100.709,-151.958 191.5,-313.625 301.75,-458.792c52.917,-69.583 114.25,-135.583 181.25,-191.792l19.041,-14.916Z" style="fill:#fff;fill-rule:nonzero;"/><path d="M13389.6,4648.42c-60.583,325.708 -192.416,653.374 -336.667,950.833c-55.582,114.5 -111.708,231.375 -181.749,337.875c-65.708,99.916 -153.959,183.125 -244.584,260.416c-64.833,55.292 -137.541,104.001 -205.791,155.25l-503.959,369.251l-190.499,137.041c-22.626,15.959 -49.875,41.417 -76.751,46.875l-4.916,-25.249l-27.708,-489.959c-2.292,-22.833 -21.459,-150.542 -15.209,-162.208c8.792,-16.334 166.334,-114.834 190.875,-131.834c267.25,-185.083 546.417,-363.792 798.583,-569.166c298.292,-243 605.375,-543.25 798.375,-879.125Z" style="fill:#fff;fill-rule:nonzero;"/><path d="M15777.9,8919.25l-28.792,159.084l-92.875,385.624c-14.124,51.334 -26.125,111.417 -49.292,159.334c-19.708,40.708 -58.541,80.5 -88.749,113.833c-93.75,103.667 -199.25,195 -316.708,270.875c-380.918,246.083 -862.168,318.625 -1302.08,223.417c-18.875,-2.167 -34.25,-7.792 -52.041,-14.125c69.291,-86.792 156.416,-164.917 232.958,-245.834l233.542,-271.875c25.958,-31.583 139.208,-193.124 164.666,-205.542c29.541,-14.416 71.709,-21.583 104.209,-30.874l264.916,-64.084c131.458,-24.958 261.291,-52.666 385.917,-102.791c208.417,-83.792 382.916,-223.792 544.333,-377.042Z" style="fill:#fff;fill-rule:nonzero;"/><path d="M11878.5,11516.4c243.75,-18.542 457.666,73.625 692.542,122.25c441.75,91.375 861.667,63.458 1302.12,-15.375c-198,124.792 -424.167,217.542 -641.376,302.833c-117.5,46.125 -245.999,99.542 -370.416,122.667c-81.042,15 -167.959,16.375 -250.25,19.542c-213.584,8.208 -434.25,3.874 -641.958,-50.875c-143.542,-37.875 -278.083,-114.834 -424,-140.375c-44.125,-7.709 -89.126,-6.292 -133.709,-5.709c-39.249,0.542 -79.333,-0.875 -117.291,10.334c-10.167,2.999 -5.792,0.791 -12.251,12.833c109.792,-2.833 204.334,-5.417 312.876,16.667c111.333,34.25 217.125,84.791 328.625,119.5c263.624,82.042 549.75,77.875 822.333,60.667c-85.458,37.833 -190.333,54.124 -281.459,77.958c-200.666,52.5 -402.499,92.083 -608.083,119.458c-197.374,26.25 -396.083,41.333 -592.083,77.625c-176.792,32.667 -348.166,80.042 -517.25,140.75l-1.583,-7.292c168.125,-487.833 697.5,-766.208 1133.21,-983.458Z" style="fill:#fff;fill-rule:nonzero;"/><path d="M11536.9,1859.54c11.875,-1.463 14.625,0.358 25.291,4.962c31.5,131.625 66.126,261.967 119.75,386.687c73.958,172.088 168.959,333.092 220.501,514.684c37.874,133.379 47.416,262.629 58.582,399.704c3.876,47.675 14.126,104.491 10.334,151.775c-2.583,31.721 -21.584,69.433 -32.875,99.854l-84.958,223.013l-155.709,407.163c-27.666,70.704 -51.292,144.453 -88.625,210.703c-5.666,-65.833 -11.874,-127.55 -31.041,-191.041l-4.459,-14.521c-65.958,-184.129 -181.583,-346.108 -287.5,-509.163c-64.291,-98.974 -122.166,-200.795 -176.624,-305.483c-147.167,-282.896 -184.834,-544.141 -86.918,-851.691c26.459,-82.976 63.584,-157.622 104.584,-234.101c18.917,-35.321 42,-81.412 70.917,-109.341c25.708,-24.837 70.291,-42.855 102.499,-60.013l236.251,-123.191Z" style="fill:#fff;fill-rule:nonzero;"/><path d="M14281.1,7802.71l517.042,66.708c-148.25,171.875 -285.625,339.876 -366.834,555.084c-68.333,180.959 -69.916,362.083 -85.124,551.75c-15.709,195.5 -45.709,397.208 -118.917,580.042c-17.292,43.125 -35.167,97.291 -65.375,133l-439.251,421.916l-263.458,220.209c131.417,-251 225.958,-494.334 211.084,-781.626c-7.251,-140.458 -33.542,-283.041 -49.542,-422.999c-17.875,-156 -21.708,-311.625 7.5,-466.667c69.166,-366.75 355.292,-655.666 652.875,-857.417Z" style="fill:#fff;fill-rule:nonzero;"/><path d="M11461.9,9680.17l9.833,1.25c-15.375,32.708 -60.125,68.374 -84.375,96.917l-152.875,197.833l-287.458,440.5c-252.042,372.833 -536.917,733.624 -924.5,973.291c-445,275.209 -1003.08,309.542 -1509.83,237.042c-138.75,-19.875 -274.75,-53.125 -411.125,-84.792c-53.292,-14.708 -102.167,-28.917 -152.5,-52c82.375,-23.792 159.958,-55.542 235.25,-96.458c99.5,-54.042 197.875,-120.792 309.375,-146.833c106.166,-24.833 216.541,-14.584 324.583,-13.375c266.75,3 525.083,-36.584 764.25,-160.25c427.042,-220.834 730.459,-586.792 1084.54,-899.5c237.125,-209.417 498.917,-379.751 794.833,-493.625Z" style="fill:#fff;fill-rule:nonzero;"/><path d="M11429.2,5996c41.125,927.209 40.375,1905.21 -328.042,2774.38c-47.833,112.792 -106.999,218.667 -166.25,325.667c-256.125,-74.584 -510.541,-102.501 -776.666,-105.5l-144.542,-1.917l311.542,-439.083c233.624,-335.959 461.125,-664.875 606.25,-1051.04c83.25,-221.458 140.25,-452.458 208.25,-678.833l289.458,-823.667Z" style="fill:#fff;fill-rule:nonzero;"/><path d="M680.275,10000.1c132.521,68.5 236.2,182.709 335.621,291.5l298.329,328.5c204.904,219.709 416.554,419.209 673.862,577.417c277.455,170.583 596.742,250.667 914.484,306.792c839.846,148.291 1756.76,112.75 2584.97,-87.625c-93.209,77.833 -189.042,175.833 -299,228.875c-544.209,243.791 -1098.92,483.458 -1710.06,438.124c-218.879,-16.208 -432.275,-80.041 -638.312,-152.374c-405.667,-142.375 -795.329,-347.75 -1119.75,-632.875c-168.071,-147.708 -319.804,-321.459 -458.017,-497.167c-204.05,-259.417 -366.846,-551.75 -582.133,-801.167Z" style="fill:#fff;fill-rule:nonzero;"/><path d="M13328.6,2697.75l3.958,1.154c43.958,68.1 67.583,166.212 88.208,244.405c101.459,384.454 118.875,789.092 71.75,1183.72l-40.125,274.842c-8.042,46.208 -13.541,96.459 -29.292,140.833c-31.458,88.625 -118.167,193.75 -173.624,270.583c-318.292,441.001 -754.043,765.043 -1197.75,1069.58c-137.333,94.25 -283,179.792 -413.874,282.917l-25.834,23.167l-11.25,-1.125c-41.292,-240.418 -65.041,-510.751 -26.209,-751.626c1.209,-7.25 3.876,-43.291 7.709,-48.249c15.375,-19.959 70.541,-46.126 93.042,-60.293l282.25,-179.749c342.999,-230.75 660.208,-496.709 931,-810c90.541,-104.709 178.5,-209.937 250.25,-328.917c163.625,-271.287 279.708,-575.112 262.708,-897.492c-7.541,-142.221 -38.708,-276.221 -72.916,-413.754Z" style="fill:#fff;fill-rule:nonzero;"/><path d="M7967.83,3729.6c52.042,66.196 89.917,143.766 142.875,210.876c132.833,168.374 295.833,324.228 398.542,513.895c5.708,10.5 34.792,61.584 33.959,71.375c-0.584,6.708 -11.334,7.333 -17.001,11l-71.833,47.75l-84.625,60.584c-151.167,110.874 -299.375,226.791 -431,360.791c-251.541,256.084 -448.375,578.834 -552.083,922.667l-61.709,-69.25c-197.542,-211.5 -420.5,-402.042 -655.25,-570.834c38.667,-161.792 93.834,-324.333 184.667,-464.625c177.75,-274.458 467.667,-461.5 710,-672.988c147.375,-128.645 275.541,-273.712 403.458,-421.241Z" style="fill:#fff;fill-rule:nonzero;"/><path d="M4453.04,5266.83c-123.75,595.542 -63.959,1229.58 179.791,1788.79l126.333,275.834l74.418,143.458c6.083,11.5 22.624,34.75 24.958,46.958c4.375,22.875 -7.792,74.292 -10.084,100.209l-11.375,213.124c-7.291,258.834 2.25,527.792 48.959,782.796c74.208,405.288 263.291,740.871 573.208,1012.41c125.958,110.417 264.208,202.75 401.583,297.791c-90.291,-12 -177.541,-32.75 -263.916,-61.625c-111.584,-40.833 -218.042,-101.749 -316.167,-168.125c-205.375,-138.874 -373.875,-329.25 -511.083,-534.208c-104.917,-156.708 -182.917,-331.75 -262.417,-502.25c-178.296,-382.375 -347.013,-761.375 -425.888,-1179.08c-74.104,-392.541 -78.937,-791.374 -20.424,-1186.38c25.358,-171.207 58.758,-341.499 117.354,-504.833c64.458,-179.791 167.083,-366.708 274.75,-524.875Z" style="fill:#fff;fill-rule:nonzero;"/><path d="M2058.95,6099.46c140.692,25 294.842,12.25 437.762,11.041c191.309,-1.584 376.63,0.833 565.871,34.375c177.554,31.459 347.442,90.458 513.459,159.792c119.758,50.041 238.104,107.583 350.262,172.999c11.442,6.667 47.2,23.251 54.375,32.5c3.388,4.334 -7.583,162.126 -8.333,180.626l-0.925,364.875c16.354,490.166 176.691,941.041 361.912,1389.25c-57.416,-61.209 -103.791,-138.209 -151.416,-207.334c-69.742,-101.208 -141.225,-199.208 -222.446,-291.666c-227.634,-259.167 -501.054,-453.459 -817.838,-588.876c-266.162,-113.791 -547.429,-188.916 -818.896,-288.541l-263.787,-969.041Z" style="fill:#fff;fill-rule:nonzero;"/><path d="M15578.6,9688.33l3.416,6.334c-25.167,93.624 -75.917,192.291 -118.834,279.208c-136.5,276.458 -297.458,545.542 -499.833,779.375c-231.5,267.417 -498.167,504.625 -795.5,697.375c-62.374,40.458 -131.75,89.125 -201.375,115.709c-84.667,32.333 -184.375,42.832 -274.042,56.708c-368.541,57.125 -713.249,60.25 -1081.5,-7.25l-347.292,-80.875c-107.25,-27.375 -212.667,-56.292 -324.459,-47.126l-13.957,1.209l492.041,-267.708l278.75,-161.542c27.583,-16.333 83.833,-56.583 114.041,-61c9.626,-1.375 33.209,7.291 44.501,9.667l136.166,25.875c136.167,23.541 275.167,37.125 412.834,48.625c392.5,25.5 788.166,6.625 1162.62,-121.917c60.042,-20.584 134.126,-42 185.792,-79.375c-24.666,-1.5 -64.041,20.417 -88.333,29.042l-163.875,51.542c-65.041,19.374 -131.583,33.957 -198.208,46.749c-485.084,93.042 -974.042,53.251 -1457,-29.791c234.667,-145.042 455.042,-303.5 668.418,-478.209l247.833,-208.958c15.708,-13.458 50.833,-52.333 66.667,-57.167c3.791,-1.167 33.833,8.542 38.957,9.834c51.875,12.916 103.501,24.874 156.292,33.416c152.209,24.667 305.083,28 458.459,14.25c352,-31.541 707.916,-203.375 960.708,-447.916c49.375,-47.751 92.792,-103.417 136.709,-156.084Z" style="fill:#fff;fill-rule:nonzero;"/><path d="M7772.42,11520.2c30.166,-4.042 58.458,-6.333 88.916,-5.292c63.376,51.042 103.875,131.75 131.584,207.292c85.875,233.958 136.375,500.125 156.541,748.333c27.459,338.792 -2.792,693.625 -112.458,1016.54c-134.75,396.667 -383.666,745.625 -658.708,1056.71c-172.542,195.167 -365.334,371.5 -527.417,576c-103.458,130.542 -184.583,263.209 -255,413.542c-34.75,84 -65.5,164.75 -85,253.792c-66.542,-187.709 -57.75,-443.709 -42.458,-640.375c27.791,-357.709 119.458,-731.417 269.833,-1057.96c62.875,-136.5 139.833,-265.458 219.625,-392.541c158.583,-252.459 326.542,-510.125 418.083,-795.917c67.167,-209.625 100.417,-425.5 100.959,-645.417c0.333,-135.375 -19.876,-301.333 13.917,-432.125l3.874,-14.583c25.917,-101.25 64.709,-189.875 120.917,-277.958l156.792,-10.042Z" style="fill:#fff;fill-rule:nonzero;"/><path d="M4554.33,13602.7l16.459,0.042c22.958,30.083 26.75,88.833 36.375,126.083l60.833,208.5c21.208,66.75 46.75,133.292 74.625,197.5c53.625,123.542 115.959,257.75 188.542,370.917c83.749,130.5 185,255.125 278.541,379c-14.291,19.75 -39.5,34.083 -59.417,48.333l-136.916,96.292c-485.041,329.458 -991.304,548.167 -1583.25,577.167c-167.071,8.166 -337.904,5.041 -502.504,-26.459c359.425,-44.291 630.012,-202.083 837.092,-501.708c112.662,-163 206.17,-338.75 325.895,-497.167c161.184,-213.291 351.85,-391.333 538.767,-580.625l22.458,-30.25c-16.291,-4.666 -101.333,82.709 -118.333,98.709c-193.5,181.416 -374.646,365.625 -526.988,583.708c-126.954,181.75 -236.816,389.833 -385.662,553.708c-98.713,108.667 -211.05,183.75 -343.263,246.084c-133.137,62.75 -327,109.708 -474.037,100.083c-179.575,-11.75 -371.762,-86.333 -539.796,-147.333c150.879,-30.542 289.063,-88.334 411.475,-183.209c176.904,-137.166 302.358,-336.5 423.713,-521.791c115.429,-176.209 231.933,-357 365.625,-520.125c59.846,-73.042 132.275,-163.584 207.487,-219.834c76.025,-56.833 179.996,-92.625 267.446,-128.708l614.833,-228.917Z" style="fill:#fff;fill-rule:nonzero;"/><path d="M11152.8,2062.99c-3.125,32.242 -24.875,61.2 -40.542,88.934l-77.041,146.516c-53.917,115.721 -89.375,251.613 -96.333,379.33c-20,368.621 212.25,706.137 402.958,1003.63c65.292,101.825 136.584,205.668 183.25,317.613c20.75,49.788 42.166,106.755 52.958,159.522c8.626,42.011 9.25,85.303 17.25,127.636c6.209,32.959 -313.624,795.167 -341.125,866.209l-136.041,376.667c-75.292,-214.334 -193.917,-394.167 -306.5,-589.25c-91.5,-158.542 -175.417,-325.25 -235.625,-498.292c-76.167,-218.75 -145.583,-443.225 -175.209,-673.662c-54.167,-421.484 35.917,-841.292 219.334,-1220.64l-4.125,-11.638c-100.334,186.134 -164.459,369.759 -209.458,575.93c-91.168,428.366 -31.626,818.179 105.541,1227.51c61.833,184.625 134,363.5 225.292,535.583c83.583,157.542 185.124,307.167 263.083,467.125c35.375,72.583 60.792,149.417 87.25,225.542c-65.625,34.833 -135.625,56.792 -205.208,82.167l-300.167,108.333c-9.959,-14.833 -8.417,-43.375 -10.208,-61.875l-18.959,-166.042c-24.417,-177.208 -69.958,-346.958 -125.292,-516.792c-98.541,-302.166 -250.374,-589.707 -383.791,-877.883l-168.916,-404.983c39.625,-171.108 115.374,-343.425 186.874,-503.384c173.25,-387.633 393.125,-697.624 743.209,-942.432l347.541,-221.372Z" style="fill:#fff;fill-rule:nonzero;"/><path d="M12501.9,781.266c11.291,134.055 31.417,274.167 70.042,403.063c52.208,174.088 135.333,338.138 219.042,498.891l483.25,876.189c-10.876,31.478 21.541,105.061 30.208,138.345c21.124,81.234 38.708,164.975 50.916,248.012c17.417,118.167 24.959,239.08 9.542,358.009c-66.541,512.466 -383.084,909.975 -743.917,1257.64c-157.083,151.333 -318.125,293.125 -494.125,422.25c-178.708,131.083 -374.958,240.166 -549.541,375.208l-10.167,-6.917c-4.834,-2.208 -9.917,-4.624 -15.208,-4.749c-13.709,-0.292 -80.125,49.875 -98.834,60.874c-57.667,33.834 -118.416,62.959 -180.417,87.834c30.292,-133.25 91.917,-262.5 145.459,-387.417l132.666,-329.292l65.709,-166.625c11.875,-30.874 22.459,-70.833 46.75,-94.292l716.75,-706.228c247.666,-247.676 522.708,-506.788 709.917,-805.08c30.583,-59.766 57.333,-115.087 73.124,-180.729c32.334,-134.492 20.459,-293.329 7.417,-430.045c-6.041,122.054 7.292,257.566 -22.625,376.562c-70.916,281.883 -318.249,521.645 -514.166,726.563l-497.292,498.779c-152.083,147.003 -311.709,294.137 -448.583,455.471l513.041,-1476.27c71.667,-55.874 134.001,-127.687 202.083,-188.478c111.584,-99.592 235.167,-186.655 331.709,-302.129c105.083,-125.672 200.958,-321.03 185.791,-488.822c-2.374,22.446 -7.333,43.247 -12.583,65.104c-31.875,132.393 -91.583,259.313 -175.416,366.88c-94.625,121.437 -217.167,216.992 -330.459,320.083c-72.416,65.921 -137.416,137.908 -202.125,211.216c110.083,-362.42 172.542,-744.824 206,-1121.57l40.667,-643.021l55.375,-415.313Z" style="fill:#fff;fill-rule:nonzero;"/><path d="M4715.54,4434.75c88.833,81.541 179.041,150.542 286.458,206.042c210.167,108.542 449.292,164.041 670.25,247.958c687.416,261 1309.29,690.417 1775.96,1262.46c466.209,571.375 686.667,1382.75 610.958,2112.5c-60.708,-476.25 -327.166,-905.833 -633.208,-1263c-236.833,-269.75 -505.791,-488.583 -819.375,-664.874l-756.25,-379.793c-148.541,-77.833 -287.708,-169.708 -430.625,-257.041c-58.333,272.708 -184.542,509.292 -292.333,763.125c-68.083,160.333 -136.083,326.083 -183.542,493.791c-38.791,137.168 -63.083,275.668 -88.708,415.625c-79.292,-169.166 -160.875,-340.541 -220.959,-517.666c-181.166,-533.958 -217.291,-1136.25 -108.291,-1689.5c25.875,-131.375 73.416,-255.292 108.333,-384.042l81.334,-345.583Z" style="fill:#fff;fill-rule:nonzero;"/><path d="M9987.62,9060.96c105.916,-13.125 225.125,-3.875 331.375,4.125c291.875,21.959 567.041,91.125 839.125,197.875c152.375,59.792 291.25,121.334 428.5,212.875c-567.583,151.25 -944.167,578.209 -1339.83,982.209c-291.625,297.75 -631.542,582.792 -1052.33,661.083c-110.833,20.625 -218.958,22.125 -331.25,23.292c-144.416,-1.375 -298.458,-7.209 -438.208,34.166c-237.125,70.25 -430.459,277.042 -692.917,266.542c-28,-1.125 -54.875,-0.208 -74.333,-21.417l22.917,-144.583c9.249,-101.75 -43.209,-170.875 -104.709,-244.083c91.334,-71.667 171.667,-167.292 251.625,-251.292c128.667,-135.166 254.792,-271.292 371.5,-417.083l513.5,-662.167c122.209,-146.25 266.5,-296.875 427.334,-399.875c248.958,-159.417 557.25,-216.458 847.708,-241.667Z" style="fill:#fff;fill-rule:nonzero;"/><path d="M3027.8,12163.6c328.742,125.084 640.967,144.625 984.179,73.334c40.088,-8.334 107.309,21.333 147.788,33.833c175.358,54.292 343.567,111.583 505.483,199.542c2,20.041 -10.625,44.958 -16.917,64.416l-40,139.834c-35.625,150.125 -56.583,298.916 -67.917,452.708c-102.999,-10.667 -202.999,-28.792 -301.041,-62.875c-294.354,-102.292 -548.604,-289.5 -835.454,-407.25c-337.579,-138.583 -674.821,-131.542 -1010.61,8.5l3.333,4.917c149.758,-37.5 298.683,-79.167 453.729,-85.542c633.967,-26 1074.01,536.667 1690.33,567.458l10.667,317.292l-453.458,164.542l-224.967,94.875c-26.058,11.125 -60.971,31.458 -88.804,31.416c-247.021,-0.166 -499.721,-35.583 -740.525,-88.125l-401.238,-105.916c-226.841,-66.5 -457.958,-133.084 -693.329,-64.417c-15.9,4.667 -49.071,10.542 -56.962,25.167c107.175,-20.209 207.975,-33.459 317.379,-25c223.375,17.375 438.933,105.25 653.616,163.416c194.988,52.834 397.738,90.167 598.534,111.209l294.45,10.166c-238.508,94.792 -464.338,229.75 -696.954,338.542c-59.28,27.708 -128.225,68 -190.463,85.542c-25.358,7.125 -62.696,1.5 -89.733,2.25c-214.046,5.958 -427.504,-8.292 -638.621,-45.709c-217.987,-38.666 -415.187,-130.208 -640.496,-117.625c65.129,16.875 135.254,15.667 202.084,32.292l293.312,86.708c265.446,67.875 535.317,84.75 808.037,72.084l-382.695,163.916c-75.246,31.542 -158.938,72.209 -237.913,92.334c-78.771,20.041 -171.725,21 -252.666,21.625c-221.63,1.75 -427.78,-27.792 -644.155,-72.959l-4.07,5.875c44.575,22.292 98.97,31.542 147.379,43.084c202.02,48.375 415.625,69.5 623.241,56.916c-40.346,23.584 -103.579,35.625 -148.825,50.542c-397.954,131 -811.216,171.458 -1226.79,202.958c127.133,-85.625 243.671,-172.916 344.17,-289.458c157.492,-182.667 268.551,-417.75 377.98,-631.417c270.654,-528.416 566.229,-1064.58 1059.85,-1417.71c176.82,-126.5 373.516,-211.208 569.058,-303.292Z" style="fill:#fff;fill-rule:nonzero;"/><path d="M9774.79,3871.14l514.542,1156.36c80.876,230.958 137.084,463.125 148.334,708.375c0.583,11.833 6.292,64.875 2.125,73.208c-1.542,3.125 -38.834,17.251 -42.292,18.583c-471.542,181.126 -1007.38,338.834 -1358.38,723.084c-165.75,181.5 -282.708,397.208 -355.333,631.375c-85.338,275.25 -120.459,566.292 -200.459,843.958c-78.333,271.834 -186.167,522.625 -308.375,776.667l-94.166,183.708l5.041,-270.25c-1.625,-93.208 -26,-214.291 1.25,-303.083c37.792,-123.167 48.334,-255.417 52.709,-383.541c13.833,-406.292 -75.334,-807.709 -215.834,-1187.21c-53.291,-144 -120.583,-279.625 -181.916,-420c15.333,-138.5 84.375,-289.334 136.541,-418.125c169.375,-417.958 461.833,-806.667 798.334,-1105.17c267.916,-237.625 570.375,-443.25 821.875,-698.166c101.291,-102.692 188.917,-215.125 275.999,-329.775Z" style="fill:#fff;fill-rule:nonzero;"/><path d="M2189.76,9289.21c167.008,-4.166 341.795,6.125 506.429,34.125l138.1,226.625c426.612,725.084 1088.35,1455.96 1987.62,1481.62c159.25,4.542 319.625,-11.333 477.708,-28.708c132.042,-14.458 271.667,-41.667 404.375,-21.958c147.708,21.958 298.625,96.375 444.792,133.666c-113.25,26.917 -227.25,62.917 -333.75,110.292c-58.209,25.916 -115.584,61.916 -175.959,81.666c-141.999,46.375 -294.458,69.834 -441.291,95.917c-239.667,42.584 -477.792,80.709 -720.667,99.917c-301.917,23.583 -609.725,19.333 -911.892,0.417c-501.92,-31.375 -1009.75,-100.709 -1460.22,-338.375c-248.83,-131.292 -475.913,-323.542 -666.717,-529c-224.254,-241.458 -404.85,-578.792 -713.196,-722.834c-90.525,-42.291 -180.571,-62.208 -277.762,-83.125c89.895,-64.791 179.55,-133.292 276.37,-187.416c442.867,-247.583 965.892,-332.5 1466.06,-352.834Z" style="fill:#fff;fill-rule:nonzero;"/><path d="M13936.1,7799.58c99.125,-14.999 216.042,-3.208 316.376,-0.833c-332.126,239.333 -632.876,537.5 -674.626,967.417c-16.792,172.875 4.375,345 25.875,516.416c22.292,177.375 54.959,362.292 19.042,540.001c-27.625,136.541 -76.917,268.791 -134.208,395.375c-21.209,46.916 -43.875,104.291 -75.583,144.708c-39.625,50.5 -105.375,93.625 -156.25,132.916c-212.834,164.209 -438.5,304.25 -663.168,451.042l27.376,-313.292l19.458,-757.208c29.709,-450.916 121.958,-920.375 339.833,-1320.33c76.833,-141 164.542,-274.709 268.001,-397.667l136.583,-154.791c25.458,-27.751 57.041,-55.668 74.75,-89.126l-10.042,-0c-108.209,117.042 -222.583,226.5 -318.584,354.333c-440.874,587.209 -523.207,1292.29 -535.458,2003l-16.5,534.458c-2.624,42.333 1.25,101.917 -9.708,142.083c-3.667,13.5 -4.917,12.25 -15,18.459c-114.5,70.458 -238.625,129.125 -357.958,191.125l-660.126,336.458c21.126,-198.708 1.793,-394.208 0.209,-593.25c-2.292,-297.083 29,-589.875 90.125,-880.458c21.958,-104.417 42.459,-212.25 76.583,-313.334c4.292,-12.708 8.459,-31.166 14.709,-42.625c18.708,-34.166 145.791,-87.791 183.625,-106.625c-29.834,-33.375 -88.251,-61.167 -127,-84.625c120.333,-271.958 247.833,-529.208 415.999,-775.5c68.792,-100.833 152.126,-215.416 242.459,-298.25c189.875,-174.041 409.708,-285.708 643.667,-386.499l-2.792,-8.5c-211.292,76.125 -409.375,173.666 -581.542,320.124c-254.499,216.546 -443.999,536.125 -593.166,831.958l-145.084,308.501l-363.416,-198.917c8.416,-26.625 40.583,-57.5 58.583,-79.667l178.5,-214c134.375,-152.875 281.708,-290.499 437.083,-421.416c53.542,-45.083 104.459,-94.125 161.25,-135.084c485.375,-349.916 1114.17,-578.833 1710.12,-616.375Z" style="fill:#fff;fill-rule:nonzero;"/><path d="M1885.48,6951.67c189.079,109.126 385.446,175.167 591.405,242.875c453.954,149.209 897.054,287.709 1261,614.251c233.445,209.417 402.554,482.875 590.02,732.212c28.505,37.871 71.921,68.667 97.088,106.829c25,37.88 41,86.459 61.042,127.584l140.958,276.625c183.25,342.958 496.333,685.333 858.333,840.875c75.417,32.416 148.792,154.416 201.458,221.458c212.209,270.167 416.543,562.542 678.334,787.75c67.792,58.333 145.667,122.042 227.916,158.583c14.709,6.542 18.126,7.625 30.459,19.209l-27.625,3.333c-200.833,16 -408.625,-21.75 -597.667,-88.25c-92.375,-32.5 -188.083,-73.667 -285.333,-87.417c-151.583,-21.416 -304.625,6.709 -455.625,19.417c-365.834,30.792 -712.292,-60.584 -1027.54,-246c-235.42,-138.458 -450.2,-338.667 -623.587,-549.041c-129.592,-157.209 -242.304,-328.543 -354.771,-498.126c-412.579,-622.208 -757.975,-1291.12 -1071.91,-1967.92c-107.059,-230.792 -229.455,-467.708 -293.955,-714.251Z" style="fill:#fff;fill-rule:nonzero;"/><path d="M11367.5,5603.04l25.042,-2c2.708,25.708 -10,50.292 -18.25,74.541l-48.375,143.084l-77.251,261.083l-122.249,477.291c-57.417,256.876 -107.292,516.667 -189.292,767.168c-112.666,344.291 -282,662.625 -484,962.374l-443.583,636.334c-8.876,11.833 -44.583,68.499 -55.334,73.125c-13.625,5.875 -44.583,6.374 -60.166,8.625l-144.708,20.958c-254.084,42.75 -512.084,118.875 -718.501,278.458c-115.708,89.458 -221.708,192.625 -317.796,302.876c-180.12,206.708 -338.204,432.957 -508.12,648.041c-161.376,204.208 -344.625,406.833 -532.917,586.083c-91.125,86.751 -190.541,197.667 -318.292,222.542l-16.25,0.167c52.5,-93.959 122.417,-181.084 176.834,-275.542c171.125,-297.292 320.541,-629.458 419.292,-957.75c37.291,-123.917 67.083,-250.5 92.291,-377.375l33.167,-180.917c6.792,-44.666 10.25,-93.958 30.333,-134.917c158.125,-322.124 324.75,-639.124 427.167,-984.666l145.916,-589.334c51.084,-227.749 101.042,-449.332 210.208,-658.166c330.376,-632.083 1129.92,-836.542 1755.58,-1045.83l739.25,-256.25Z" style="fill:#fff;fill-rule:nonzero;"/><path d="M7457.71,11095.2c16.917,-2.459 35.251,-5.834 51.958,-0.542c30.542,9.708 59.167,40.125 75.459,66.667c36.583,59.708 30.375,152.791 12.833,218.125l-3.958,13.833c-21.542,77.458 -64.458,143.583 -98.792,215.625c-36.666,76.958 -63.5,155.333 -78.666,239.208c-21.875,121.084 -12.792,250.417 -12.417,373.209c0.792,273.541 -37.167,523.125 -136,779.625c-121.5,315.333 -333.417,578.958 -493.208,873.625c-210.625,388.25 -334.083,801.625 -373.584,1241.83c-19.958,222.542 -17.791,460.542 46.084,676.5l-859.834,-711.875c-435.916,-402.875 -793.791,-904.208 -884.083,-1504.04c-92.458,-614.041 30,-1181.5 402.667,-1683.75c132.791,-178.958 291.041,-329.208 474.625,-454.791c132.666,-90.709 264.666,-172.334 419.417,-220.875c231.791,-72.75 487.166,-57.042 727.083,-65.292c243.291,-8.333 489.5,-21.917 730.416,-57.083Z" style="fill:#fff;fill-rule:nonzero;"/><path d="M5487.17,5829.96c62.458,56.125 136.333,102.25 207.333,146.75c150.875,94.542 308.125,175.209 466,257.167c221.625,115.083 442.042,231.792 647.542,374.458c536.791,372.834 1043.08,995.167 1160.54,1651.21c119.375,666.5 4.792,1332.83 -244.458,1955.21c-80.5,200.917 -179.666,416.167 -303.333,594.625c40.666,-159.042 77.875,-321.125 90.375,-485.208c10.041,-131.917 3.041,-261.417 1.5,-393.292c-1.209,-104.375 2.291,-210.833 -12.084,-314.333c-28.999,93.791 -28.875,202.791 -36.708,300.5l-57.125,507.749c-13.583,95.584 -23.708,203.084 -57.792,293.709c22.834,-272.625 8.417,-551.958 7.083,-825.417c-0.582,-127.625 14.959,-257.125 0.042,-384.291c-29.833,53.875 -37.166,114.833 -46.666,174.75c-21.375,134.208 -27.917,265.458 -37.042,400.624c-64,-217.999 -48.625,-499.582 -14.708,-723.958c10.75,-71.125 34.541,-142 41.041,-213.083l-11.125,-9.792l-15.499,5.75c-47.167,96.375 -68.668,211.792 -82.917,317.417c-24.209,179.542 -39.209,379.334 5.374,556.333c24.751,98.209 82.626,187.584 98.709,286.375c9.75,59.75 6.125,126.042 6.167,186.542c0.083,193.417 -18.084,401.708 -70.75,588.208c-17.167,-52.167 -6.25,-120.917 -4.167,-175.75c4.375,-114.583 12.375,-230.166 8.625,-344.833c-4.458,-135.333 -17.542,-268.167 -44.458,-401.042c-18.417,-90.833 -48.917,-182.166 -53.042,-275.166c-6.167,-139.125 27.042,-274.75 17.542,-413.792c-5.417,-79.708 -46.708,-183.291 -82.042,-255.125c-15.333,-31.209 -36.417,-61.625 -47,-94.833c-33.458,-104.875 -41.958,-237.959 -56.583,-347.792c-4.833,-79.579 1.083,-165.375 -17.542,-242.833c-33.75,140.541 -26.125,285.041 -21.084,428.25c-54.374,-84.209 -119.374,-166.125 -187.333,-239.792c-20.166,-21.833 -97.458,-86.083 -105.166,-107.454c-4.417,-12.254 -2,-44.129 -3,-58.459c-4.167,-59.17 -12.167,-152.004 -42.459,-203.795l-13.375,5.125c-26.458,86.416 -4.291,198.166 -15.416,290.083c-14,115.5 -34.625,231.667 -42.542,347.708c-26.833,393.583 51.125,740 175.25,1111.25l141.667,411.958c36.583,91.625 80.541,180.166 125.583,267.833c37.75,73.458 81.5,144.625 96.5,227.167c4.25,23.291 6.5,32.75 -7.042,52.499l-14.166,-5.999l-405.876,-848.084c17.584,-35.75 -6.208,-110.624 -13.999,-148.25c-47.75,-230.625 -147.625,-441.666 -246.542,-653.75c-20.583,-44.083 -48.958,-131.833 -88.458,-157.708l-14.417,8.541c-10,47.584 134.709,317.292 160.667,380.209l107.625,286.167c36.791,98.416 74,189.208 98.249,291.875c-40.916,-65.792 -70.541,-138.042 -111.624,-203.625c-46.5,-74.25 -111.251,-148.709 -173.959,-209.667c47.875,138.667 125.834,266.125 189.834,397.333l133.708,295.292l163.042,336.5c-190.959,-213.042 -320.542,-470.333 -530,-668.916c-122.375,-116.001 -264.917,-201.792 -406.792,-291.167c-344.708,-217.167 -634.25,-460.75 -816.167,-834.542c-85,-174.625 -120.875,-367 -145.708,-558.084c-58.208,-447.458 -51,-953.957 75.583,-1388.96c85.542,-294 231.792,-566.249 345.834,-849.499c29.083,-72.209 57.791,-146.292 78.874,-221.292c17.542,-62.292 28.751,-123.875 49.876,-185.584Z" style="fill:#fff;fill-rule:nonzero;"/></g></svg>