<?xml version="1.0" encoding="UTF-8" standalone="no"?><!DOCTYPE svg PUBLIC "-//W3C//DTD SVG 1.1//EN" "http://www.w3.org/Graphics/SVG/1.1/DTD/svg11.dtd"><svg width="100%" height="100%" viewBox="0 0 2984 2384" version="1.1" xmlns="http://www.w3.org/2000/svg" xmlns:xlink="http://www.w3.org/1999/xlink" xml:space="preserve" xmlns:serif="http://www.serif.com/" style="fill-rule:evenodd;clip-rule:evenodd;stroke-linecap:round;stroke-linejoin:round;stroke-miterlimit:1.5;"><path d="M1301.67,1167.27l99.846,24.361c-0,0 32.848,50.143 18.85,90.205c-13.998,40.063 -19.647,75.347 -50.078,77.315c-30.432,1.968 -108.836,-30.798 -127.851,-39.165c-19.015,-8.368 59.233,-152.716 59.233,-152.716Z" style="fill:#c1e4cb;fill-opacity:0.77;"/><path d="M1937.68,1969.66l-127.686,49.383l110.126,266.294l231.038,-18.118l-213.478,-297.559Z" style="fill:#c1e4cb;fill-opacity:0.77;"/><path d="M1929.1,1183.22l-186.066,-40.563c-4.978,10.299 -8.044,20.473 -9.71,30.555c-5.197,31.442 -10.359,77.515 -11.245,108.929c50.335,10.862 84.649,17.353 126.322,32.59c29.111,-33.07 56.923,-83.217 80.699,-131.511Z" style="fill:#ffe4ca;fill-opacity:0.77;"/><g id="Woda"><path d="M1577.38,1198.64l-254.293,-115.681" style="fill:none;stroke:#6d88fa;stroke-width:4.17px;"/><path d="M2172,428.664c-0,0 225.15,183.902 222.379,194.82c-2.77,10.918 250.728,77.536 250.728,77.536" style="fill:none;stroke:#6d88fa;stroke-width:4.17px;"/><path d="M2271.93,299.197c0,0 296.845,250.571 345.152,232.959c48.308,-17.613 253.765,-196.788 271.437,-193.34c17.671,3.448 86.935,-9.96 86.935,-9.96" style="fill:none;stroke:#6d88fa;stroke-width:4.17px;"/><path d="M2617.09,532.156c0,-0 127.79,25.45 173.382,34.531c10.55,2.101 21.365,2.526 32.047,1.258c43.995,-5.218 162.85,-19.317 162.85,-19.317" style="fill:none;stroke:#6d88fa;stroke-width:4.17px;"/><path d="M2484.81,28.603c0,-0 -288.213,357.775 -323.1,397.534c-32.826,37.413 -299.849,377.578 -335.057,386.085c-30.701,7.418 -156.845,136.317 -156.845,136.317c0,0 -64,61.971 -70.21,116.639c-6.21,54.668 -80.535,504.665 -102.078,543.029c-21.543,38.365 -70.442,7.689 -115.491,16.48c-45.05,8.792 -51.602,-24.742 -73.961,29.993c-22.359,54.734 -48.546,71.798 -20.837,115.811c27.709,44.012 74.832,79.564 75.671,129.831c0.838,50.267 -25.779,87.605 -32.574,153.459c-6.795,65.853 0.893,149.565 56.466,198.806c55.573,49.241 108.84,11.383 126.544,55.638c17.704,44.256 4.953,66.218 4.953,66.218" style="fill:none;stroke:#6d88fa;stroke-width:16.67px;"/><path d="M1066.41,2195.23c-0,-0 116.605,-48.335 118.948,-60.725c2.342,-12.389 0.258,-58.714 9.586,-60.048c9.328,-1.333 63.916,-40.069 66.893,-49.763c2.978,-9.694 -5.645,-65.787 -2.545,-71.962c3.1,-6.176 11.901,-13.716 7.949,-20.206c-3.951,-6.49 -8.441,-48.374 -0.691,-49.837c7.75,-1.462 70.594,-40.617 70.594,-40.617" style="fill:none;stroke:#6d88fa;stroke-width:4.17px;"/><path d="M1078.39,2190.17c0,0 -6.254,-35.696 -0.309,-38.108c5.946,-2.413 42.122,-49.841 24.015,-89.082c-18.108,-39.242 -20.489,-40.422 -20.489,-40.422l-53.697,-74.162c-0,0 -18.328,-23.923 -10.428,-28.971c7.9,-5.048 67.037,-77.293 67.037,-77.293c-0,0 53.261,-77.907 58.107,-97.802c4.845,-19.895 59.758,-148.379 59.758,-148.379" style="fill:none;stroke:#6d88fa;stroke-width:4.17px;"/><path d="M693.798,2011.23l136.15,-226.01c0,-0 -3.463,2.806 90.119,-68.451c93.582,-71.257 219.867,-163.861 219.867,-163.861l193.915,58.787" style="fill:none;stroke:#6d88fa;stroke-width:4.17px;"/><path d="M1139.93,1552.91c-40.814,-13.159 -82.187,-14.969 -124.173,-4.315" style="fill:none;stroke:#6d88fa;stroke-width:4.17px;"/><path d="M632.549,1694.84c0,0 -28.345,-109.412 69.321,-155.664c97.665,-46.252 218.028,-97.073 254.284,-89.746c36.256,7.327 80.28,47.401 73.139,95.058c-7.142,47.657 -3.801,23.785 -38.837,56.063c-35.036,32.278 -149.371,76.002 -176.894,115.236c-27.523,39.235 -19.931,74.925 -38.492,63.311c-18.56,-11.614 -31.376,-60.252 -61.507,-58.626c-30.13,1.626 -81.014,-25.632 -81.014,-25.632Z" style="fill:#6dbdf9;stroke:#6d88fa;stroke-width:8.33px;"/><path d="M586.395,1714.85c-0,-0 120.707,15.626 128.476,30.086c7.769,14.46 49.788,37.696 38.96,57.654c-10.827,19.957 -83.267,135.856 -96.216,147.93c-12.948,12.073 -61.03,-20.912 -62.771,-44.776c-1.741,-23.864 27.93,-33.498 11.11,-51.317c-16.82,-17.818 -40.215,-35.071 -32.216,-54.18c7.999,-19.109 12.657,-85.397 12.657,-85.397Z" style="fill:#6dbdf9;stroke:#6d88fa;stroke-width:8.33px;"/><path d="M0.823,2157.09c0,0 37.811,-1.538 67.748,-21.596c29.937,-20.059 722.207,196.843 722.207,196.843c0,-0 32.766,-4.065 40.649,-24.847c7.882,-20.782 73.872,-126.212 93.629,-124.775c19.757,1.438 139.468,8.075 154.547,15.976c15.078,7.901 30.971,22.558 30.971,22.558" style="fill:none;stroke:#6d88fa;stroke-width:4.17px;"/></g><g id="Droga"><path d="M2555.9,2044.58c0,0 141.693,-213.628 152.237,-217.126c10.545,-3.498 119.365,-135.152 140.2,-150.281c20.836,-15.129 134.82,-144.618 134.82,-144.618" style="fill:none;stroke:#000;stroke-width:8.33px;"/><path d="M2640.69,2102.55l-187.687,278.133" style="fill:none;stroke:#000;stroke-width:8.33px;"/><path d="M2421.8,1977.84l-223.681,323.183" style="fill:none;stroke:#000;stroke-width:8.33px;"/><path d="M1847.71,1773.84c0,-0 104.547,248.716 350.41,527.183c245.863,278.467 69.923,78.859 69.923,78.859" style="fill:none;stroke:#000;stroke-width:8.33px;"/><path d="M2134.17,1619.53l94.048,-67.342c0,-0 31.427,-42.867 -4.363,-49.214" style="fill:none;stroke:#000;stroke-width:8.33px;"/><path d="M2417.51,1370.29c100.363,-131.245 174.334,-262.014 224.154,-392.347c-0,0 55.338,27.553 63.579,39.732c8.24,12.178 99.767,95.001 99.767,95.001l-68.347,83.705l-124.938,164.291l-12.326,15.202l-54.939,-35.163l-72.627,-45.12l24.787,15.398l121.292,-154.775l-8.287,-11.701l39.296,-84.133" style="fill:none;stroke:#000;stroke-width:8.33px;"/><path d="M2576.05,1123.33l41.857,32.889l86.23,61.778" style="fill:none;stroke:#000;stroke-width:8.33px;"/><path d="M2635.43,1090.7l111.118,88.212" style="fill:none;stroke:#000;stroke-width:8.33px;"/><path d="M2781.57,1137.18l-24.981,-19.425" style="fill:none;stroke:#000;stroke-width:8.33px;"/><path d="M2669.87,1285.91l-97.241,-68.569" style="fill:none;stroke:#000;stroke-width:8.33px;"/><path d="M2588.96,1334.36l-67.006,-52.661" style="fill:none;stroke:#000;stroke-width:8.33px;"/><path d="M2801.48,1109.95c0,0 170.969,145.905 187.397,241.055" style="fill:none;stroke:#000;stroke-width:8.33px;"/><path d="M2539.08,1337.28l-55.366,70.601" style="fill:none;stroke:#000;stroke-width:8.33px;"/><path d="M1375.49,836.972l177.08,-255.851c-0,0 20.651,-16.32 30.074,-6.782c9.424,9.538 82.574,52.277 82.574,52.277c-0,-0 44.097,9.645 57.08,7.604c12.982,-2.04 -8.141,-9.48 24.282,4.353c32.423,13.833 35.567,17.76 35.567,17.76" style="fill:none;stroke:#000;stroke-width:8.33px;"/><path d="M1049.37,443.283l-110.744,110.144l-12.597,28.638" style="fill:none;stroke:#000;stroke-width:8.33px;"/><path d="M938.626,553.427l-302.438,-206.922c-0,-0 -23.428,-27.005 -16.517,-33.82c6.911,-6.815 189.861,-250.201 189.861,-250.201" style="fill:none;stroke:#000;stroke-width:8.33px;"/><path d="M636.188,346.505c-0,-0 -99.373,-38.03 -124.731,-60.243c-25.358,-22.213 -67.579,-33.484 -73.833,-30.507c-6.253,2.977 -57.823,-65.785 -53.009,-72.51" style="fill:none;stroke:#000;stroke-width:8.33px;"/><path d="M560.104,0.408c-0,0 -420.104,410.119 -418.235,422.432c1.87,12.312 -119.071,155.477 -89.505,180.546c29.565,25.069 59.007,35.88 58.1,66.524c-0.907,30.643 7.854,15.383 -10.879,40.376c-18.734,24.992 -12.595,31.383 -21.095,71.777c-8.501,40.393 -4.556,26.07 -4.556,26.07" style="fill:none;stroke:#000;stroke-width:8.33px;"/><path d="M109.153,697.612c0,-0 100.711,69.418 113.627,71.065c12.915,1.647 111.306,34.844 122.369,50.849" style="fill:none;stroke:#000;stroke-width:8.33px;"/><path d="M1597.02,175.517l58.891,43.397" style="fill:none;stroke:#000;stroke-width:8.33px;"/><path d="M1099.09,957.854l40.212,36.01" style="fill:none;stroke:#000;stroke-width:8.33px;"/><path d="M1197.58,855.717l35.838,32.538l70.728,57.699l76.284,-116.212" style="fill:none;stroke:#000;stroke-width:8.33px;"/><path d="M1304.14,945.954l-105.084,160.246c0,0 -78.001,141.522 -72.856,154.846c5.145,13.324 -30.293,68.335 -44.644,78.476c-14.35,10.142 43.416,127.45 66.467,160.351c23.051,32.9 57.288,60.344 -14.823,167.831c-72.111,107.487 -120.883,223.248 -120.883,223.248l-89.608,166.652c0,0 3.799,8.517 -36.843,6.644c-40.642,-1.873 -141.954,-11.784 -216.856,7.364c-74.902,19.149 -236.994,71.639 -295.286,68.011c-58.292,-3.629 -259.407,-35.727 -299.995,-114.293" style="fill:none;stroke:#000;stroke-width:8.33px;"/><path d="M922.714,2057.6c0,0 -24.29,33.016 -34.103,72.843" style="fill:none;stroke:#000;stroke-width:8.33px;"/><path d="M1725.9,1041.81c-0,0 82.901,-6.083 105.942,15.049c23.041,21.131 166.929,79.023 166.929,79.023l267.198,146.759l279.909,166.224" style="fill:none;stroke:#000;stroke-width:8.33px;"/><path d="M1975.05,1126.14l127.452,-258.408" style="fill:none;stroke:#000;stroke-width:8.33px;"/><path d="M2080.99,1177.32l103.837,-158.213" style="fill:none;stroke:#000;stroke-width:8.33px;"/><path d="M2158.81,1058.75l88.519,47.118" style="fill:none;stroke:#000;stroke-width:8.33px;"/><path d="M2200.13,1242.66l17.853,-42.382" style="fill:none;stroke:#000;stroke-width:8.33px;"/><path d="M2258.73,1279.74l60.844,-126.312" style="fill:none;stroke:#000;stroke-width:8.33px;"/><path d="M1717.32,1554.93c-0,-0 -154.126,-6.949 -190.538,43.157c-36.411,50.105 -71.543,99.715 -82.222,148.372c-10.679,48.657 -41.883,144.687 -33.199,176.24c8.684,31.554 35.729,74.237 51.114,86.68c15.385,12.444 55.268,36.564 84.449,41.782c29.181,5.219 75.911,24.458 97.731,18.986c21.821,-5.472 144.952,-44.334 152.425,-53.295" style="fill:none;stroke:#000;stroke-width:8.33px;"/><path d="M1630.78,2070.93c0,0 -36.193,70.546 -34.724,80.89c1.469,10.344 -35.585,135.551 -42.142,146.044c-6.557,10.492 -12.863,42.258 -8.323,50.995" style="fill:none;stroke:#000;stroke-width:8.33px;"/><path d="M-0.382,921.016c-0,0 304.616,91.612 304.677,107.085c0.062,15.473 135.501,-6.205 135.501,-6.205c0,0 622.869,-81.696 648.45,-70.03" style="fill:none;stroke:#000;stroke-width:8.33px;"/><path d="M1014.91,954.332c-0,0 69.472,-136.637 91.194,-135.665c21.721,0.971 79.412,-71.483 83.105,-81.723" style="fill:none;stroke:#000;stroke-width:8.33px;"/><path d="M1143.65,793.294l-195.032,-114.119l-178.279,-107.863" style="fill:none;stroke:#000;stroke-width:8.33px;"/><path d="M1044.56,735.311l40.623,-68.773" style="fill:none;stroke:#000;stroke-width:8.33px;"/><path d="M951.694,682.938l-141.495,217.381c-0,-0 -35.975,38.729 -19.25,74.182" style="fill:none;stroke:#000;stroke-width:8.33px;"/><path d="M802.452,910.258l-54.311,-36.27" style="fill:none;stroke:#000;stroke-width:8.33px;"/><path d="M856.14,830.38l-201.745,-118.261" style="fill:none;stroke:#000;stroke-width:8.33px;"/><path d="M902.853,758.617l-194.042,-117.001" style="fill:none;stroke:#000;stroke-width:8.33px;"/><path d="M600.879,778.361l86.67,55.346" style="fill:none;stroke:#000;stroke-width:8.33px;"/><path d="M539.674,854.763l107.959,80.371c0,-0 29.458,34.326 21.191,52.835" style="fill:none;stroke:#000;stroke-width:8.33px;"/><path d="M629.02,739.655l-29.215,-37.916c-0,-0 -13.675,10.543 -46.316,-10.644c-32.641,-21.188 -77.073,-58.774 -77.073,-58.774" style="fill:none;stroke:#000;stroke-width:8.33px;"/><path d="M207.241,1065.34l50.302,88.084" style="fill:none;stroke:#000;stroke-width:8.33px;"/><path d="M101.685,1096.6c0,-0 64.131,118.45 84.793,141.935c20.662,23.486 159.603,182.44 170.253,179.882c10.651,-2.558 74.799,-62.63 87.782,-95.892c12.984,-33.261 23.22,-138.752 20.586,-170.566c-2.635,-31.815 -11.365,-134.86 -27.739,-136.933" style="fill:none;stroke:#000;stroke-width:8.33px;"/><path d="M465.507,1166.62c-0,-0 126.164,-16.136 140.529,5.642c14.366,21.779 139.067,150.954 150.379,147.77" style="fill:none;stroke:#000;stroke-width:8.33px;"/><path d="M700.762,1383.3c-0,-0 -39.164,-46.989 -50.714,-47.481" style="fill:none;stroke:#000;stroke-width:8.33px;"/><path d="M672.216,1412.88l-102.338,-88.538c-0,0 12.318,-129.78 58.529,-122.077" style="fill:none;stroke:#000;stroke-width:8.33px;"/><path d="M569.878,1324.34c-0,0 -36.902,91.8 -115.812,150.44c-78.91,58.639 -84.427,82.087 -84.427,82.087l-39.721,130.503" style="fill:none;stroke:#000;stroke-width:8.33px;"/><path d="M380.026,1402.81l162.272,149.47" style="fill:none;stroke:#000;stroke-width:8.33px;"/><path d="M238.473,1882.48l101.708,88.307" style="fill:none;stroke:#000;stroke-width:8.33px;"/><path d="M184.336,1926.48c0,-0 63.103,-378.029 88.587,-410.761c25.484,-32.731 81.401,-97.902 81.401,-97.902" style="fill:none;stroke:#000;stroke-width:8.33px;"/><path d="M127.629,1974.92c0,0 -125.142,-142.079 -138.022,-143.472" style="fill:none;stroke:#000;stroke-width:8.33px;"/><path d="M-5.098,1199.39c0,-0 52.093,68.319 42.796,106.124c-9.298,37.804 6.983,45.84 -15.998,72.96" style="fill:none;stroke:#000;stroke-width:8.33px;"/><path d="M-2.193,1309.22c-0,-0 53.696,-4.142 57.564,4.805c3.869,8.948 44.66,19.271 54.396,19.113c9.736,-0.159 51.677,3.619 56.731,-3.83c5.055,-7.448 14.392,-15.413 11.409,-26.137c-2.984,-10.724 -6.953,-33.748 -0.295,-37.747c6.657,-4 19.209,-16.984 19.209,-16.984" style="fill:none;stroke:#000;stroke-width:8.33px;"/><path d="M273.398,1513.61c-0,-0 -28.538,27.284 -60.625,-3.531c-32.086,-30.816 -32.169,-32.702 -32.169,-32.702l-61.196,-59.48l-48.921,-55.436l-36.694,-43.705" style="fill:none;stroke:#000;stroke-width:8.33px;"/><path d="M964.919,956.732l30.013,-56.279" style="fill:none;stroke:#000;stroke-width:8.33px;"/><path d="M2389.28,1359.14l-57.412,106.802" style="fill:none;stroke:#000;stroke-width:8.33px;"/><path d="M2353.9,1424.94l-44.706,-26.823l-7.857,-4.906" style="fill:none;stroke:#000;stroke-width:8.33px;"/><path d="M1722.97,1117.51c0,0 22.78,9.154 43.964,12.362c9.938,1.505 18.633,1.453 22.73,-1.949c12.832,-10.655 34.136,-71.342 34.136,-71.342" style="fill:none;stroke:#000;stroke-width:8.33px;"/><path d="M1722.97,1117.51l112.931,66.555" style="fill:none;stroke:#000;stroke-width:8.33px;"/><path d="M1698.19,1175.89l105.119,64.744" style="fill:none;stroke:#000;stroke-width:8.33px;"/><path d="M1682.31,1280.6l116.815,12.818l52.258,24.902" style="fill:none;stroke:#000;stroke-width:8.33px;"/><path d="M1897.4,1372.1c0,-0 -25.589,135.625 64.642,243.03c90.232,107.405 164.848,139.448 165.366,168.281c0.517,28.833 -5.628,39.662 -26.164,58.094c-20.536,18.431 -15.217,25.836 -59.038,19.97c-43.822,-5.865 -21.515,-1.994 -46.282,-11.189c-24.768,-9.195 -21.714,-12.429 -38.693,-21.989c-16.978,-9.561 -35.415,-33.54 -50.209,-35.283c-14.794,-1.743 -44.477,-26.743 -54.792,-18.379c-10.316,8.363 -31.673,-48.851 -39.02,-61.209c-7.348,-12.358 -6.925,-15.245 -6.925,-15.245" style="fill:none;stroke:#000;stroke-width:8.33px;"/><path d="M1836.74,1761.26c-0,0 -65.884,-8.851 -76.51,-1.621" style="fill:none;stroke:#000;stroke-width:8.33px;"/><path d="M1717.92,1536.27l85.962,3.42l2.327,-27.7c-0,-0 46.759,72.816 151.355,100.718" style="fill:none;stroke:#000;stroke-width:8.33px;"/><path d="M2127.91,1783.95c0,-0 24.123,-7.192 26.595,-0.753c2.473,6.439 58.683,-44.731 63.924,-53.429" style="fill:none;stroke:#000;stroke-width:8.33px;"/><path d="M2139.13,1781.35c0,-0 4.617,19.718 35.154,43.282c30.537,23.564 31.865,39.607 53.113,49.827c21.249,10.22 51.199,57.962 93.507,70.95c42.307,12.988 93.287,38.547 113.342,29.801c20.054,-8.746 25.19,-5.661 25.19,-5.661" style="fill:none;stroke:#000;stroke-width:8.33px;"/><path d="M1525.61,921.456l-67.456,127.586" style="fill:none;stroke:#000;stroke-width:8.33px;"/><path d="M1989.61,886.234c0,-0 201.106,-266.603 279.238,-319.012c78.132,-52.409 122.974,-73.314 172.771,-136.467c49.798,-63.153 266.689,-434.676 266.689,-434.676" style="fill:none;stroke:#000;stroke-width:8.33px;"/><path d="M2441.62,430.755l-62.766,-63.033" style="fill:none;stroke:#000;stroke-width:8.33px;"/><path d="M1872.6,1141.96l118.17,87.314" style="fill:none;stroke:#000;stroke-width:8.33px;"/><path d="M2348.05,1338.39l-89.993,104.537c0,-0 -18.866,-7.293 -32.658,0.782c-13.791,8.076 -6.338,16.875 -25.851,12.321c-19.513,-4.553 -24.837,1.281 -36.334,-18.244c-11.496,-19.525 6.742,-19.05 -8.134,-39.31c-14.877,-20.26 -19.608,-39.251 -6.309,-43.129c13.299,-3.877 15.926,-1.98 31.389,-12.161c15.463,-10.18 57.347,-46.259 62.476,-64.319" style="fill:none;stroke:#000;stroke-width:8.33px;"/><path d="M2167.14,1233.11l-93.07,112.345c-0,0 -16.317,12.297 17.692,43.212" style="fill:none;stroke:#000;stroke-width:8.33px;"/><path d="M1469.76,365.094l-541.733,-329.75" style="fill:none;stroke:#000;stroke-width:8.33px;"/><path d="M1359.57,298.022l96.625,-156.273" style="fill:none;stroke:#000;stroke-width:8.33px;"/><path d="M1221.96,216.261l-118.634,215.53c-0,-0 -7.65,22.789 -16.982,32.086c-1.841,1.835 -23.159,7.11 -5.674,3.649" style="fill:none;stroke:#000;stroke-width:8.33px;"/><path d="M1134.68,159.835l-22.442,34.363" style="fill:none;stroke:#000;stroke-width:8.33px;"/><path d="M942.335,267.641l58.599,-90.914" style="fill:none;stroke:#000;stroke-width:8.33px;"/><path d="M972.86,319.26l-34.445,45.756" style="fill:none;stroke:#000;stroke-width:8.33px;"/><path d="M972.86,319.26l42.168,-75.105c0,0 15.62,6.651 32.751,-11.671c17.132,-18.321 22.528,-24.071 22.528,-24.071" style="fill:none;stroke:#000;stroke-width:8.33px;"/><path d="M1121.24,689.721l27.888,-45.33c-0,-0 16.556,-24.3 -7.755,-57.827c-24.31,-33.527 -372.358,-585.001 -372.358,-585.001" style="fill:none;stroke:#000;stroke-width:8.33px;"/><path d="M930.16,1134.31c-0,0 124.523,-51.176 153.648,-78.404c29.124,-27.227 223.544,-250.765 223.544,-250.765c0,-0 40.469,-47.517 45.105,-80.249c1.215,-8.578 -11.509,-22.032 -14.453,-26.361" style="fill:none;stroke:#000;stroke-width:8.33px;"/><path d="M1708.2,0c0,0 -353.919,537.334 -359.015,575.224c-5.096,37.891 12.586,82.576 -4.137,107.616c-16.722,25.039 -119.969,144.811 -119.969,144.811l-292.159,300.111c0,0 -705.853,774.828 -737.886,795.048c-32.034,20.219 -195.31,167.137 -195.31,167.137" style="fill:none;stroke:#000;stroke-width:8.33px;"/><path d="M1732.17,1044.42c-0,-0 3.252,10.889 -3.454,30.385c-4.405,12.808 -2.252,36.76 -7.503,46.087c-36.678,65.145 -43.661,151.349 -40.339,193.417c4.66,59.026 55.713,376.274 66.227,393.532c10.515,17.258 21.627,173.861 22.46,206.607c0.834,32.746 122.58,373.051 175.862,448.272c53.282,75.222 -43.712,78.097 -43.712,78.097" style="fill:none;stroke:#000;stroke-width:8.33px;"/><path d="M1972.28,1123.14l-122.162,196.29l283.522,305.38c0,-0 116.152,165.581 281.471,305.514c165.32,139.934 66.407,81.3 319.138,222.841c252.731,141.54 239.111,137.83 239.111,137.83" style="fill:none;stroke:#000;stroke-width:8.33px;"/><path d="M1879.72,931.133c-0,-0 62.412,103.782 31.678,148.949c-30.734,45.168 -73.996,103.627 -73.996,103.627c-0,-0 -32.454,35.187 -30.665,57.338c1.789,22.151 -15.503,75.639 -6.303,155.39c9.2,79.752 4.393,203.615 4.393,203.615l1.582,99.164c0,0 -22.439,72.656 -43.296,91.094" style="fill:none;stroke:#000;stroke-width:8.33px;"/><g transform="matrix(0.627483,-0.77863,0.77863,0.627483,-54.455,1464.73)"><text x="2480.06px" y="1046.24px" style="font-family:'ArialMT', 'Arial', sans-serif;font-size:51.614px;fill:#6d88fa;">Pilica</text></g><g transform="matrix(-0.488968,-0.872302,0.872302,-0.488968,-474.522,6473.39)"><text x="2751.3px" y="3663.14px" style="font-family:'ArialMT', 'Arial', sans-serif;font-size:57.737px;fill:#6d88fa;">Pilica</text></g></g><g transform="matrix(0.687132,0.726533,-0.726533,0.687132,135.728,-1422.61)"><text x="3376.48px" y="623.833px" style="font-family:'ArialMT', 'Arial', sans-serif;font-size:50px;">Kielecka</text></g><g transform="matrix(0.670004,-0.742358,0.742358,0.670004,-1604.58,-300.175)"><text x="516.917px" y="2826.32px" style="font-family:'ArialMT', 'Arial', sans-serif;font-size:41.667px;">Częstochowska</text></g><g transform="matrix(0.670004,-0.742358,0.742358,0.670004,-2279.4,-526.439)"><text x="-74.995px" y="3472.22px" style="font-family:'ArialMT', 'Arial', sans-serif;font-size:41.667px;">Częstochowska</text></g><g transform="matrix(0.147031,0.989132,-0.989132,0.147031,1728.75,-3000.43)"><text x="4260.92px" y="673.721px" style="font-family:'ArialMT', 'Arial', sans-serif;font-size:41.667px;">Krakowska</text></g><g transform="matrix(0.530213,-0.847864,0.847864,0.530213,-1981.34,301.268)"><text x="938.036px" y="3104.19px" style="font-family:'ArialMT', 'Arial', sans-serif;font-size:33.333px;">T<tspan x="957.16px 975.699px " y="3104.19px 3104.19px ">ur</tspan>ystyczna</text></g><g transform="matrix(0.46932,-0.883028,0.883028,0.46932,-2911.66,770.899)"><text x="842.383px" y="3973.5px" style="font-family:'ArialMT', 'Arial', sans-serif;font-size:33.333px;">T<tspan x="861.508px 880.046px " y="3973.5px 3973.5px ">ur</tspan>ystyczna</text></g><g transform="matrix(0.435614,0.900134,-0.900134,0.435614,1428.64,-1891.94)"><text x="3879.89px" y="1364.87px" style="font-family:'ArialMT', 'Arial', sans-serif;font-size:41.667px;">Krakowska</text></g><g transform="matrix(0.443387,-0.89633,0.89633,0.443387,-1717.98,1312.97)"><text x="1855.01px" y="3211.32px" style="font-family:'ArialMT', 'Arial', sans-serif;font-size:41.667px;">Pocztowa</text></g><g transform="matrix(0.990415,0.138123,-0.138123,0.990415,-66.2893,-139.446)"><text x="2628.44px" y="624.225px" style="font-family:'ArialMT', 'Arial', sans-serif;font-size:41.667px;">Konecka</text></g><g transform="matrix(0.519734,-0.854328,0.854328,0.519734,-1459.65,198.62)"><text x="1103.68px" y="2569.15px" style="font-family:'ArialMT', 'Arial', sans-serif;font-size:41.667px;">Piotrkowska</text></g><g transform="matrix(0.859681,0.510831,-0.510831,0.859681,-872.305,-359.013)"><text x="1874.18px" y="-595.746px" style="font-family:'ArialMT', 'Arial', sans-serif;font-size:41.667px;">Majowa Góra</text></g><g transform="matrix(0.549367,-0.835581,0.835581,0.549367,-1050.35,11.679)"><text x="1142.5px" y="2151.22px" style="font-family:'ArialMT', 'Arial', sans-serif;font-size:41.667px;">Lipowa</text></g><g transform="matrix(0.879757,0.475424,-0.475424,0.879757,-270.795,-513.201)"><text x="2536.01px" y="373.664px" style="font-family:'ArialMT', 'Arial', sans-serif;font-size:33.333px;">Mostowa</text></g><path d="M0,1122.68c0,-0 308.681,-83.748 397.415,-107.822c15.312,-4.155 28.86,-13.172 38.602,-25.694c60.659,-77.963 287.501,-369.52 352.051,-452.485c9.903,-12.728 27.635,-16.279 41.675,-8.346c143.663,81.174 872.014,492.71 872.014,492.71c0,0 -6.718,32.254 40.427,10.567c47.146,-21.686 64.221,-70.574 64.221,-70.574c0,0 110.075,-59.676 139.119,-62.511c29.044,-2.835 254.621,-65.048 298.446,-57.547c41.839,7.161 439.367,53.942 475.317,58.169c1.729,0.203 3.464,0.349 5.203,0.437c26.097,1.328 239.53,12.189 239.53,12.189" style="fill:none;stroke:#fee600;stroke-width:14.58px;"/><g><rect x="356.742" y="967.567" width="102.894" height="84.716" style="fill:#ff3800;"/><text x="378.991px" y="1028.69px" style="font-family:'Arial-BoldMT', 'Arial', sans-serif;font-weight:700;font-size:50px;fill:#fff;">42</text></g><g><rect x="2781.43" y="867.442" width="102.894" height="84.716" style="fill:#ff3800;"/><text x="2803.68px" y="928.563px" style="font-family:'Arial-BoldMT', 'Arial', sans-serif;font-weight:700;font-size:50px;fill:#fff;">42</text></g><g transform="matrix(4.16667,0,0,4.16667,-64.3791,-12.9577)"><text x="122.931px" y="481.494px" style="font-family:'ArialMT', 'Arial', sans-serif;font-size:12px;fill:#6d88fa;">Zalew w</text><text x="114.253px" y="493.887px" style="font-family:'ArialMT', 'Arial', sans-serif;font-size:12px;fill:#6d88fa;">Przedborzu</text></g><path d="M1076.97,1343.07c0,-0 -123.904,58.918 -144.834,84.672" style="fill:none;stroke:#000;stroke-width:4.17px;"/><path d="M1903.78,1300.2l-25.216,27.68l34.422,31.357l25.215,-27.68l-34.421,-31.357Z" style="fill:#fff0e1;stroke:#fff1c1;stroke-width:1.67px;"/><path d="M1858.16,1350l-22.302,21.896l27.229,27.735l22.303,-21.896l-27.23,-27.735Z" style="fill:#fff0e1;stroke:#fff1c1;stroke-width:1.67px;"/></svg>