<?xml version="1.0" encoding="UTF-8" standalone="no"?><!DOCTYPE svg PUBLIC "-//W3C//DTD SVG 1.1//EN" "http://www.w3.org/Graphics/SVG/1.1/DTD/svg11.dtd"><svg width="100%" height="100%" viewBox="0 0 1446 1163" version="1.1" xmlns="http://www.w3.org/2000/svg" xmlns:xlink="http://www.w3.org/1999/xlink" xml:space="preserve" xmlns:serif="http://www.serif.com/" style="fill-rule:evenodd;clip-rule:evenodd;stroke-linecap:round;stroke-linejoin:round;stroke-miterlimit:1.5;"><path d="M1214.22,693.445c-2.295,-1.752 -5.204,-2.495 -8.059,-2.058c-2.854,0.437 -5.408,2.016 -7.074,4.375c-7.337,10.387 -19.301,27.328 -26.462,37.467c-3.318,4.698 -2.297,11.184 2.305,14.636c9.794,7.345 25.925,19.444 34.997,26.248c3.948,2.961 5.339,8.249 3.359,12.769c-6.521,14.885 -20.741,47.346 -26.952,61.522c-1.78,4.066 -0.847,8.809 2.34,11.898c8.347,7.906 23.924,22.905 27.992,28.371c5.632,7.568 -7.722,58.054 -0,61.327c7.722,3.273 32.03,25.093 39.793,29.29c7.762,4.197 26.31,0.078 46.597,-4.29c20.287,-4.368 6.238,-9.474 -0,-20.833c-6.238,-11.359 -14.802,-59.752 -12.141,-49.538c2.372,9.104 0.516,-19.887 0.084,-26.297c-0.055,-0.815 -0.205,-1.621 -0.445,-2.402c-2.75,-8.938 -20.276,-65.906 -20.604,-66.971c-0.003,-0.01 -0.006,-0.02 -0.009,-0.03c-0.251,-0.825 -10.686,-35.103 -13.022,-42.777c-0.305,-1.003 -0.46,-2.046 -0.46,-3.095c-0,-5.383 -0,-23.149 -0,-32.104c-0,-3.314 -1.546,-6.438 -4.18,-8.449c-8.287,-6.328 -26.959,-20.584 -38.059,-29.059Z" style="fill:#fff0e1;"/><path d="M905.06,416.508c-1.061,1.138 -1.596,2.668 -1.475,4.218c0.121,1.551 0.886,2.979 2.11,3.939c24.316,19.28 132.614,104.635 147.495,108.668c16.78,4.549 66.854,41.454 71.678,46.392c4.824,4.939 89.137,65.901 104.601,63.246c15.464,-2.654 34.114,-31.311 30.239,-43.694c-3.874,-12.383 -70.294,-49.309 -84.708,-49.277c-14.414,0.032 -61.231,-25.218 -62.5,-37.5c-1.269,-12.282 -73.841,-68.323 -78.418,-60.186c-4.577,8.138 -90.067,-85.003 -92.415,-77.794c-1.867,5.73 -26.555,31.61 -36.607,41.988Z" style="fill:#fff0e1;"/><path d="M1270.69,1067.48c24.356,-15.126 23.887,-2.059 73.172,25.785c23.341,13.187 25.243,47.787 -6.359,69.231c-77.817,0.273 -35.377,0.092 -120.271,0c5.493,-51.854 33.065,-82.352 53.458,-95.016Z" style="fill:#fff0e1;"/><path d="M16.667,1150c-0,0 268.835,-160.751 283.333,-158.333c14.498,2.417 399.708,33.725 422.917,29.166c23.208,-4.558 514.583,-112.5 514.583,-112.5c0,0 60.168,-13.112 79.167,-8.333c18.998,4.779 95.597,8.336 116.666,20.833c21.07,12.498 41.667,20.834 41.667,20.834" style="fill:none;stroke:#000;stroke-width:4.17px;"/><path d="M329.167,0c-0,0 40.406,80.391 120.833,154.167c80.427,73.775 112.053,98.83 116.667,95.833c4.613,-2.997 149.905,41.908 156.25,50c6.345,8.092 83.353,49.047 106.25,50c22.896,0.953 275.057,162.211 279.166,179.167c4.109,16.956 118.385,56.948 120.834,75c2.071,15.273 -2.345,126.993 -3.754,161.023c-0.248,6.655 0.162,13.319 1.225,19.894c4.824,29.625 19.559,114.583 29.822,119.545" style="fill:none;stroke:#000;stroke-width:4.17px;"/><path d="M375.977,998.469c0,-0 -89.936,-156.24 -142.644,-223.469c-52.707,-67.229 -96.22,-101.27 -104.166,-125c-7.947,-23.73 -25.607,-105.825 -33.334,-120.833c-7.726,-15.008 -24.951,-95.27 -50,-129.167c-25.048,-33.897 -37.495,-36.084 -45.833,-41.667" style="fill:none;stroke:#000;stroke-width:4.17px;"/><path d="M702.995,290.767l-102.995,161.547l229.167,128.936" style="fill:none;stroke:#000;stroke-width:4.17px;"/><path d="M1226.4,599.277c-0,-0 71.549,-87.083 73.597,-111.777c2.048,-24.694 -21.912,-84.554 0,-108.333c21.912,-23.779 25.137,-47.636 -43.54,-237.5c-68.678,-189.865 -48.127,-141.667 -48.127,-141.667" style="fill:none;stroke:#000;stroke-width:4.17px;"/><path d="M470.755,173.108c26.568,-56.105 43.695,-113.737 50.078,-173.108" style="fill:none;stroke:#000;stroke-width:4.17px;"/><path d="M1004.68,452.314l12.632,-31.481" style="fill:none;stroke:#000;stroke-width:4.17px;"/><path d="M1256.46,904.629c-0,-0 74.808,227.131 68.54,245.371c-6.268,18.24 -20.833,12.5 -20.833,12.5" style="fill:none;stroke:#000;stroke-width:4.17px;"/><path d="M1303.06,1053.95c-0,0 -33.831,1.695 -36.39,16.883c-2.56,15.188 -13.589,49.429 -20.834,54.167c-7.244,4.738 -29.166,38.357 -29.166,38.357" style="fill:none;stroke:#000;stroke-width:4.17px;"/><text x="492.132px" y="156.82px" style="font-family:'ArialMT', 'Arial', sans-serif;font-size:50px;">Kaleń</text><text x="951.953px" y="410.311px" style="font-family:'ArialMT', 'Arial', sans-serif;font-size:50px;">Majdan</text><text x="1038.7px" y="99.188px" style="font-family:'ArialMT', 'Arial', sans-serif;font-size:41.667px;">Dawidów</text><text x="1118.17px" y="844.735px" style="font-family:'ArialMT', 'Arial', sans-serif;font-size:50px;">Góry Mokre</text><text x="682.563px" y="610.06px" style="font-family:'ArialMT', 'Arial', sans-serif;font-size:41.667px;">Góry Suche</text><g transform="matrix(0.717009,0.697064,-0.697064,0.717009,-213.785,-215.127)"><text x="534.034px" y="-41.695px" style="font-family:'Arial-BoldMT', 'Arial', sans-serif;font-weight:700;font-size:58.333px;">Przedbórz</text></g><path d="M136.156,40.627l-8.364,8.364l0,-25.736l25.736,0l-8.364,8.364l67.623,67.623l-9.008,9.008l-67.623,-67.623Z"/><g transform="matrix(0.270182,0.958634,-0.96713,0.254854,1716.05,-931.973)"><text x="1757.97px" y="897.511px" style="font-family:'Arial-BoldMT', 'Arial', sans-serif;font-weight:700;font-size:30.575px;">Oleszno</text></g><path d="M1387.13,1148.47l8.427,-2.094l-9.524,16.128l-16.405,-9.684l8.427,-2.094l-12.951,-48.576l9.075,-2.256l12.951,48.576Z"/><text x="327.73px" y="1051.89px" style="font-family:'ArialMT', 'Arial', sans-serif;font-size:50px;">Józefów</text><text x="1093.64px" y="1120.72px" style="font-family:'ArialMT', 'Arial', sans-serif;font-size:33.333px;">Kajetanów</text></svg>