<?xml version="1.0" encoding="UTF-8" standalone="no"?><!DOCTYPE svg PUBLIC "-//W3C//DTD SVG 1.1//EN" "http://www.w3.org/Graphics/SVG/1.1/DTD/svg11.dtd"><svg width="100%" height="100%" viewBox="0 0 2364 2197" version="1.1" xmlns="http://www.w3.org/2000/svg" xmlns:xlink="http://www.w3.org/1999/xlink" xml:space="preserve" xmlns:serif="http://www.serif.com/" style="fill-rule:evenodd;clip-rule:evenodd;"><g id="wektor"><path id="path1484" d="M1289.09,150.475l-35.432,26.39l-61.069,16.648l1.712,18.6l15.846,7.767l25.889,-5.178l27.184,-14.239l24.595,-7.767l18.122,-18.123l18.123,-17.14l33.656,2.901l56.956,5.178l55.662,11.65l60.84,3.884l44.012,3.883l69.901,9.061l97.085,-3.883l86.729,-5.178l78.963,-11.65l34.645,-2.569l27.489,-10.376l18.77,-9.722l20.071,-3.216l18.116,21.999l20.711,16.828l12.945,-2.588l12.944,12.28l28.479,5.842l6.492,19.078l19.397,17.167l16.828,20.712l-6.472,41.422l11.65,50.485l23.3,76.373l27.184,64.723l27.191,85.754l19.064,20.393l2.955,46.912l16.476,26.52l-2.257,48.247l1.294,31.068l-3.883,31.067l-24.595,16.828l-29.773,14.239l-38.834,20.711l-29.128,43.68l-34.314,53.724l-3.87,21.687l10.356,16.828l51.779,3.884l51.778,28.478l31.067,40.128l-27.183,20.712l-5.178,32.361l11.65,31.711l-17.499,7.435l-8.39,13.941l2.589,54.354l14.239,18.123l28.478,40.128l-8.072,33.649l9.366,27.191l15.534,24.595l27.184,7.767l2.589,22.005l19.417,23.301l1.294,31.067l9.061,20.711l31.068,10.356l3.883,7.767l-19.417,3.883l-10.356,12.945l0,16.828l20.712,28.478l7.441,16.449l-6.641,25.445l-3.389,20.241l-3.884,31.067l-22.005,18.122l-27.184,1.295l-31.067,14.239l-41.423,51.779l-55.662,77.668l-97.085,130.741l-56.957,69.901l15.534,34.95l11.65,22.006l-0,9.061l2.589,15.534l-0,38.834l27.184,28.478l16.828,23.301l7.767,23.3l-15.534,5.178l-15.547,-11.352l-11.637,-6.771l-29.773,-3.883l-42.717,-11.65l-30.735,-14.565l-45.638,-12.619l-34.951,-12.945l-6.472,-15.533l1.294,-19.417l-20.711,-14.239l-24.595,-19.417l-11.969,14.246l-17.804,-11.657l-20.711,-11.651l-15.534,0l-16.828,7.767l-25.889,-2.589l-18.123,-15.533l-14.239,6.472l-9.061,20.711l-10.356,-10.355l-24.595,-1.295l-9.061,14.239l12.945,14.24l-20.712,1.294l-5.178,22.006l-16.828,2.589l-40.128,-41.423l-18.123,-3.883l-10.355,7.766l-28.479,-1.294l-19.417,5.178l-11.65,-0l-10.688,-8.729l-2.256,25.557l-22.006,5.178l-27.184,7.766l-6.805,24.263l-3.551,27.516l-16.835,-5.171l-10.349,-12.951l-22.006,2.589l-14.239,9.061l-22.006,-5.178l1.295,-24.595l7.767,-40.128l-15.534,-10.356l-15.534,-0l-10.355,-9.061l-19.417,-19.417l-5.178,-18.123l-11.65,-25.889l-12.945,-5.178l-10.356,24.595l-27.183,5.178l-15.534,29.772l-19.417,23.301l-25.889,-5.178l-12.945,-1.295l-2.589,-28.478l-9.095,-8.722l-10.322,-8.106l-14.239,-23.3l-0,-16.828l-18.123,-15.534l-27.183,-14.239l-6.473,-27.184l-6.472,-42.717l-42.717,-16.828l-22.006,11.65l-22.006,-23.3l-18.123,-5.178l-22.006,-11.65l-12.944,10.355l-22.006,10.356l-22.006,-14.239l-9.061,-24.595l-14.24,-18.123l-27.183,-16.828l23.3,-11.65l24.595,-7.767l-16.828,-24.594l-23.3,-5.517l-22.006,1.633l-19.417,12.945l-18.123,-10.356l-12.945,-19.417l-16.828,-5.178l-15.533,-15.533l-20.712,-0l-23.3,-15.534l-28.478,-10.356l-18.123,7.767l15.534,16.828l19.417,23.301l11.65,22.006l-1.295,12.944l-28.478,0l-19.417,7.767l-22.006,33.656l-27.183,-6.472l-10.356,-10.356l-9.061,-37.539l-12.627,-9.672l-6.79,-16.218l-18.123,-2.589l-5.178,-12.944l-23.3,-11.651l-16.828,-14.239l16.828,-18.122l22.006,-11.65l19.417,-23.301l-3.884,-23.3l-7.766,-14.239l-18.123,-0l-16.157,-6.473l-11.339,10.343l-20.399,-6.459l-19.417,19.417l-2.589,-32.362l-7.767,-1.294l-9.061,1.294l-23.301,-1.294l-7.766,-20.712l-22.006,5.178l-20.712,-12.945l-23.3,-5.177l-37.54,-12.945l-16.828,-29.773l-14.239,-40.128l-15.533,-2.589l-16.828,-3.884l-18.123,-6.472l-2.589,6.472l0,16.828l-1.294,15.534l-9.062,15.534l-16.828,-3.884l-11.65,0l-12.945,-7.767l5.178,-20.711l11.651,-16.828l18.122,-11.65l10.356,-22.006l9.061,-28.478l5.178,-23.301l-0,-20.711l-9.061,-23.301l-0,-47.895l-28.479,-12.945l-27.183,-12.944l7.766,-16.828l2.589,-34.951l-13.29,-14.584l-0.956,-18.747l-10.349,-18.447l-6.472,-11.651l18.102,-26.54l19.438,-23.944l5.171,-24.595l3.89,-12.944l-11.65,-12.945l-3.579,-27.828l-0.305,-31.717l-25.265,-17.167l-0.624,-29.434l0,-19.417l14.571,-18.116l3.552,-44.018l-27.828,-20.407l-18.773,-24.9l-50.484,-44.012l-3.884,-51.778l23.301,-14.239l31.067,-31.068l-0,-23.3l18.793,-33.039l7.11,-15.819l-10.363,-22.663l-5.185,-29.447l-3.883,-33.656l-9.061,-40.129l-4.833,-21.68l-2.934,-23.626l6.161,-24.927l-2.278,-25.557l-3.883,-18.123l-1.294,-11.65c0.033,-0.008 50.484,10.356 50.484,10.356c-0,-0 49.837,-30.097 49.513,-29.773c0,0 43.527,-16.564 43.526,-16.585c-0.017,0.019 49.95,-11.308 49.999,-11.408l89.966,-22.491l201.936,-59.546l27.184,-40.128l41.423,-42.717l67.956,-5.185l27.834,-11.643l36.245,-34.951l44.012,-14.239l66.018,-3.883l69.901,-25.89l67.312,6.473l27.469,8.383l67.069,37.401l19.901,23.088l5.321,22.754l-5.301,-22.452l-19.89,-23.262l-61.855,-32.046l-4.259,16.184l10.379,24.317l19.417,34.951l3.884,49.189l20.711,24.595l41.423,19.417l37.54,2.589l47.021,-6.255l61.334,-15.689l35.311,-26.749Z" style="fill:none;stroke:#000;stroke-width:3.68px;"/></g></svg>