<?xml version="1.0" encoding="UTF-8" standalone="no"?><!DOCTYPE svg PUBLIC "-//W3C//DTD SVG 1.1//EN" "http://www.w3.org/Graphics/SVG/1.1/DTD/svg11.dtd"><svg width="100%" height="100%" viewBox="0 0 1474 1539" version="1.1" xmlns="http://www.w3.org/2000/svg" xmlns:xlink="http://www.w3.org/1999/xlink" xml:space="preserve" xmlns:serif="http://www.serif.com/" style="fill-rule:evenodd;clip-rule:evenodd;stroke-linecap:round;stroke-linejoin:round;stroke-miterlimit:1.5;"><path d="M990.042,1350.04l107,-0c-4.463,-66.21 -37.52,-103.208 -107,-103" style="fill:none;stroke:#000;stroke-width:2.08px;"/><path d="M849.542,950.042l83.5,-0c2.042,42.017 -22.63,64.645 -83.5,61" style="fill:none;stroke:#000;stroke-width:2.08px;"/><path d="M715.042,779.042l101,-0c1.225,65.34 -26.216,106.028 -101,106" style="fill:none;stroke:#000;stroke-width:2.08px;"/><path d="M996.042,1026.04l128,-0c3.74,-71.302 -31.556,-115.994 -128,-119" style="fill:none;stroke:#000;stroke-width:2.08px;"/><path d="M877.042,1127.04l-0,-105c61.823,8.461 99.131,40.029 101,105" style="fill:none;stroke:#000;stroke-width:2.08px;"/><path d="M765.042,718.042l-0,-115c61.402,5.074 102.025,38.862 112,115" style="fill:none;stroke:#000;stroke-width:2.08px;"/><path d="M1355.04,630.042l-0,118c-71.481,-3.047 -110.042,-42.131 -115,-118" style="fill:none;stroke:#000;stroke-width:2.08px;"/><path d="M94.042,58.042l-0,-57l256,-0l-0,57" style="fill:none;stroke:#000;stroke-width:2.08px;"/><rect x="107.042" y="23.792" width="230" height="11.5" style="fill:none;stroke:#000;stroke-width:2.08px;"/><path d="M644.542,58.792l-0,-57l256,-0l-0,57" style="fill:none;stroke:#000;stroke-width:2.08px;"/><rect x="657.542" y="27.542" width="230" height="11.5" style="fill:none;stroke:#000;stroke-width:2.08px;"/><path d="M232.042,1133.57l-0,42.468l-147.564,-0l0,-42.468" style="fill:none;stroke:#000;stroke-width:2.08px;"/><path d="M1428.82,1128.34l0,42.468l-147.563,-0l0,-42.468" style="fill:none;stroke:#000;stroke-width:2.08px;"/><rect x="91.972" y="1148.29" width="132.576" height="8.568" style="fill:none;stroke:#000;stroke-width:2.08px;"/><rect x="1288.75" y="1144.01" width="132.576" height="8.568" style="fill:none;stroke:#000;stroke-width:2.08px;"/><g transform="matrix(1,0,0,1,-546.021,-688.891)"><text x="1722.63px" y="991.878px" style="font-family:'ArialMT', 'Arial', sans-serif;font-size:33.333px;">POKÓJ</text><text x="1718.9px" y="1026.3px" style="font-family:'ArialMT', 'Arial', sans-serif;font-size:33.333px;">17,2 M2</text></g><g transform="matrix(1,0,0,1,-1044.21,-688.891)"><text x="1722.63px" y="991.878px" style="font-family:'ArialMT', 'Arial', sans-serif;font-size:33.333px;">POKÓJ</text><text x="1718.9px" y="1026.3px" style="font-family:'ArialMT', 'Arial', sans-serif;font-size:33.333px;">22,8 M2</text></g><g transform="matrix(1,0,0,1,-1555.51,-688.891)"><text x="1722.63px" y="991.878px" style="font-family:'ArialMT', 'Arial', sans-serif;font-size:33.333px;">POKÓJ</text><text x="1718.9px" y="1026.3px" style="font-family:'ArialMT', 'Arial', sans-serif;font-size:33.333px;">17,5 M2</text></g><g transform="matrix(1,0,0,1,-1558.02,-89.4668)"><text x="1722.63px" y="991.878px" style="font-family:'ArialMT', 'Arial', sans-serif;font-size:33.333px;">POKÓJ</text><text x="1720.14px" y="1026.3px" style="font-family:'ArialMT', 'Arial', sans-serif;font-size:33.333px;">1<tspan x="1736.21px 1754.75px " y="1026.3px 1026.3px ">1,</tspan>0 M2</text></g><g transform="matrix(1,0,0,1,-1193.8,-79.6809)"><text x="1718.69px" y="991.878px" style="font-family:'ArialMT', 'Arial', sans-serif;font-size:25px;">ŁAZIENKA</text><text x="1740.91px" y="1017.7px" style="font-family:'ArialMT', 'Arial', sans-serif;font-size:25px;">6,0 M2</text></g><g transform="matrix(1,0,0,1,-537.878,-90.4149)"><text x="1722.87px" y="991.878px" style="font-family:'ArialMT', 'Arial', sans-serif;font-size:25px;">KUCHNIA</text><text x="1733.96px" y="1017.7px" style="font-family:'ArialMT', 'Arial', sans-serif;font-size:25px;">15,5 M2</text></g><g transform="matrix(1,-5.72119e-18,5.72119e-18,1,-1045.23,339.436)"><text x="1735.36px" y="991.878px" style="font-family:'ArialMT', 'Arial', sans-serif;font-size:25px;">GANEK</text><text x="1740.91px" y="1017.7px" style="font-family:'ArialMT', 'Arial', sans-serif;font-size:25px;">6,2 M2</text></g><g transform="matrix(1,-5.72119e-18,5.72119e-18,1,-877.153,-201.415)"><text x="1712.22px" y="991.878px" style="font-family:'ArialMT', 'Arial', sans-serif;font-size:25px;">KOR<tspan x="1765.94px 1782.62px 1796.03px 1812.71px " y="991.878px 991.878px 991.878px 991.878px ">YTAR</tspan>Z</text><text x="1740.91px" y="1017.7px" style="font-family:'ArialMT', 'Arial', sans-serif;font-size:25px;">5,8 M2</text></g><g transform="matrix(5.55112e-17,-1,1,5.55112e-17,-205.588,2810.39)"><text x="1714.54px" y="991.878px" style="font-family:'ArialMT', 'Arial', sans-serif;font-size:25px;">SCHOWEK</text><text x="1740.91px" y="1017.7px" style="font-family:'ArialMT', 'Arial', sans-serif;font-size:25px;">1,5 M2</text></g><g transform="matrix(1,0,0,1,-309.865,-115.22)"><text x="1610.63px" y="1422.5px" style="font-family:'ArialMT', 'Arial', sans-serif;font-size:33.333px;">WEJŚCIE</text><text x="1610.63px" y="1456.92px" style="font-family:'ArialMT', 'Arial', sans-serif;font-size:33.333px;">GŁÓWNE</text></g><g transform="matrix(1,5.72119e-18,-5.72119e-18,1,-1342.05,21.4249)"><text x="1610.63px" y="1422.5px" style="font-family:'ArialMT', 'Arial', sans-serif;font-size:33.333px;">WEJŚCIE</text><text x="1642.11px" y="1456.92px" style="font-family:'ArialMT', 'Arial', sans-serif;font-size:33.333px;">NR. 2</text></g><path d="M1163.54,1318.21l-0,9.472l-14.573,-14.572l14.573,-14.573l-0,9.472l117.724,0l0,10.201l-117.724,0Z" style="stroke:#000;stroke-width:2.08px;"/><path d="M336.869,1258.18l-9.472,0l14.572,-14.572l14.573,14.572l-9.472,0l-0,117.724l-10.201,0l-0,-117.724Z" style="stroke:#000;stroke-width:2.08px;"/><path d="M1118.04,58.792l-0,-57l256,-0l-0,57" style="fill:none;stroke:#000;stroke-width:2.08px;"/><rect x="1131.04" y="28.542" width="230" height="11.5" style="fill:none;stroke:#000;stroke-width:2.08px;"/><path d="M184.042,717.042l1,-109c63.565,3.202 101.282,39.471 113,109" style="fill:none;stroke:#000;stroke-width:2.08px;"/><path d="M473.042,866.042l-79,-1c5.653,-46.251 28.243,-76.737 79,-81" style="fill:none;stroke:#000;stroke-width:2.08px;"/><path d="M408.042,1127.04l-0,-91c-52.952,10.088 -91.84,35.469 -103,91" style="fill:none;stroke:#000;stroke-width:2.08px;"/><rect x="1.042" y="59.042" width="472" height="659" style="fill:none;stroke:#000;stroke-width:2.08px;"/><rect x="1.042" y="725.042" width="472" height="402" style="fill:none;stroke:#000;stroke-width:2.08px;"/><rect x="1.042" y="1134.04" width="472" height="402" style="fill:none;stroke:#000;stroke-width:2.08px;"/><rect x="479.042" y="60.042" width="511" height="659" style="fill:none;stroke:#000;stroke-width:2.08px;"/><rect x="479.042" y="725.042" width="511" height="402" style="fill:none;stroke:#000;stroke-width:2.08px;"/><rect x="485.042" y="731.042" width="230" height="390" style="fill:none;stroke:#000;stroke-width:2.08px;"/><rect x="721.275" y="926.042" width="128.266" height="195" style="fill:none;stroke:#000;stroke-width:2.08px;"/><rect x="479.042" y="1135.04" width="511" height="402" style="fill:none;stroke:#000;stroke-width:2.08px;"/><rect x="996.042" y="60.042" width="476" height="564" style="fill:none;stroke:#000;stroke-width:2.08px;"/><rect x="996.042" y="630.042" width="476" height="497" style="fill:none;stroke:#000;stroke-width:2.08px;"/></svg>